# Blender 5.1.2
# www.blender.org
mtllib ArvoreAlta.mtl
o Cube
v -1.820702 -0.969415 1.820702
v -1.000000 1.000000 1.000000
v -1.820702 -0.969415 -1.820702
v -1.000000 1.000000 -1.000000
v 1.820702 -0.969415 1.820702
v 1.000000 1.000000 1.000000
v 1.820702 -0.969415 -1.820702
v 1.000000 1.000000 -1.000000
v -1.000000 10.834923 1.000000
v -1.000000 10.834923 -1.000000
v 1.000000 10.834923 -1.000000
v 1.000000 10.834923 1.000000
v -1.000000 18.317995 1.000000
v -1.000000 18.317995 -1.000000
v 1.000000 18.317995 -1.000000
v 1.000000 18.317995 1.000000
v 0.000000 0.000000 -1.000000
v -0.195090 0.000000 -0.980785
v -0.382683 0.000000 -0.923880
v -0.555570 0.000000 -0.831470
v -0.707107 0.000000 -0.707107
v -0.831470 0.000000 -0.555570
v -0.923880 0.000000 -0.382683
v -0.980785 0.000000 -0.195090
v -1.000000 0.000000 0.000000
v -0.980785 0.000000 0.195090
v -0.923880 0.000000 0.382683
v -0.831470 0.000000 0.555570
v -0.707107 0.000000 0.707107
v -0.555570 0.000000 0.831470
v -0.382683 0.000000 0.923880
v -0.195090 0.000000 0.980785
v 0.000000 0.000000 1.000000
v 0.195090 0.000000 0.980785
v 0.382683 0.000000 0.923880
v 0.555570 0.000000 0.831470
v 0.707107 0.000000 0.707107
v 0.831470 0.000000 0.555570
v 0.923880 0.000000 0.382683
v 0.980785 0.000000 0.195090
v 1.000000 0.000000 0.000000
v 0.980785 0.000000 -0.195090
v 0.923880 0.000000 -0.382683
v 0.831470 0.000000 -0.555570
v 0.707107 0.000000 -0.707107
v 0.555570 0.000000 -0.831470
v 0.382683 0.000000 -0.923880
v 0.195090 0.000000 -0.980785
v -0.000000 13.003139 -5.790745
v 0.000000 20.592249 -1.000000
v 4.094675 13.003139 -4.094675
v 0.707107 20.592249 -0.707107
v 5.790745 13.003139 0.000000
v 1.000000 20.592249 0.000000
v 4.094675 13.003139 4.094675
v 0.707107 20.592249 0.707107
v -0.000000 13.003139 5.790745
v 0.000000 20.592249 1.000000
v -4.094675 13.003139 4.094675
v -0.707107 20.592249 0.707107
v -5.790745 13.003139 0.000000
v -1.000000 20.592249 0.000000
v -4.094675 13.003139 -4.094675
v -0.707107 20.592249 -0.707107
v 0.000000 12.781506 -1.000000
v -0.707107 12.781506 -0.707107
v -1.000000 12.781506 0.000000
v -0.707107 12.781506 0.707107
v 0.000000 12.781506 1.000000
v 0.707107 12.781506 0.707107
v 1.000000 12.781506 0.000000
v 0.707107 12.781506 -0.707107
v -0.000000 16.961634 -4.232841
v 0.000000 22.807594 -1.000000
v 2.993071 16.961634 -2.993071
v 0.707107 22.807594 -0.707107
v 4.232841 16.961634 0.000000
v 1.000000 22.807594 0.000000
v 2.993071 16.961634 2.993071
v 0.707107 22.807594 0.707107
v -0.000000 16.961634 4.232841
v 0.000000 22.807594 1.000000
v -2.993071 16.961634 2.993071
v -0.707107 22.807594 0.707107
v -4.232841 16.961634 0.000000
v -1.000000 22.807594 0.000000
v -2.993071 16.961634 -2.993071
v -0.707107 22.807594 -0.707107
v -0.000000 20.038721 -3.709458
v 0.000000 24.341106 -1.000000
v 2.622983 20.038721 -2.622983
v 0.707107 24.341106 -0.707107
v 3.709458 20.038721 0.000000
v 1.000000 24.341106 0.000000
v 2.622983 20.038721 2.622983
v 0.707107 24.341106 0.707107
v -0.000000 20.038721 3.709458
v 0.000000 24.341106 1.000000
v -2.622983 20.038721 2.622983
v -0.707107 24.341106 0.707107
v -3.709458 20.038721 0.000000
v -1.000000 24.341106 0.000000
v -2.622983 20.038721 -2.622983
v -0.707107 24.341106 -0.707107
v -0.000000 23.324984 -2.804429
v 0.000000 27.098915 -0.099507
v 1.983031 23.324984 -1.983031
v 0.070362 27.098915 -0.070362
v 2.804429 23.324984 0.000000
v 0.099507 27.098915 0.000000
v 1.983031 23.324984 1.983031
v 0.070362 27.098915 0.070362
v -0.000000 23.324984 2.804429
v 0.000000 27.098915 0.099507
v -1.983031 23.324984 1.983031
v -0.070362 27.098915 0.070362
v -2.804429 23.324984 0.000000
v -0.099507 27.098915 0.000000
v -1.983031 23.324984 -1.983031
v -0.070362 27.098915 -0.070362
vn -0.9231 0.3847 -0.0000
vn -0.0000 0.3847 -0.9231
vn 0.9231 0.3847 -0.0000
vn -0.0000 0.3847 0.9231
vn -0.0000 -1.0000 -0.0000
vn -0.0000 -0.0000 -1.0000
vn 1.0000 -0.0000 -0.0000
vn -1.0000 -0.0000 -0.0000
vn -0.0000 -0.0000 1.0000
vn -0.0000 1.0000 -0.0000
vn 0.3306 0.5038 -0.7981
vn 0.7981 0.5038 -0.3306
vn 0.7981 0.5038 0.3306
vn 0.3306 0.5038 0.7981
vn -0.3306 0.5038 0.7981
vn -0.7981 0.5038 0.3306
vn -0.7981 0.5038 -0.3306
vn -0.3306 0.5038 -0.7981
vn 0.3408 0.4550 -0.8227
vn 0.8227 0.4550 -0.3408
vn 0.8227 0.4550 0.3408
vn 0.3408 0.4550 0.8227
vn -0.3408 0.4550 0.8227
vn -0.8227 0.4550 0.3408
vn -0.8227 0.4550 -0.3408
vn -0.3408 0.4550 -0.8227
vn 0.3308 0.5029 -0.7986
vn -0.3191 0.5521 0.7703
vn 0.7703 0.5521 -0.3191
vn 0.7986 0.5029 -0.3308
vn 0.3191 0.5521 0.7703
vn 0.7986 0.5029 0.3308
vn 0.3308 0.5029 0.7986
vn 0.3191 0.5521 -0.7703
vn -0.3308 0.5029 0.7986
vn 0.7703 0.5521 0.3191
vn -0.7986 0.5029 0.3308
vn -0.7986 0.5029 -0.3308
vn -0.3308 0.5029 -0.7986
vn -0.7703 0.5521 0.3191
vn -0.7703 0.5521 -0.3191
vn -0.3191 0.5521 -0.7703
vt 0.375000 0.000000
vt 0.625000 0.000000
vt 0.625000 0.250000
vt 0.375000 0.250000
vt 0.625000 0.500000
vt 0.375000 0.500000
vt 0.625000 0.750000
vt 0.375000 0.750000
vt 0.625000 1.000000
vt 0.375000 1.000000
vt 0.125000 0.500000
vt 0.125000 0.750000
vt 0.875000 0.500000
vt 0.875000 0.750000
vt 1.000000 0.500000
vt 1.000000 1.000000
vt 0.875000 1.000000
vt 0.750000 1.000000
vt 0.750000 0.500000
vt 0.500000 1.000000
vt 0.500000 0.500000
vt 0.250000 1.000000
vt 0.250000 0.500000
vt 0.419706 0.419706
vt 0.250000 0.490000
vt 0.080294 0.419706
vt 0.010000 0.250000
vt 0.080294 0.080294
vt 0.250000 0.010000
vt 0.419706 0.080294
vt 0.490000 0.250000
vt 0.125000 1.000000
vt 0.000000 1.000000
vt 0.000000 0.500000
vt 0.750000 0.490000
vt 0.919706 0.419706
vt 0.990000 0.250000
vt 0.919706 0.080294
vt 0.750000 0.010000
vt 0.580294 0.080294
vt 0.510000 0.250000
vt 0.580294 0.419706
s 0
f 1/1/1 2/2/1 4/3/1 3/4/1
f 3/4/2 4/3/2 8/5/2 7/6/2
f 7/6/3 8/5/3 6/7/3 5/8/3
f 5/8/4 6/7/4 2/9/4 1/10/4
f 3/11/5 7/6/5 5/8/5 1/12/5
f 8/5/6 4/3/6 10/3/6 11/5/6
f 12/7/7 11/5/7 15/5/7 16/7/7
f 6/7/7 8/5/7 11/5/7 12/7/7
f 4/3/8 2/2/8 9/2/8 10/3/8
f 2/9/9 6/7/9 12/7/9 9/9/9
f 15/5/10 14/13/10 13/14/10 16/7/10
f 10/3/8 9/2/8 13/2/8 14/3/8
f 9/9/9 12/7/9 16/7/9 13/9/9
f 11/5/6 10/3/6 14/3/6 15/5/6
f 49/15/11 50/16/11 52/17/11 51/13/11
f 51/13/12 52/17/12 54/18/12 53/19/12
f 53/19/13 54/18/13 56/9/13 55/5/13
f 55/5/14 56/9/14 58/20/14 57/21/14
f 57/21/15 58/20/15 60/10/15 59/6/15
f 59/6/16 60/10/16 62/22/16 61/23/16
f 52/24/10 50/25/10 64/26/10 62/27/10 60/28/10 58/29/10 56/30/10 54/31/10
f 61/23/17 62/22/17 64/32/17 63/11/17
f 63/11/18 64/32/18 50/33/18 49/34/18
f 49/35/5 51/36/5 53/37/5 55/38/5 57/39/5 59/40/5 61/41/5 63/42/5
f 73/15/19 74/16/19 76/17/19 75/13/19
f 75/13/20 76/17/20 78/18/20 77/19/20
f 77/19/21 78/18/21 80/9/21 79/5/21
f 79/5/22 80/9/22 82/20/22 81/21/22
f 81/21/23 82/20/23 84/10/23 83/6/23
f 83/6/24 84/10/24 86/22/24 85/23/24
f 76/24/10 74/25/10 88/26/10 86/27/10 84/28/10 82/29/10 80/30/10 78/31/10
f 85/23/25 86/22/25 88/32/25 87/11/25
f 87/11/26 88/32/26 74/33/26 73/34/26
f 73/35/5 75/36/5 77/37/5 79/38/5 81/39/5 83/40/5 85/41/5 87/42/5
f 89/15/27 90/16/27 92/17/27 91/13/27
f 113/15/28 114/16/28 116/17/28 115/13/28
f 107/13/29 108/17/29 110/18/29 109/19/29
f 91/13/30 92/17/30 94/18/30 93/19/30
f 111/19/31 112/18/31 114/9/31 113/5/31
f 93/19/32 94/18/32 96/9/32 95/5/32
f 95/5/33 96/9/33 98/20/33 97/21/33
f 105/5/34 106/9/34 108/20/34 107/21/34
f 97/21/35 98/20/35 100/10/35 99/6/35
f 109/21/36 110/20/36 112/10/36 111/6/36
f 99/6/37 100/10/37 102/22/37 101/23/37
f 92/24/10 90/25/10 104/26/10 102/27/10 100/28/10 98/29/10 96/30/10 94/31/10
f 101/23/38 102/22/38 104/32/38 103/11/38
f 103/11/39 104/32/39 90/33/39 89/34/39
f 89/35/5 91/36/5 93/37/5 95/38/5 97/39/5 99/40/5 101/41/5 103/42/5
f 115/6/40 116/10/40 118/22/40 117/23/40
f 109/37/5 111/38/5 113/39/5 115/40/5 117/41/5 119/42/5 105/35/5 107/36/5
f 117/23/41 118/22/41 120/32/41 119/11/41
f 119/11/42 120/32/42 106/33/42 105/34/42
f 116/28/10 114/29/10 112/30/10 110/31/10 108/24/10 106/25/10 120/26/10 118/27/10
l 18 17
l 19 18
l 20 19
l 21 20
l 22 21
l 23 22
l 24 23
l 25 24
l 26 25
l 27 26
l 28 27
l 29 28
l 30 29
l 31 30
l 32 31
l 33 32
l 34 33
l 35 34
l 36 35
l 37 36
l 38 37
l 39 38
l 40 39
l 41 40
l 42 41
l 43 42
l 44 43
l 45 44
l 46 45
l 47 46
l 48 47
l 17 48
l 66 65
l 67 66
l 68 67
l 69 68
l 70 69
l 71 70
l 72 71
l 65 72
