# Blender 5.1.1
# www.blender.org
mtllib bandeira.mtl
o Cylinder
v 0.000000 -0.007800 -0.121403
v 0.000000 7.952579 -0.121403
v 0.023684 -0.007800 -0.119070
v 0.023684 7.952579 -0.119070
v 0.046459 -0.007800 -0.112161
v 0.046459 7.952579 -0.112161
v 0.067448 -0.007800 -0.100943
v 0.067448 7.952579 -0.100943
v 0.085845 -0.007800 -0.085845
v 0.085845 7.952579 -0.085845
v 0.100943 -0.007800 -0.067448
v 0.100943 7.952579 -0.067448
v 0.112161 -0.007800 -0.046459
v 0.112161 7.952579 -0.046459
v 0.119070 -0.007800 -0.023684
v 0.119070 7.952579 -0.023684
v 0.121403 -0.007800 0.000000
v 0.121403 7.952579 0.000000
v 0.119070 -0.007800 0.023684
v 0.119070 7.952579 0.023684
v 0.112161 -0.007800 0.046459
v 0.112161 7.952579 0.046459
v 0.100943 -0.007800 0.067448
v 0.100943 7.952579 0.067448
v 0.085845 -0.007800 0.085845
v 0.085845 7.952579 0.085845
v 0.067448 -0.007800 0.100943
v 0.067448 7.952579 0.100943
v 0.046459 -0.007800 0.112161
v 0.046459 7.952579 0.112161
v 0.023684 -0.007800 0.119070
v 0.023684 7.952579 0.119070
v 0.000000 -0.007800 0.121403
v 0.000000 7.952579 0.121403
v -0.023684 -0.007800 0.119070
v -0.023684 7.952579 0.119070
v -0.046459 -0.007800 0.112161
v -0.046459 7.952579 0.112161
v -0.067448 -0.007800 0.100943
v -0.067448 7.952579 0.100943
v -0.085845 -0.007800 0.085845
v -0.085845 7.952579 0.085845
v -0.100943 -0.007800 0.067448
v -0.100943 7.952579 0.067448
v -0.112161 -0.007800 0.046459
v -0.112161 7.952579 0.046459
v -0.119070 -0.007800 0.023684
v -0.119070 7.952579 0.023684
v -0.121403 -0.007800 0.000000
v -0.121403 7.952579 0.000000
v -0.119070 -0.007800 -0.023684
v -0.119070 7.952579 -0.023684
v -0.112161 -0.007800 -0.046459
v -0.112161 7.952579 -0.046459
v -0.100943 -0.007800 -0.067448
v -0.100943 7.952579 -0.067448
v -0.085845 -0.007800 -0.085845
v -0.085845 7.952579 -0.085845
v -0.067448 -0.007800 -0.100943
v -0.067448 7.952579 -0.100943
v -0.046459 -0.007800 -0.112161
v -0.046459 7.952579 -0.112161
v -0.023684 -0.007800 -0.119070
v -0.023684 7.952579 -0.119070
vn 0.0980 -0.0000 -0.9952
vn 0.2903 -0.0000 -0.9569
vn 0.4714 -0.0000 -0.8819
vn 0.6344 -0.0000 -0.7730
vn 0.7730 -0.0000 -0.6344
vn 0.8819 -0.0000 -0.4714
vn 0.9569 -0.0000 -0.2903
vn 0.9952 -0.0000 -0.0980
vn 0.9952 -0.0000 0.0980
vn 0.9569 -0.0000 0.2903
vn 0.8819 -0.0000 0.4714
vn 0.7730 -0.0000 0.6344
vn 0.6344 -0.0000 0.7730
vn 0.4714 -0.0000 0.8819
vn 0.2903 -0.0000 0.9569
vn 0.0980 -0.0000 0.9952
vn -0.0980 -0.0000 0.9952
vn -0.2903 -0.0000 0.9569
vn -0.4714 -0.0000 0.8819
vn -0.6344 -0.0000 0.7730
vn -0.7730 -0.0000 0.6344
vn -0.8819 -0.0000 0.4714
vn -0.9569 -0.0000 0.2903
vn -0.9952 -0.0000 0.0980
vn -0.9952 -0.0000 -0.0980
vn -0.9569 -0.0000 -0.2903
vn -0.8819 -0.0000 -0.4714
vn -0.7730 -0.0000 -0.6344
vn -0.6344 -0.0000 -0.7730
vn -0.4714 -0.0000 -0.8819
vn -0.0000 1.0000 -0.0000
vn -0.2903 -0.0000 -0.9569
vn -0.0980 -0.0000 -0.9952
vn -0.0000 -1.0000 -0.0000
vt 1.000000 0.500000
vt 1.000000 1.000000
vt 0.968750 1.000000
vt 0.968750 0.500000
vt 0.937500 1.000000
vt 0.937500 0.500000
vt 0.906250 1.000000
vt 0.906250 0.500000
vt 0.875000 1.000000
vt 0.875000 0.500000
vt 0.843750 1.000000
vt 0.843750 0.500000
vt 0.812500 1.000000
vt 0.812500 0.500000
vt 0.781250 1.000000
vt 0.781250 0.500000
vt 0.750000 1.000000
vt 0.750000 0.500000
vt 0.718750 1.000000
vt 0.718750 0.500000
vt 0.687500 1.000000
vt 0.687500 0.500000
vt 0.656250 1.000000
vt 0.656250 0.500000
vt 0.625000 1.000000
vt 0.625000 0.500000
vt 0.593750 1.000000
vt 0.593750 0.500000
vt 0.562500 1.000000
vt 0.562500 0.500000
vt 0.531250 1.000000
vt 0.531250 0.500000
vt 0.500000 1.000000
vt 0.500000 0.500000
vt 0.468750 1.000000
vt 0.468750 0.500000
vt 0.437500 1.000000
vt 0.437500 0.500000
vt 0.406250 1.000000
vt 0.406250 0.500000
vt 0.375000 1.000000
vt 0.375000 0.500000
vt 0.343750 1.000000
vt 0.343750 0.500000
vt 0.312500 1.000000
vt 0.312500 0.500000
vt 0.281250 1.000000
vt 0.281250 0.500000
vt 0.250000 1.000000
vt 0.250000 0.500000
vt 0.218750 1.000000
vt 0.218750 0.500000
vt 0.187500 1.000000
vt 0.187500 0.500000
vt 0.156250 1.000000
vt 0.156250 0.500000
vt 0.125000 1.000000
vt 0.125000 0.500000
vt 0.093750 1.000000
vt 0.093750 0.500000
vt 0.062500 1.000000
vt 0.062500 0.500000
vt 0.296822 0.485388
vt 0.250000 0.490000
vt 0.203178 0.485388
vt 0.158156 0.471731
vt 0.116663 0.449553
vt 0.080294 0.419706
vt 0.050447 0.383337
vt 0.028269 0.341844
vt 0.014612 0.296822
vt 0.010000 0.250000
vt 0.014612 0.203178
vt 0.028269 0.158156
vt 0.050447 0.116663
vt 0.080294 0.080294
vt 0.116663 0.050447
vt 0.158156 0.028269
vt 0.203178 0.014612
vt 0.250000 0.010000
vt 0.296822 0.014612
vt 0.341844 0.028269
vt 0.383337 0.050447
vt 0.419706 0.080294
vt 0.449553 0.116663
vt 0.471731 0.158156
vt 0.485388 0.203178
vt 0.490000 0.250000
vt 0.485388 0.296822
vt 0.471731 0.341844
vt 0.449553 0.383337
vt 0.419706 0.419706
vt 0.383337 0.449553
vt 0.341844 0.471731
vt 0.031250 1.000000
vt 0.031250 0.500000
vt 0.000000 1.000000
vt 0.000000 0.500000
vt 0.750000 0.490000
vt 0.796822 0.485388
vt 0.841844 0.471731
vt 0.883337 0.449553
vt 0.919706 0.419706
vt 0.949553 0.383337
vt 0.971731 0.341844
vt 0.985388 0.296822
vt 0.990000 0.250000
vt 0.985388 0.203178
vt 0.971731 0.158156
vt 0.949553 0.116663
vt 0.919706 0.080294
vt 0.883337 0.050447
vt 0.841844 0.028269
vt 0.796822 0.014612
vt 0.750000 0.010000
vt 0.703178 0.014612
vt 0.658156 0.028269
vt 0.616663 0.050447
vt 0.580294 0.080294
vt 0.550447 0.116663
vt 0.528269 0.158156
vt 0.514612 0.203178
vt 0.510000 0.250000
vt 0.514612 0.296822
vt 0.528269 0.341844
vt 0.550447 0.383337
vt 0.580294 0.419706
vt 0.616663 0.449553
vt 0.658156 0.471731
vt 0.703178 0.485388
s 0
f 1/1/1 2/2/1 4/3/1 3/4/1
f 3/4/2 4/3/2 6/5/2 5/6/2
f 5/6/3 6/5/3 8/7/3 7/8/3
f 7/8/4 8/7/4 10/9/4 9/10/4
f 9/10/5 10/9/5 12/11/5 11/12/5
f 11/12/6 12/11/6 14/13/6 13/14/6
f 13/14/7 14/13/7 16/15/7 15/16/7
f 15/16/8 16/15/8 18/17/8 17/18/8
f 17/18/9 18/17/9 20/19/9 19/20/9
f 19/20/10 20/19/10 22/21/10 21/22/10
f 21/22/11 22/21/11 24/23/11 23/24/11
f 23/24/12 24/23/12 26/25/12 25/26/12
f 25/26/13 26/25/13 28/27/13 27/28/13
f 27/28/14 28/27/14 30/29/14 29/30/14
f 29/30/15 30/29/15 32/31/15 31/32/15
f 31/32/16 32/31/16 34/33/16 33/34/16
f 33/34/17 34/33/17 36/35/17 35/36/17
f 35/36/18 36/35/18 38/37/18 37/38/18
f 37/38/19 38/37/19 40/39/19 39/40/19
f 39/40/20 40/39/20 42/41/20 41/42/20
f 41/42/21 42/41/21 44/43/21 43/44/21
f 43/44/22 44/43/22 46/45/22 45/46/22
f 45/46/23 46/45/23 48/47/23 47/48/23
f 47/48/24 48/47/24 50/49/24 49/50/24
f 49/50/25 50/49/25 52/51/25 51/52/25
f 51/52/26 52/51/26 54/53/26 53/54/26
f 53/54/27 54/53/27 56/55/27 55/56/27
f 55/56/28 56/55/28 58/57/28 57/58/28
f 57/58/29 58/57/29 60/59/29 59/60/29
f 59/60/30 60/59/30 62/61/30 61/62/30
f 4/63/31 2/64/31 64/65/31 62/66/31 60/67/31 58/68/31 56/69/31 54/70/31 52/71/31 50/72/31 48/73/31 46/74/31 44/75/31 42/76/31 40/77/31 38/78/31 36/79/31 34/80/31 32/81/31 30/82/31 28/83/31 26/84/31 24/85/31 22/86/31 20/87/31 18/88/31 16/89/31 14/90/31 12/91/31 10/92/31 8/93/31 6/94/31
f 61/62/32 62/61/32 64/95/32 63/96/32
f 63/96/33 64/95/33 2/97/33 1/98/33
f 1/99/34 3/100/34 5/101/34 7/102/34 9/103/34 11/104/34 13/105/34 15/106/34 17/107/34 19/108/34 21/109/34 23/110/34 25/111/34 27/112/34 29/113/34 31/114/34 33/115/34 35/116/34 37/117/34 39/118/34 41/119/34 43/120/34 45/121/34 47/122/34 49/123/34 51/124/34 53/125/34 55/126/34 57/127/34 59/128/34 61/129/34 63/130/34
o Plane
v -0.000000 7.765790 0.001725
v 0.000000 5.872856 0.001725
v 0.536543 6.929337 -2.909020
v 1.457560 5.842497 -2.528941
v -0.054868 7.585492 -0.122974
v -0.098688 7.500858 -0.142152
v -0.137234 7.414971 -0.161371
v -0.169948 7.327735 -0.180055
v -0.197798 7.239599 -0.197540
v -0.221893 7.150956 -0.213548
v -0.243241 7.062069 -0.227984
v -0.262619 6.973065 -0.240796
v -0.280463 6.883970 -0.251908
v -0.296735 6.794707 -0.261183
v -0.310608 6.705078 -0.268286
v -0.320137 6.614855 -0.272610
v -0.321834 6.524112 -0.273713
v -0.311961 6.433773 -0.270038
v -0.288444 6.346075 -0.260932
v -0.251268 6.263844 -0.246604
v -0.204278 6.187493 -0.229008
v -0.153644 6.113518 -0.210406
v -0.102027 6.039873 -0.191463
v -0.049647 5.966334 -0.172067
v 1.422961 5.915708 -2.569350
v 1.399391 5.998724 -2.596251
v 1.379222 6.083822 -2.618567
v 1.362256 6.170437 -2.636741
v 1.348724 6.258313 -2.650877
v 1.338246 6.347150 -2.661230
v 1.327490 6.435694 -2.673527
v 1.314859 6.523623 -2.688735
v 1.298513 6.610399 -2.707496
v 1.276914 6.695417 -2.729630
v 1.248619 6.777902 -2.754466
v 1.211707 6.856342 -2.781507
v 1.162924 6.927755 -2.809845
v 1.100856 6.987278 -2.839309
v 1.027523 7.032661 -2.867657
v 0.945441 7.061639 -2.892840
v 0.857822 7.071442 -2.913216
v 0.769000 7.061687 -2.927138
v 0.684277 7.030556 -2.930702
v 0.608364 6.982368 -2.922593
v 0.462210 7.094078 -2.707010
v 0.402479 7.220037 -2.474426
v 0.346995 7.309810 -2.224516
v 0.292435 7.359499 -1.963461
v 0.239771 7.393831 -1.699470
v 0.188955 7.432642 -1.435636
v 0.140135 7.475080 -1.172039
v 0.091593 7.519665 -0.908891
v 0.041570 7.560831 -0.645623
v -0.042118 7.633077 -0.230566
v 0.025179 5.874881 -0.371348
v 0.088911 5.854731 -0.688215
v 0.144944 5.834695 -0.952048
v 0.208442 5.816132 -1.214490
v 0.286169 5.801812 -1.473410
v 0.391127 5.794041 -1.722811
v 0.553543 5.793416 -1.939327
v 0.773625 5.803561 -2.096751
v 1.014321 5.826206 -2.219187
v 1.249231 5.841424 -2.354261
v 0.031304 7.550486 -0.316733
v 0.120134 7.524858 -0.627127
v 0.177696 7.504019 -0.890901
v 0.228405 7.475428 -1.155704
v 0.276807 7.445864 -1.420860
v 0.327146 7.410977 -1.684999
v 0.380506 7.372293 -1.948263
v 0.435263 7.320506 -2.209062
v 0.489536 7.240960 -2.462900
v 0.544790 7.130627 -2.704699
v -0.014086 7.474861 -0.337536
v 0.128163 7.435093 -0.624603
v 0.227170 7.430207 -0.876105
v 0.300564 7.424940 -1.136739
v 0.359716 7.417136 -1.400921
v 0.413829 7.396616 -1.665503
v 0.468240 7.365173 -1.929195
v 0.523594 7.320262 -2.191063
v 0.577834 7.253033 -2.448459
v 0.630566 7.158155 -2.697426
v -0.065252 7.404023 -0.363414
v 0.076425 7.365420 -0.650583
v 0.213906 7.340956 -0.882004
v 0.329436 7.339977 -1.126915
v 0.417194 7.350244 -1.382648
v 0.488204 7.351000 -1.643788
v 0.550520 7.336409 -1.906934
v 0.609724 7.304610 -2.169667
v 0.666148 7.251146 -2.429721
v 0.719165 7.170081 -2.683311
v -0.109111 7.327041 -0.386384
v 0.020840 7.300193 -0.680388
v 0.166037 7.267936 -0.905895
v 0.308791 7.252376 -1.135466
v 0.430994 7.261279 -1.376628
v 0.532797 7.274671 -1.626802
v 0.616177 7.279336 -1.884150
v 0.687400 7.266170 -2.145170
v 0.750702 7.229761 -2.406473
v 0.807479 7.165309 -2.663781
v -0.144062 7.244421 -0.406101
v -0.028069 7.228197 -0.706738
v 0.112345 7.201410 -0.935755
v 0.263856 7.177453 -1.158667
v 0.408932 7.174322 -1.386818
v 0.540806 7.185019 -1.622347
v 0.654002 7.199437 -1.867261
v 0.747712 7.203844 -2.120965
v 0.825392 7.186670 -2.379971
v 0.890815 7.139861 -2.639198
v -0.171394 7.158211 -0.423131
v -0.067351 7.148882 -0.728529
v 0.062258 7.131603 -0.964561
v 0.212307 7.109463 -1.188344
v 0.368522 7.096654 -1.408897
v 0.520998 7.097587 -1.631808
v 0.661912 7.109904 -1.861738
v 0.783733 7.123381 -2.102525
v 0.883659 7.122703 -2.354144
v 0.964628 7.095344 -2.611652
v -0.192867 7.069880 -0.437859
v -0.096579 7.064195 -0.746098
v 0.021065 7.054480 -0.988769
v 0.163511 7.039371 -1.217946
v 0.321575 7.024942 -1.437378
v 0.485261 7.017442 -1.652320
v 0.646507 7.021477 -1.868748
v 0.795017 7.034495 -2.093783
v 0.921971 7.044000 -2.332316
v 1.023734 7.033075 -2.583282
v -0.210254 6.980349 -0.450481
v -0.117426 6.976349 -0.760105
v -0.008818 6.970708 -1.007270
v 0.123636 6.962035 -1.242845
v 0.277292 6.951469 -1.465685
v 0.444147 6.941757 -1.678734
v 0.617647 6.937976 -1.885783
v 0.787143 6.944914 -2.095737
v 0.940252 6.956909 -2.318041
v 1.066184 6.957456 -2.557837
v -0.224900 6.890123 -0.461080
v -0.132381 6.886864 -0.771149
v -0.028604 6.882960 -1.020669
v 0.095435 6.877869 -1.261107
v 0.241488 6.871778 -1.489308
v 0.405333 6.864875 -1.705431
v 0.584021 6.857728 -1.908538
v 0.767591 6.857928 -2.106763
v 0.942334 6.867131 -2.312678
v 1.092507 6.873373 -2.537993
v -0.237390 6.799434 -0.469633
v -0.143275 6.796499 -0.779600
v -0.041023 6.793292 -1.030046
v 0.077863 6.789690 -1.273328
v 0.216625 6.786249 -1.506214
v 0.374963 6.782448 -1.726632
v 0.552566 6.776662 -1.931677
v 0.743918 6.772913 -2.123000
v 0.934662 6.777758 -2.314518
v 1.107012 6.785846 -2.523101
v -0.247376 6.708342 -0.475920
v -0.150720 6.705591 -0.785517
v -0.048270 6.702741 -1.036191
v 0.068236 6.699710 -1.280889
v 0.202264 6.697319 -1.516769
v 0.355063 6.695240 -1.741249
v 0.528093 6.691924 -1.950624
v 0.721396 6.687816 -2.140597
v 0.922989 6.689184 -2.321090
v 1.114295 6.697073 -2.512494
v -0.253499 6.616858 -0.479410
v -0.154230 6.614326 -0.788630
v -0.051280 6.611771 -1.039411
v 0.064217 6.609022 -1.284814
v 0.195459 6.606999 -1.522403
v 0.344033 6.605588 -1.749775
v 0.512593 6.603667 -1.962825
v 0.703624 6.600966 -2.155771
v 0.911111 6.600873 -2.330050
v 1.117414 6.607898 -2.505471
v -0.253180 6.525283 -0.479658
v -0.152632 6.522992 -0.788615
v -0.049981 6.520708 -1.039756
v 0.064521 6.518142 -1.285800
v 0.193963 6.516262 -1.524477
v 0.339892 6.515022 -1.753603
v 0.504948 6.513621 -1.969432
v 0.692287 6.512115 -2.166167
v 0.901189 6.512277 -2.339430
v 1.118194 6.518588 -2.501766
v -0.243252 6.434481 -0.475762
v -0.144233 6.432190 -0.785067
v -0.043653 6.429924 -1.037038
v 0.068746 6.427367 -1.284129
v 0.196342 6.425516 -1.523845
v 0.340432 6.424310 -1.754106
v 0.503256 6.423015 -1.971535
v 0.688327 6.421862 -2.170415
v 0.896630 6.422716 -2.344749
v 1.119663 6.429291 -2.498975
v -0.221933 6.346118 -0.467197
v -0.127103 6.343059 -0.777517
v -0.031561 6.339975 -1.031305
v 0.076836 6.336970 -1.280078
v 0.201580 6.334948 -1.521213
v 0.343852 6.333712 -1.752505
v 0.505554 6.332445 -1.970624
v 0.689912 6.331357 -2.169878
v 0.898431 6.332708 -2.343730
v 1.124887 6.340233 -2.493268
v -0.190035 6.261726 -0.454357
v -0.101242 6.256645 -0.766210
v -0.013072 6.251534 -1.022428
v 0.089018 6.247255 -1.273715
v 0.209211 6.244660 -1.516998
v 0.348986 6.243274 -1.749658
v 0.510145 6.242044 -1.967994
v 0.695653 6.241123 -2.165940
v 0.905996 6.243076 -2.337169
v 1.133414 6.251445 -2.485148
v -0.150419 6.181449 -0.438588
v -0.068331 6.173311 -0.752057
v 0.011576 6.165090 -1.010746
v 0.105490 6.158541 -1.265013
v 0.219129 6.154749 -1.511277
v 0.355163 6.152987 -1.745998
v 0.516159 6.151821 -1.964277
v 0.704362 6.151310 -2.159427
v 0.918345 6.154462 -2.325675
v 1.147070 6.164002 -2.470955
v -0.106306 6.104149 -0.421258
v -0.030476 6.092662 -0.736099
v 0.041373 6.080777 -0.996890
v 0.126301 6.071142 -1.254075
v 0.231480 6.065354 -1.503961
v 0.362205 6.062860 -1.741582
v 0.523265 6.061782 -1.959681
v 0.716046 6.062140 -2.150140
v 0.935124 6.067389 -2.309245
v 1.166109 6.078828 -2.450183
v -0.059489 6.028944 -0.403074
v 0.010526 6.013977 -0.719129
v 0.074826 5.998240 -0.981707
v 0.150890 5.985090 -1.241484
v 0.246448 5.976635 -1.495073
v 0.370062 5.972924 -1.736418
v 0.531455 5.971970 -1.954166
v 0.731050 5.973992 -2.137340
v 0.956519 5.982716 -2.286855
v 1.189544 5.996229 -2.423788
v -0.010756 5.955516 -0.384315
v 0.052312 5.935927 -0.702062
v 0.110314 5.916785 -0.966112
v 0.178731 5.900314 -1.227849
v 0.264776 5.888827 -1.484589
v 0.379892 5.883370 -1.729849
v 0.541612 5.882557 -1.947070
v 0.750153 5.887617 -2.119620
v 0.983044 5.902109 -2.256551
v 1.216581 5.916252 -2.392589
v -0.023444 5.928735 -0.158392
v 1.439746 5.878423 -2.549856
v 0.010456 5.917182 -0.374676
v 0.071205 5.895786 -0.693917
v 0.127806 5.875890 -0.958504
v 0.193489 5.858204 -1.220895
v 0.275293 5.845256 -1.478912
v 0.385590 5.838689 -1.726282
v 0.547696 5.837975 -1.943211
v 0.762105 5.845549 -2.108446
v 0.999113 5.864263 -2.238006
v 1.233836 5.879736 -2.372471
v 0.571997 6.956277 -2.916486
v -0.032028 7.631885 -0.109214
v 0.017190 7.593198 -0.319550
v 0.084208 7.550490 -0.635520
v 0.135732 7.517325 -0.900107
v 0.184368 7.479131 -1.164366
v 0.232703 7.441013 -1.428569
v 0.283405 7.402930 -1.692347
v 0.336423 7.366402 -1.955912
v 0.391074 7.315628 -2.216837
v 0.445853 7.231215 -2.468924
v 0.503195 7.113008 -2.706306
vn 0.5329 0.5686 0.6266
vn -0.4141 0.6759 -0.6096
vn -0.3557 0.7534 -0.5531
vn -0.1682 0.8686 -0.4661
vn 0.0440 0.9274 -0.3714
vn 0.2608 0.9288 -0.2633
vn 0.4598 0.8774 -0.1366
vn 0.6289 0.7775 0.0072
vn 0.7482 0.6438 0.1604
vn 0.8153 0.4896 0.3091
vn 0.8241 0.3648 0.4334
vn 0.7980 0.2766 0.5354
vn 0.7556 0.2110 0.6201
vn 0.7070 0.1567 0.6896
vn 0.6589 0.1277 0.7413
vn 0.6227 0.1342 0.7709
vn 0.6047 0.1461 0.7829
vn 0.5913 0.2172 0.7766
vn 0.5831 0.2939 0.7574
vn 0.5808 0.3627 0.7287
vn 0.5799 0.4273 0.6936
vn 0.8021 0.5841 0.1241
vn 0.8336 0.5327 0.1460
vn 0.8722 0.4578 0.1722
vn 0.8962 0.3813 0.2266
vn 0.9063 0.2860 0.3113
vn 0.8842 0.1818 0.4304
vn 0.7958 0.1340 0.5906
vn 0.6402 0.2108 0.7387
vn 0.4810 0.3612 0.7989
vn 0.4325 0.4447 0.7843
vn 0.8084 0.5706 0.1446
vn 0.8381 0.5176 0.1721
vn 0.8728 0.4437 0.2036
vn 0.8978 0.3526 0.2640
vn 0.9024 0.2476 0.3528
vn 0.8743 0.1481 0.4623
vn 0.7996 0.1065 0.5911
vn 0.6799 0.1622 0.7151
vn 0.5423 0.2758 0.7936
vn 0.4649 0.3604 0.8087
vn 0.8149 0.5522 0.1759
vn 0.8521 0.4841 0.1990
vn 0.8816 0.4053 0.2419
vn 0.9006 0.3095 0.3051
vn 0.8963 0.2085 0.3913
vn 0.8644 0.1252 0.4870
vn 0.8014 0.0925 0.5910
vn 0.7055 0.1280 0.6970
vn 0.5848 0.2088 0.7838
vn 0.4980 0.2808 0.8205
vn 0.8331 0.5075 0.2198
vn 0.8735 0.4292 0.2296
vn 0.8944 0.3463 0.2830
vn 0.9040 0.2524 0.3451
vn 0.8907 0.1658 0.4233
vn 0.8570 0.1028 0.5050
vn 0.8024 0.0784 0.5916
vn 0.7214 0.0980 0.6855
vn 0.6142 0.1507 0.7746
vn 0.5245 0.1983 0.8280
vn 0.8739 0.4059 0.2676
vn 0.9024 0.3422 0.2619
vn 0.9079 0.2675 0.3227
vn 0.9062 0.1884 0.3787
vn 0.8860 0.1238 0.4468
vn 0.8519 0.0804 0.5175
vn 0.8026 0.0611 0.5934
vn 0.7304 0.0665 0.6798
vn 0.6327 0.0917 0.7689
vn 0.5416 0.1173 0.8324
vn 0.9164 0.2636 0.3012
vn 0.9299 0.2277 0.2889
vn 0.9184 0.1761 0.3543
vn 0.9071 0.1233 0.4025
vn 0.8828 0.0821 0.4626
vn 0.8487 0.0529 0.5263
vn 0.8015 0.0336 0.5970
vn 0.7329 0.0212 0.6800
vn 0.6409 0.0186 0.7674
vn 0.5580 0.0530 0.8281
vn 0.9420 0.1161 0.3149
vn 0.9463 0.1080 0.3047
vn 0.9239 0.0878 0.3724
vn 0.9069 0.0628 0.4166
vn 0.8804 0.0380 0.4727
vn 0.8455 0.0140 0.5337
vn 0.7973 -0.0137 0.6035
vn 0.7272 -0.0468 0.6848
vn 0.6386 -0.0710 0.7663
vn 0.5843 -0.0216 0.8113
vn 0.9502 -0.0095 0.3114
vn 0.9515 0.0096 0.3075
vn 0.9253 0.0140 0.3789
vn 0.9057 0.0049 0.4238
vn 0.8771 -0.0138 0.4802
vn 0.8394 -0.0437 0.5418
vn 0.7860 -0.0867 0.6121
vn 0.7095 -0.1409 0.6905
vn 0.6325 -0.1602 0.7578
vn 0.6238 -0.0569 0.7795
vn 0.9503 -0.0946 0.2966
vn 0.9514 -0.0611 0.3018
vn 0.9242 -0.0462 0.3791
vn 0.9024 -0.0517 0.4278
vn 0.8695 -0.0778 0.4879
vn 0.8249 -0.1251 0.5512
vn 0.7629 -0.1859 0.6192
vn 0.6834 -0.2378 0.6902
vn 0.6409 -0.2102 0.7383
vn 0.6783 -0.0415 0.7336
vn 0.9497 -0.1459 0.2770
vn 0.9496 -0.1106 0.2934
vn 0.9207 -0.0996 0.3773
vn 0.8939 -0.1164 0.4328
vn 0.8516 -0.1646 0.4976
vn 0.7952 -0.2346 0.5592
vn 0.7231 -0.3074 0.6186
vn 0.6616 -0.3282 0.6742
vn 0.6715 -0.2302 0.7043
vn 0.7400 -0.0030 0.6726
vn 0.9501 -0.1773 0.2568
vn 0.9464 -0.1491 0.2864
vn 0.9125 -0.1556 0.3783
vn 0.8739 -0.2011 0.4425
vn 0.8131 -0.2839 0.5082
vn 0.7429 -0.3708 0.5574
vn 0.6771 -0.4199 0.6043
vn 0.6665 -0.3741 0.6449
vn 0.7249 -0.1987 0.6596
vn 0.7991 0.0749 0.5965
vn 0.9501 -0.2010 0.2384
vn 0.9402 -0.1890 0.2834
vn 0.8936 -0.2285 0.3865
vn 0.8313 -0.3162 0.4571
vn 0.7475 -0.4229 0.5123
vn 0.6779 -0.4971 0.5416
vn 0.6572 -0.4846 0.5772
vn 0.7117 -0.3494 0.6095
vn 0.7925 -0.0976 0.6020
vn 0.8394 0.2098 0.5014
vn 0.9478 -0.2271 0.2239
vn 0.9265 -0.2429 0.2874
vn 0.8534 -0.3289 0.4045
vn 0.7564 -0.4543 0.4706
vn 0.6679 -0.5497 0.5018
vn 0.6447 -0.5600 0.5204
vn 0.6978 -0.4572 0.5513
vn 0.7906 -0.2300 0.5674
vn 0.8496 0.0863 0.5203
vn 0.8333 0.4033 0.3781
vn 0.9402 -0.2628 0.2167
vn 0.8985 -0.3195 0.3011
vn 0.7822 -0.4513 0.4295
vn 0.6626 -0.5788 0.4754
vn 0.6216 -0.6173 0.4822
vn 0.6822 -0.5329 0.5006
vn 0.7888 -0.3245 0.5221
vn 0.8652 -0.0152 0.5012
vn 0.8555 0.3265 0.4019
vn 0.7612 0.6072 0.2278
vn 0.9235 -0.3134 0.2212
vn 0.8482 -0.4177 0.3256
vn 0.6883 -0.5663 0.4533
vn 0.6015 -0.6442 0.4725
vn 0.6637 -0.5848 0.4664
vn 0.7903 -0.3801 0.4806
vn 0.8812 -0.0696 0.4676
vn 0.8758 0.2816 0.3919
vn 0.7743 0.5818 0.2490
vn 0.6182 0.7835 0.0627
vn 0.8922 -0.3810 0.2426
vn 0.7722 -0.5253 0.3574
vn 0.6097 -0.6409 0.4664
vn 0.6340 -0.6170 0.4662
vn 0.7911 -0.4193 0.4454
vn 0.8995 -0.0855 0.4285
vn 0.8888 0.2854 0.3587
vn 0.7668 0.5971 0.2355
vn 0.5950 0.7999 0.0788
vn 0.4217 0.9018 -0.0945
vn 0.8386 -0.4636 0.2860
vn 0.6813 -0.6205 0.3883
vn 0.6157 -0.6395 0.4603
vn 0.7883 -0.4259 0.4440
vn 0.9209 -0.0413 0.3875
vn 0.8827 0.3547 0.3082
vn 0.7279 0.6585 0.1912
vn 0.5392 0.8399 0.0622
vn 0.3647 0.9280 -0.0762
vn 0.2006 0.9527 -0.2282
vn 0.7652 -0.5392 0.3516
vn 0.6566 -0.6325 0.4110
vn 0.8071 -0.4145 0.4204
vn 0.9332 0.0914 0.3476
vn 0.8254 0.5130 0.2357
vn 0.6233 0.7729 0.1193
vn 0.4254 0.9049 0.0152
vn 0.2736 0.9585 -0.0804
vn 0.1426 0.9702 -0.1958
vn 0.0075 0.9443 -0.3290
vn 0.7495 -0.5196 0.4103
vn 0.8953 -0.2435 0.3729
vn 0.9028 0.3446 0.2571
vn 0.6935 0.7107 0.1180
vn 0.4491 0.8930 0.0282
vn 0.2569 0.9651 -0.0504
vn 0.1437 0.9844 -0.1016
vn 0.0760 0.9832 -0.1659
vn -0.0132 0.9603 -0.2785
vn -0.1535 0.8992 -0.4098
vn 0.9323 -0.1326 0.3365
vn 0.7895 0.5996 0.1310
vn 0.4470 0.8945 0.0009
vn 0.2100 0.9741 -0.0835
vn 0.0103 0.9921 -0.1250
vn -0.1169 0.9805 -0.1579
vn -0.1270 0.9780 -0.1653
vn -0.0824 0.9745 -0.2088
vn -0.1049 0.9392 -0.3270
vn -0.2331 0.8553 -0.4627
vn 0.8767 0.4743 0.0802
vn 0.9150 0.3727 0.1547
vn 0.9000 0.4051 0.1612
vn 0.9044 0.3789 0.1964
vn 0.9122 0.3124 0.2650
vn 0.8999 0.2068 0.3840
vn 0.7917 0.1499 0.5923
vn 0.5698 0.2550 0.7813
vn 0.3893 0.4387 0.8099
vn 0.3978 0.5244 0.7528
vn 0.3891 0.5562 0.7344
vn 0.4187 0.4419 0.7934
vn 0.5985 0.2563 0.7590
vn 0.7923 0.1537 0.5904
vn 0.8917 0.2060 0.4030
vn 0.9083 0.3094 0.2815
vn 0.8996 0.3855 0.2051
vn 0.8883 0.4301 0.1608
vn 0.8689 0.4754 0.1383
vn 0.8271 0.5508 0.1117
vn 0.5334 0.5777 0.6179
vn -0.2594 0.8290 -0.4954
vn -0.1276 0.9280 -0.3500
vn -0.1043 0.9723 -0.2090
vn -0.1511 0.9753 -0.1613
vn -0.1659 0.9708 -0.1734
vn -0.1098 0.9794 -0.1697
vn 0.0094 0.9881 -0.1534
vn 0.1663 0.9803 -0.1060
vn 0.4030 0.9132 -0.0605
vn 0.9672 0.2416 -0.0780
vn -0.4352 0.6304 -0.6428
vt 0.976190 0.909091
vt 1.000000 0.909091
vt 1.000000 1.000000
vt 0.976190 1.000000
vt 0.023810 0.909091
vt 0.047619 0.909091
vt 0.047619 1.000000
vt 0.023810 1.000000
vt 0.095238 0.909091
vt 0.095238 1.000000
vt 0.142857 0.909091
vt 0.142857 1.000000
vt 0.190476 0.909091
vt 0.190476 1.000000
vt 0.238095 0.909091
vt 0.238095 1.000000
vt 0.285714 0.909091
vt 0.285714 1.000000
vt 0.333333 0.909091
vt 0.333333 1.000000
vt 0.380952 0.909091
vt 0.380952 1.000000
vt 0.428571 0.909091
vt 0.428571 1.000000
vt 0.476190 0.909091
vt 0.476190 1.000000
vt 0.523810 0.909091
vt 0.523810 1.000000
vt 0.571429 0.909091
vt 0.571429 1.000000
vt 0.619048 0.909091
vt 0.619048 1.000000
vt 0.666667 0.909091
vt 0.666667 1.000000
vt 0.714286 0.909091
vt 0.714286 1.000000
vt 0.761905 0.909091
vt 0.761905 1.000000
vt 0.809524 0.909091
vt 0.809524 1.000000
vt 0.857143 0.909091
vt 0.857143 1.000000
vt 0.904762 0.909091
vt 0.904762 1.000000
vt 0.952381 0.909091
vt 0.952381 1.000000
vt 0.904762 0.000000
vt 0.952381 0.000000
vt 0.952381 0.090909
vt 0.904762 0.090909
vt 0.952381 0.181818
vt 0.904762 0.181818
vt 0.952381 0.272727
vt 0.904762 0.272727
vt 0.952381 0.363636
vt 0.904762 0.363636
vt 0.952381 0.454545
vt 0.904762 0.454545
vt 0.952381 0.545455
vt 0.904762 0.545455
vt 0.952381 0.636364
vt 0.904762 0.636364
vt 0.952381 0.727273
vt 0.904762 0.727273
vt 0.952381 0.818182
vt 0.904762 0.818182
vt 0.857143 0.000000
vt 0.857143 0.090909
vt 0.857143 0.181818
vt 0.857143 0.272727
vt 0.857143 0.363636
vt 0.857143 0.454545
vt 0.857143 0.545455
vt 0.857143 0.636364
vt 0.857143 0.727273
vt 0.857143 0.818182
vt 0.809524 0.000000
vt 0.809524 0.090909
vt 0.809524 0.181818
vt 0.809524 0.272727
vt 0.809524 0.363636
vt 0.809524 0.454545
vt 0.809524 0.545455
vt 0.809524 0.636364
vt 0.809524 0.727273
vt 0.809524 0.818182
vt 0.761905 0.000000
vt 0.761905 0.090909
vt 0.761905 0.181818
vt 0.761905 0.272727
vt 0.761905 0.363636
vt 0.761905 0.454545
vt 0.761905 0.545455
vt 0.761905 0.636364
vt 0.761905 0.727273
vt 0.761905 0.818182
vt 0.714286 0.000000
vt 0.714286 0.090909
vt 0.714286 0.181818
vt 0.714286 0.272727
vt 0.714286 0.363636
vt 0.714286 0.454545
vt 0.714286 0.545455
vt 0.714286 0.636364
vt 0.714286 0.727273
vt 0.714286 0.818182
vt 0.666667 0.000000
vt 0.666667 0.090909
vt 0.666667 0.181818
vt 0.666667 0.272727
vt 0.666667 0.363636
vt 0.666667 0.454545
vt 0.666667 0.545455
vt 0.666667 0.636364
vt 0.666667 0.727273
vt 0.666667 0.818182
vt 0.619048 0.000000
vt 0.619048 0.090909
vt 0.619048 0.181818
vt 0.619048 0.272727
vt 0.619048 0.363636
vt 0.619048 0.454545
vt 0.619048 0.545455
vt 0.619048 0.636364
vt 0.619048 0.727273
vt 0.619048 0.818182
vt 0.571429 0.000000
vt 0.571429 0.090909
vt 0.571429 0.181818
vt 0.571429 0.272727
vt 0.571429 0.363636
vt 0.571429 0.454545
vt 0.571429 0.545455
vt 0.571429 0.636364
vt 0.571429 0.727273
vt 0.571429 0.818182
vt 0.523810 0.000000
vt 0.523810 0.090909
vt 0.523810 0.181818
vt 0.523810 0.272727
vt 0.523810 0.363636
vt 0.523810 0.454545
vt 0.523810 0.545455
vt 0.523810 0.636364
vt 0.523810 0.727273
vt 0.523810 0.818182
vt 0.476190 0.000000
vt 0.476190 0.090909
vt 0.476190 0.181818
vt 0.476190 0.272727
vt 0.476190 0.363636
vt 0.476191 0.454545
vt 0.476190 0.545455
vt 0.476190 0.636364
vt 0.476190 0.727273
vt 0.476190 0.818182
vt 0.428571 0.000000
vt 0.428571 0.090909
vt 0.428571 0.181818
vt 0.428571 0.272727
vt 0.428571 0.363636
vt 0.428571 0.454545
vt 0.428571 0.545455
vt 0.428571 0.636364
vt 0.428571 0.727273
vt 0.428571 0.818182
vt 0.380952 0.000000
vt 0.380952 0.090909
vt 0.380952 0.181818
vt 0.380952 0.272727
vt 0.380952 0.363636
vt 0.380952 0.454545
vt 0.380952 0.545455
vt 0.380952 0.636364
vt 0.380952 0.727273
vt 0.380952 0.818182
vt 0.333333 0.000000
vt 0.333333 0.090909
vt 0.333333 0.181818
vt 0.333333 0.272727
vt 0.333333 0.363636
vt 0.333333 0.454545
vt 0.333333 0.545455
vt 0.333333 0.636364
vt 0.333333 0.727273
vt 0.333333 0.818182
vt 0.285714 0.000000
vt 0.285714 0.090909
vt 0.285714 0.181818
vt 0.285714 0.272727
vt 0.285714 0.363636
vt 0.285714 0.454545
vt 0.285714 0.545455
vt 0.285714 0.636364
vt 0.285714 0.727273
vt 0.285714 0.818182
vt 0.238095 0.000000
vt 0.238095 0.090909
vt 0.238095 0.181818
vt 0.238095 0.272727
vt 0.238095 0.363636
vt 0.238095 0.454545
vt 0.238095 0.545455
vt 0.238095 0.636364
vt 0.238095 0.727273
vt 0.238095 0.818182
vt 0.190476 0.000000
vt 0.190476 0.090909
vt 0.190476 0.181818
vt 0.190476 0.272727
vt 0.190476 0.363636
vt 0.190476 0.454545
vt 0.190476 0.545455
vt 0.190476 0.636364
vt 0.190476 0.727273
vt 0.190476 0.818182
vt 0.142857 0.000000
vt 0.142857 0.090909
vt 0.142857 0.181818
vt 0.142857 0.272727
vt 0.142857 0.363636
vt 0.142857 0.454545
vt 0.142857 0.545455
vt 0.142857 0.636364
vt 0.142857 0.727273
vt 0.142857 0.818182
vt 0.095238 0.000000
vt 0.095238 0.090909
vt 0.095238 0.181818
vt 0.095238 0.272727
vt 0.095238 0.363636
vt 0.095238 0.454545
vt 0.095238 0.545455
vt 0.095238 0.636364
vt 0.095238 0.727273
vt 0.095238 0.818182
vt 0.047619 0.000000
vt 0.047619 0.090909
vt 0.047619 0.181818
vt 0.047619 0.272727
vt 0.047619 0.363636
vt 0.047619 0.454545
vt 0.047619 0.545455
vt 0.047619 0.636364
vt 0.047619 0.727273
vt 0.047619 0.818182
vt 0.023810 0.000000
vt 0.023810 0.090909
vt 0.023810 0.181818
vt 0.023810 0.272727
vt 0.023810 0.363636
vt 0.023810 0.454545
vt 0.023810 0.545455
vt 0.023810 0.636364
vt 0.023810 0.727273
vt 0.023810 0.818182
vt 0.976190 0.000000
vt 1.000000 0.000000
vt 1.000000 0.090909
vt 0.976190 0.090909
vt 1.000000 0.181818
vt 0.976190 0.181818
vt 1.000000 0.272727
vt 0.976190 0.272727
vt 1.000000 0.363636
vt 0.976190 0.363636
vt 1.000000 0.454545
vt 0.976191 0.454545
vt 1.000000 0.545455
vt 0.976190 0.545455
vt 1.000000 0.636364
vt 0.976190 0.636364
vt 1.000000 0.727273
vt 0.976190 0.727273
vt 1.000000 0.818182
vt 0.976190 0.818182
vt 0.000000 0.818182
vt 0.000000 0.909091
vt 0.000000 0.727273
vt 0.000000 0.636364
vt 0.000000 0.545455
vt 0.000000 0.454545
vt 0.000000 0.363636
vt 0.000000 0.272727
vt 0.000000 0.181818
vt 0.000000 0.090909
vt 0.000000 0.000000
vt 0.000000 1.000000
s 0
f 340/131/35 128/132/35 68/133/35 330/134/35
f 352/135/36 138/136/36 108/137/36 341/138/36
f 138/136/37 148/139/37 107/140/37 108/137/37
f 148/139/38 158/141/38 106/142/38 107/140/38
f 158/141/39 168/143/39 105/144/39 106/142/39
f 168/143/40 178/145/40 104/146/40 105/144/40
f 178/145/41 188/147/41 103/148/41 104/146/41
f 188/147/42 198/149/42 102/150/42 103/148/42
f 198/149/43 208/151/43 101/152/43 102/150/43
f 208/151/44 218/153/44 100/154/44 101/152/44
f 218/153/45 228/155/45 99/156/45 100/154/45
f 228/155/46 238/157/46 98/158/46 99/156/46
f 238/157/47 248/159/47 97/160/47 98/158/47
f 248/159/48 258/161/48 96/162/48 97/160/48
f 258/161/49 268/163/49 95/164/49 96/162/49
f 268/163/50 278/165/50 94/166/50 95/164/50
f 278/165/51 288/167/51 93/168/51 94/166/51
f 288/167/52 298/169/52 92/170/52 93/168/52
f 298/169/53 308/171/53 91/172/53 92/170/53
f 308/171/54 318/173/54 90/174/54 91/172/54
f 318/173/55 328/175/55 89/176/55 90/174/55
f 87/177/56 88/178/56 319/179/56 309/180/56
f 309/180/57 319/179/57 320/181/57 310/182/57
f 310/182/58 320/181/58 321/183/58 311/184/58
f 311/184/59 321/183/59 322/185/59 312/186/59
f 312/186/60 322/185/60 323/187/60 313/188/60
f 313/188/61 323/187/61 324/189/61 314/190/61
f 314/190/62 324/189/62 325/191/62 315/192/62
f 315/192/63 325/191/63 326/193/63 316/194/63
f 316/194/64 326/193/64 327/195/64 317/196/64
f 317/196/65 327/195/65 328/175/65 318/173/65
f 86/197/66 87/177/66 309/180/66 299/198/66
f 299/198/67 309/180/67 310/182/67 300/199/67
f 300/199/68 310/182/68 311/184/68 301/200/68
f 301/200/69 311/184/69 312/186/69 302/201/69
f 302/201/70 312/186/70 313/188/70 303/202/70
f 303/202/71 313/188/71 314/190/71 304/203/71
f 304/203/72 314/190/72 315/192/72 305/204/72
f 305/204/73 315/192/73 316/194/73 306/205/73
f 306/205/74 316/194/74 317/196/74 307/206/74
f 307/206/75 317/196/75 318/173/75 308/171/75
f 85/207/76 86/197/76 299/198/76 289/208/76
f 289/208/77 299/198/77 300/199/77 290/209/77
f 290/209/78 300/199/78 301/200/78 291/210/78
f 291/210/79 301/200/79 302/201/79 292/211/79
f 292/211/80 302/201/80 303/202/80 293/212/80
f 293/212/81 303/202/81 304/203/81 294/213/81
f 294/213/82 304/203/82 305/204/82 295/214/82
f 295/214/83 305/204/83 306/205/83 296/215/83
f 296/215/84 306/205/84 307/206/84 297/216/84
f 297/216/85 307/206/85 308/171/85 298/169/85
f 84/217/86 85/207/86 289/208/86 279/218/86
f 279/218/87 289/208/87 290/209/87 280/219/87
f 280/219/88 290/209/88 291/210/88 281/220/88
f 281/220/89 291/210/89 292/211/89 282/221/89
f 282/221/90 292/211/90 293/212/90 283/222/90
f 283/222/91 293/212/91 294/213/91 284/223/91
f 284/223/92 294/213/92 295/214/92 285/224/92
f 285/224/93 295/214/93 296/215/93 286/225/93
f 286/225/94 296/215/94 297/216/94 287/226/94
f 287/226/95 297/216/95 298/169/95 288/167/95
f 83/227/96 84/217/96 279/218/96 269/228/96
f 269/228/97 279/218/97 280/219/97 270/229/97
f 270/229/98 280/219/98 281/220/98 271/230/98
f 271/230/99 281/220/99 282/221/99 272/231/99
f 272/231/100 282/221/100 283/222/100 273/232/100
f 273/232/101 283/222/101 284/223/101 274/233/101
f 274/233/102 284/223/102 285/224/102 275/234/102
f 275/234/103 285/224/103 286/225/103 276/235/103
f 276/235/104 286/225/104 287/226/104 277/236/104
f 277/236/105 287/226/105 288/167/105 278/165/105
f 82/237/106 83/227/106 269/228/106 259/238/106
f 259/238/107 269/228/107 270/229/107 260/239/107
f 260/239/108 270/229/108 271/230/108 261/240/108
f 261/240/109 271/230/109 272/231/109 262/241/109
f 262/241/110 272/231/110 273/232/110 263/242/110
f 263/242/111 273/232/111 274/233/111 264/243/111
f 264/243/112 274/233/112 275/234/112 265/244/112
f 265/244/113 275/234/113 276/235/113 266/245/113
f 266/245/114 276/235/114 277/236/114 267/246/114
f 267/246/115 277/236/115 278/165/115 268/163/115
f 81/247/116 82/237/116 259/238/116 249/248/116
f 249/248/117 259/238/117 260/239/117 250/249/117
f 250/249/118 260/239/118 261/240/118 251/250/118
f 251/250/119 261/240/119 262/241/119 252/251/119
f 252/251/120 262/241/120 263/242/120 253/252/120
f 253/252/121 263/242/121 264/243/121 254/253/121
f 254/253/122 264/243/122 265/244/122 255/254/122
f 255/254/123 265/244/123 266/245/123 256/255/123
f 256/255/124 266/245/124 267/246/124 257/256/124
f 257/256/125 267/246/125 268/163/125 258/161/125
f 80/257/126 81/247/126 249/248/126 239/258/126
f 239/258/127 249/248/127 250/249/127 240/259/127
f 240/259/128 250/249/128 251/250/128 241/260/128
f 241/260/129 251/250/129 252/251/129 242/261/129
f 242/261/130 252/251/130 253/252/130 243/262/130
f 243/262/131 253/252/131 254/253/131 244/263/131
f 244/263/132 254/253/132 255/254/132 245/264/132
f 245/264/133 255/254/133 256/255/133 246/265/133
f 246/265/134 256/255/134 257/256/134 247/266/134
f 247/266/135 257/256/135 258/161/135 248/159/135
f 79/267/136 80/257/136 239/258/136 229/268/136
f 229/268/137 239/258/137 240/259/137 230/269/137
f 230/269/138 240/259/138 241/260/138 231/270/138
f 231/270/139 241/260/139 242/261/139 232/271/139
f 232/271/140 242/261/140 243/262/140 233/272/140
f 233/272/141 243/262/141 244/263/141 234/273/141
f 234/273/142 244/263/142 245/264/142 235/274/142
f 235/274/143 245/264/143 246/265/143 236/275/143
f 236/275/144 246/265/144 247/266/144 237/276/144
f 237/276/145 247/266/145 248/159/145 238/157/145
f 78/277/146 79/267/146 229/268/146 219/278/146
f 219/278/147 229/268/147 230/269/147 220/279/147
f 220/279/148 230/269/148 231/270/148 221/280/148
f 221/280/149 231/270/149 232/271/149 222/281/149
f 222/281/150 232/271/150 233/272/150 223/282/150
f 223/282/151 233/272/151 234/273/151 224/283/151
f 224/283/152 234/273/152 235/274/152 225/284/152
f 225/284/153 235/274/153 236/275/153 226/285/153
f 226/285/154 236/275/154 237/276/154 227/286/154
f 227/286/155 237/276/155 238/157/155 228/155/155
f 77/287/156 78/277/156 219/278/156 209/288/156
f 209/288/157 219/278/157 220/279/157 210/289/157
f 210/289/158 220/279/158 221/280/158 211/290/158
f 211/290/159 221/280/159 222/281/159 212/291/159
f 212/291/160 222/281/160 223/282/160 213/292/160
f 213/292/161 223/282/161 224/283/161 214/293/161
f 214/293/162 224/283/162 225/284/162 215/294/162
f 215/294/163 225/284/163 226/285/163 216/295/163
f 216/295/164 226/285/164 227/286/164 217/296/164
f 217/296/165 227/286/165 228/155/165 218/153/165
f 76/297/166 77/287/166 209/288/166 199/298/166
f 199/298/167 209/288/167 210/289/167 200/299/167
f 200/299/168 210/289/168 211/290/168 201/300/168
f 201/300/169 211/290/169 212/291/169 202/301/169
f 202/301/170 212/291/170 213/292/170 203/302/170
f 203/302/171 213/292/171 214/293/171 204/303/171
f 204/303/172 214/293/172 215/294/172 205/304/172
f 205/304/173 215/294/173 216/295/173 206/305/173
f 206/305/174 216/295/174 217/296/174 207/306/174
f 207/306/175 217/296/175 218/153/175 208/151/175
f 75/307/176 76/297/176 199/298/176 189/308/176
f 189/308/177 199/298/177 200/299/177 190/309/177
f 190/309/178 200/299/178 201/300/178 191/310/178
f 191/310/179 201/300/179 202/301/179 192/311/179
f 192/311/180 202/301/180 203/302/180 193/312/180
f 193/312/181 203/302/181 204/303/181 194/313/181
f 194/313/182 204/303/182 205/304/182 195/314/182
f 195/314/183 205/304/183 206/305/183 196/315/183
f 196/315/184 206/305/184 207/306/184 197/316/184
f 197/316/185 207/306/185 208/151/185 198/149/185
f 74/317/186 75/307/186 189/308/186 179/318/186
f 179/318/187 189/308/187 190/309/187 180/319/187
f 180/319/188 190/309/188 191/310/188 181/320/188
f 181/320/189 191/310/189 192/311/189 182/321/189
f 182/321/190 192/311/190 193/312/190 183/322/190
f 183/322/191 193/312/191 194/313/191 184/323/191
f 184/323/192 194/313/192 195/314/192 185/324/192
f 185/324/193 195/314/193 196/315/193 186/325/193
f 186/325/194 196/315/194 197/316/194 187/326/194
f 187/326/195 197/316/195 198/149/195 188/147/195
f 73/327/196 74/317/196 179/318/196 169/328/196
f 169/328/197 179/318/197 180/319/197 170/329/197
f 170/329/198 180/319/198 181/320/198 171/330/198
f 171/330/199 181/320/199 182/321/199 172/331/199
f 172/331/200 182/321/200 183/322/200 173/332/200
f 173/332/201 183/322/201 184/323/201 174/333/201
f 174/333/202 184/323/202 185/324/202 175/334/202
f 175/334/203 185/324/203 186/325/203 176/335/203
f 176/335/204 186/325/204 187/326/204 177/336/204
f 177/336/205 187/326/205 188/147/205 178/145/205
f 72/337/206 73/327/206 169/328/206 159/338/206
f 159/338/207 169/328/207 170/329/207 160/339/207
f 160/339/208 170/329/208 171/330/208 161/340/208
f 161/340/209 171/330/209 172/331/209 162/341/209
f 162/341/210 172/331/210 173/332/210 163/342/210
f 163/342/211 173/332/211 174/333/211 164/343/211
f 164/343/212 174/333/212 175/334/212 165/344/212
f 165/344/213 175/334/213 176/335/213 166/345/213
f 166/345/214 176/335/214 177/336/214 167/346/214
f 167/346/215 177/336/215 178/145/215 168/143/215
f 71/347/216 72/337/216 159/338/216 149/348/216
f 149/348/217 159/338/217 160/339/217 150/349/217
f 150/349/218 160/339/218 161/340/218 151/350/218
f 151/350/219 161/340/219 162/341/219 152/351/219
f 152/351/220 162/341/220 163/342/220 153/352/220
f 153/352/221 163/342/221 164/343/221 154/353/221
f 154/353/222 164/343/222 165/344/222 155/354/222
f 155/354/223 165/344/223 166/345/223 156/355/223
f 156/355/224 166/345/224 167/346/224 157/356/224
f 157/356/225 167/346/225 168/143/225 158/141/225
f 70/357/226 71/347/226 149/348/226 139/358/226
f 139/358/227 149/348/227 150/349/227 140/359/227
f 140/359/228 150/349/228 151/350/228 141/360/228
f 141/360/229 151/350/229 152/351/229 142/361/229
f 142/361/230 152/351/230 153/352/230 143/362/230
f 143/362/231 153/352/231 154/353/231 144/363/231
f 144/363/232 154/353/232 155/354/232 145/364/232
f 145/364/233 155/354/233 156/355/233 146/365/233
f 146/365/234 156/355/234 157/356/234 147/366/234
f 147/366/235 157/356/235 158/141/235 148/139/235
f 69/367/236 70/357/236 139/358/236 129/368/236
f 129/368/237 139/358/237 140/359/237 130/369/237
f 130/369/238 140/359/238 141/360/238 131/370/238
f 131/370/239 141/360/239 142/361/239 132/371/239
f 132/371/240 142/361/240 143/362/240 133/372/240
f 133/372/241 143/362/241 144/363/241 134/373/241
f 134/373/242 144/363/242 145/364/242 135/374/242
f 135/374/243 145/364/243 146/365/243 136/375/243
f 136/375/244 146/365/244 147/366/244 137/376/244
f 137/376/245 147/366/245 148/139/245 138/136/245
f 342/377/246 69/367/246 129/368/246 343/378/246
f 343/378/247 129/368/247 130/369/247 344/379/247
f 344/379/248 130/369/248 131/370/248 345/380/248
f 345/380/249 131/370/249 132/371/249 346/381/249
f 346/381/250 132/371/250 133/372/250 347/382/250
f 347/382/251 133/372/251 134/373/251 348/383/251
f 348/383/252 134/373/252 135/374/252 349/384/252
f 349/384/253 135/374/253 136/375/253 350/385/253
f 350/385/254 136/375/254 137/376/254 351/386/254
f 351/386/255 137/376/255 138/136/255 352/135/255
f 329/387/256 66/388/256 119/389/256 331/390/256
f 331/390/257 119/389/257 120/391/257 332/392/257
f 332/392/258 120/391/258 121/393/258 333/394/258
f 333/394/259 121/393/259 122/395/259 334/396/259
f 334/396/260 122/395/260 123/397/260 335/398/260
f 335/398/261 123/397/261 124/399/261 336/400/261
f 336/400/262 124/399/262 125/401/262 337/402/262
f 337/402/263 125/401/263 126/403/263 338/404/263
f 338/404/264 126/403/264 127/405/264 339/406/264
f 339/406/265 127/405/265 128/132/265 340/131/265
f 327/195/266 339/406/266 340/131/266 328/175/266
f 326/193/267 338/404/267 339/406/267 327/195/267
f 325/191/268 337/402/268 338/404/268 326/193/268
f 324/189/269 336/400/269 337/402/269 325/191/269
f 323/187/270 335/398/270 336/400/270 324/189/270
f 322/185/271 334/396/271 335/398/271 323/187/271
f 321/183/272 333/394/272 334/396/272 322/185/272
f 320/181/273 332/392/273 333/394/273 321/183/273
f 319/179/274 331/390/274 332/392/274 320/181/274
f 88/178/275 329/387/275 331/390/275 319/179/275
f 328/175/276 340/131/276 330/134/276 89/176/276
f 110/407/277 351/386/277 352/135/277 109/408/277
f 111/409/278 350/385/278 351/386/278 110/407/278
f 112/410/279 349/384/279 350/385/279 111/409/279
f 113/411/280 348/383/280 349/384/280 112/410/280
f 114/412/281 347/382/281 348/383/281 113/411/281
f 115/413/282 346/381/282 347/382/282 114/412/282
f 116/414/283 345/380/283 346/381/283 115/413/283
f 117/415/284 344/379/284 345/380/284 116/414/284
f 118/416/285 343/378/285 344/379/285 117/415/285
f 65/417/286 342/377/286 343/378/286 118/416/286
f 109/408/287 352/135/287 341/138/287 67/418/287
