# Blender 5.1.2
# www.blender.org
mtllib Cactus.mtl
o Plane
v 0.120461 0.110756 0.120461
v -0.120461 0.110756 0.120461
v -0.120461 0.110756 -0.120461
v 0.120461 0.110756 -0.120461
v 0.038478 2.841699 0.038478
v -0.038478 2.841699 0.038478
v -0.038478 2.841699 -0.038478
v 0.038478 2.841699 -0.038478
v -0.421233 1.883206 0.156665
v -0.453708 1.901163 0.025114
v -0.328805 1.939256 -0.003344
v -0.296329 1.921299 0.128207
v -0.355127 2.183421 0.175736
v -0.368081 2.198481 0.127851
v -0.319114 2.191391 0.112375
v -0.306160 2.176331 0.160259
v 0.411192 2.344626 -0.095621
v 0.418052 2.343846 0.053779
v 0.301490 2.436450 0.059491
v 0.294976 2.437230 -0.089081
v 0.508228 2.752022 -0.040405
v 0.509916 2.751531 -0.000921
v 0.472002 2.762553 0.000837
v 0.470314 2.763043 -0.038647
v 0.068334 1.689250 0.571315
v -0.066434 1.691010 0.572750
v -0.067134 1.758860 0.463269
v 0.067634 1.757099 0.461834
v 0.048003 2.308709 0.576096
v -0.010406 2.310511 0.577112
v -0.011406 2.311045 0.518678
v 0.047002 2.309243 0.517662
v 0.067704 1.758482 -0.434299
v 0.182084 1.765303 -0.406294
v 0.165736 1.845102 -0.334430
v 0.051768 1.837428 -0.362819
v -0.018219 2.521612 -0.458246
v 0.035021 2.530798 -0.450555
v 0.027309 2.530271 -0.396534
v -0.025931 2.521084 -0.404224
v 0.149188 0.426451 0.149188
v -0.149188 0.426451 0.149188
v -0.149188 0.426451 -0.149188
v 0.149188 0.426451 -0.149188
v 0.134629 0.781670 0.134629
v -0.134629 0.781670 0.134629
v -0.134629 0.781670 -0.134629
v 0.134629 0.781670 -0.134629
v 0.137202 1.142188 0.148627
v -0.129819 1.154413 0.165739
v -0.148590 1.153602 -0.129244
v 0.120524 1.121399 -0.120790
v 0.110948 2.337729 0.092881
v -0.073699 2.355860 0.070812
v -0.074447 2.355860 -0.071604
v 0.103839 2.353757 -0.096187
v 0.064038 2.557125 0.062434
v -0.061882 2.558321 0.062385
v -0.062055 2.558321 -0.062568
v 0.063520 2.557125 -0.063347
v 0.055546 2.724308 0.055546
v -0.055546 2.724308 0.055546
v -0.055546 2.724308 -0.055547
v 0.055546 2.724308 -0.055547
v -0.215990 1.510589 0.131054
v -0.252613 1.515774 -0.070277
v -0.081403 1.661168 -0.082257
v -0.090806 1.647507 0.159081
v -0.329850 1.717591 0.143342
v -0.363354 1.721102 -0.014166
v -0.236825 1.811992 -0.038545
v -0.208823 1.806878 0.120059
v -0.407817 2.026815 0.170659
v -0.434464 2.054287 0.071322
v -0.333725 2.048831 0.041565
v -0.307078 2.021360 0.140902
v -0.378824 2.123260 0.179893
v -0.399472 2.147265 0.103567
v -0.321420 2.135964 0.078898
v -0.300772 2.111959 0.155224
v 0.092892 1.879505 0.085103
v -0.089782 1.880658 0.089782
v -0.092662 1.883981 -0.119406
v 0.120242 1.878862 -0.160453
v 0.113370 2.054738 0.092156
v -0.074600 2.078849 0.093269
v -0.060821 2.074520 -0.102651
v 0.110296 2.021300 -0.090038
v 0.211180 2.168408 -0.101920
v 0.252045 2.190390 0.067578
v 0.479877 2.543264 -0.075263
v 0.484518 2.542131 0.031076
v 0.386728 2.580438 0.035695
v 0.382087 2.581572 -0.070644
v 0.501727 2.675499 -0.056931
v 0.504768 2.674615 0.014196
v 0.436467 2.694470 0.017363
v 0.433426 2.695354 -0.053764
v 0.081717 1.382515 0.276705
v -0.095935 1.426481 0.283191
v 0.112350 1.554615 0.138344
v 0.078936 1.554204 0.431788
v -0.077594 1.556763 0.431867
v -0.072834 1.685877 0.344722
v 0.081168 1.678778 0.344873
v 0.064592 1.871173 0.600003
v -0.052997 1.874404 0.601940
v -0.054724 1.886511 0.487347
v 0.062866 1.883280 0.485410
v 0.062484 2.010773 0.596434
v -0.042507 2.014013 0.598261
v -0.044305 2.014973 0.493224
v 0.060686 2.011734 0.491397
v 0.060558 2.125902 0.592119
v -0.033640 2.128809 0.593758
v -0.035253 2.129671 0.499519
v 0.058945 2.126764 0.497880
v 0.058779 2.232241 0.588133
v -0.025450 2.234840 0.589599
v -0.026892 2.235610 0.505333
v 0.057337 2.233012 0.503867
v -0.120525 1.486366 -0.147227
v 0.081027 1.486526 -0.109041
v 0.098460 1.679085 0.094517
v -0.103404 1.673786 0.099988
v -0.102686 1.667093 -0.127929
v 0.127311 1.669346 -0.174128
v -0.003668 1.700135 -0.274476
v -0.006662 1.841074 -0.258103
v 0.059165 1.933751 -0.476430
v 0.162509 1.949278 -0.460561
v 0.146990 1.961978 -0.361522
v 0.043646 1.946450 -0.377390
v 0.037923 2.083810 -0.476186
v 0.133029 2.100221 -0.462449
v 0.119252 2.099277 -0.365948
v 0.024146 2.082866 -0.379685
v 0.019570 2.209911 -0.473890
v 0.107561 2.225094 -0.461180
v 0.094815 2.224221 -0.371898
v 0.006824 2.209038 -0.384608
v 0.002466 2.327433 -0.471749
v 0.083826 2.341471 -0.459998
v 0.072040 2.340664 -0.377444
v -0.009320 2.326626 -0.389196
v -0.013790 2.439123 -0.469715
v 0.061268 2.452074 -0.458874
v 0.050396 2.451330 -0.382714
v -0.024662 2.438379 -0.393556
v 0.066632 1.581175 0.078123
v -0.094944 1.568077 0.082716
v -0.083871 1.562024 -0.075304
v 0.076146 1.570280 -0.080876
v 0.013684 1.095727 0.189762
v -0.184845 1.124916 0.008955
v -0.000000 2.850148 -0.046589
v -0.003016 1.123012 -0.168207
v 0.168214 1.125809 0.002941
v -0.129066 1.335871 -0.155129
v -0.011966 1.479806 -0.149811
v 0.046589 2.850148 -0.000000
v 0.109209 1.316040 -0.113343
v 0.000000 0.086485 -0.147789
v 0.121756 1.502787 -0.009508
v 0.155285 1.346586 0.130744
v 0.133531 1.470107 0.239260
v 0.116437 1.272354 0.219668
v -0.014084 1.256460 0.235253
v -0.147789 0.086485 -0.000000
v -0.217429 1.336424 -0.088223
v -0.199192 1.496102 -0.124961
v -0.105529 1.586482 -0.133032
v 0.022435 1.592108 -0.105917
v 0.030740 1.626737 0.013463
v -0.075766 1.689495 0.033793
v 0.013117 1.643161 0.150158
v -0.084700 2.220381 -0.078823
v -0.120244 1.322023 0.230351
v -0.018342 1.393302 0.299946
v -0.117678 1.518993 0.238958
v -0.000000 0.086485 0.147789
v -0.184684 1.346820 0.135868
v -0.253633 1.488570 0.038203
v -0.197102 1.617711 -0.100279
v -0.163652 1.570684 0.168542
v -0.098071 2.351877 -0.000099
v -0.112441 2.064662 -0.000918
v -0.084991 2.220743 0.077259
v 0.029608 2.022958 -0.122789
v 0.141210 2.026865 -0.003768
v -0.094648 1.776846 0.094221
v 0.014919 2.047941 0.118406
v 0.109935 2.175503 0.112618
v 0.002792 2.199367 0.112539
v -0.004836 2.360620 0.100578
v 0.147789 0.086485 0.000000
v -0.007089 2.361921 -0.102864
v 0.013348 2.213669 -0.116386
v 0.172298 2.254400 -0.120885
v 0.074206 2.115622 -0.122843
v 0.152764 2.083866 -0.089752
v -0.003376 1.558783 -0.095003
v 0.183440 2.122788 0.075404
v 0.207665 2.254604 0.101439
v 0.000389 1.880514 0.122865
v 0.096940 1.776903 0.089001
v 0.260262 2.163513 -0.013797
v -0.003964 1.676939 0.135786
v -0.124501 1.881037 -0.003169
v -0.117732 1.775503 -0.117325
v -0.108396 1.557429 0.004762
v -0.139789 1.671924 -0.001973
v -0.328431 2.182452 0.173817
v 0.004462 1.639735 -0.169728
v 0.144704 1.677023 -0.017743
v 0.159738 1.774021 -0.160264
v -0.016559 1.570085 0.098531
v 0.135630 1.877710 -0.018827
v -0.000000 2.850148 0.046589
v -0.027450 1.770192 -0.274099
v -0.056236 1.692144 -0.205042
v 0.088461 1.571439 -0.001233
v 0.057051 1.669710 -0.251550
v -0.053146 1.853926 -0.197630
v 0.006799 1.909410 -0.156482
v 0.051244 1.873967 -0.228518
v -0.046589 2.850148 -0.000000
v -0.306827 2.187233 0.135806
v -0.343974 2.200521 0.116364
v -0.365578 2.195740 0.154375
v 0.490582 2.762623 -0.043176
v 0.469119 2.768862 -0.018743
v 0.492582 2.762041 0.003608
v 0.514044 2.755803 -0.020826
v 0.053831 2.314264 0.546819
v 0.017862 2.315679 0.512055
v -0.016895 2.316446 0.548049
v 0.019074 2.315032 0.582813
v -0.028749 2.526212 -0.432140
v -0.001129 2.531465 -0.394703
v 0.035848 2.537358 -0.422810
v 0.008228 2.532105 -0.460247
v 0.149936 0.233456 0.149936
v -0.000000 0.426451 0.205134
v -0.149936 0.233456 0.149936
v -0.205134 0.426451 -0.000000
v -0.149936 0.233456 -0.149936
v 0.000000 0.426451 -0.205134
v 0.149936 0.233456 -0.149936
v 0.205134 0.426451 0.000000
v 0.141578 0.612128 0.141578
v -0.000000 0.781670 0.185115
v -0.141578 0.612128 0.141578
v -0.185115 0.781670 0.000000
v -0.141578 0.612128 -0.141578
v 0.000000 0.781670 -0.185115
v 0.141578 0.612128 -0.141578
v 0.185115 0.781670 0.000000
v 0.129908 0.946458 0.130950
v -0.129318 0.946815 0.132499
v -0.130931 0.947879 -0.128923
v 0.127889 0.945570 -0.127922
v 0.074184 2.464009 0.068517
v 0.001143 2.557722 0.085916
v -0.065456 2.466552 0.066291
v -0.085546 2.558545 -0.000023
v -0.065959 2.466552 -0.066824
v 0.000668 2.557722 -0.086464
v 0.072200 2.465003 -0.071205
v 0.087356 2.556900 -0.000525
v 0.134051 2.402104 -0.004214
v 0.059059 2.642998 0.058859
v 0.000000 2.724307 0.076376
v -0.058790 2.643148 0.058853
v -0.076376 2.724307 -0.000000
v -0.058811 2.643148 -0.058876
v -0.000000 2.724307 -0.076376
v 0.058994 2.642998 -0.058973
v 0.076376 2.724307 -0.000000
v 0.050455 2.798046 0.050455
v -0.050455 2.798046 0.050455
v -0.050455 2.798046 -0.050455
v 0.050455 2.798046 -0.050455
v -0.267209 1.628391 0.135597
v -0.369810 1.702455 0.069057
v -0.305287 1.631069 -0.034257
v -0.305856 1.767356 -0.055991
v -0.174468 1.739454 -0.056774
v -0.199615 1.826327 0.036289
v -0.154716 1.731997 0.119467
v -0.263570 1.761426 0.161336
v -0.386707 1.801510 0.150196
v -0.460890 1.885042 0.096225
v -0.419133 1.811443 0.004429
v -0.397346 1.923576 -0.013781
v -0.291548 1.878411 -0.021833
v -0.289148 1.937420 0.057095
v -0.259810 1.868277 0.124071
v -0.352692 1.898885 0.167102
v -0.423302 1.960039 0.163853
v -0.440029 2.041574 0.126570
v -0.453528 1.984371 0.048702
v -0.389091 2.056710 0.037818
v -0.338979 1.996493 0.018822
v -0.301513 2.034073 0.085654
v -0.308753 1.972162 0.133973
v -0.352451 2.018937 0.174406
v -0.392189 2.079751 0.175853
v -0.403782 2.137382 0.146355
v -0.415605 2.106536 0.089191
v -0.364317 2.146116 0.076921
v -0.327090 2.094861 0.061475
v -0.296462 2.121843 0.112435
v -0.303674 2.068076 0.148137
v -0.335927 2.113108 0.181869
v -0.366345 2.160777 0.181694
v -0.383936 2.181228 0.116669
v -0.317442 2.171600 0.095653
v -0.299851 2.151149 0.160677
v 0.091754 1.962117 0.084656
v -0.085748 1.965606 0.087597
v -0.083709 1.964912 -0.093810
v 0.099279 1.957557 -0.103136
v 0.328238 2.259715 -0.096687
v 0.436445 2.326873 -0.022069
v 0.338673 2.261332 0.061462
v 0.361025 2.390002 0.084570
v 0.226401 2.381718 0.068662
v 0.276410 2.454203 -0.013647
v 0.219449 2.383133 -0.089260
v 0.351830 2.391075 -0.120286
v 0.457752 2.445273 -0.087294
v 0.500533 2.535515 -0.022960
v 0.463595 2.444239 0.042758
v 0.436493 2.561072 0.053324
v 0.352341 2.507385 0.048156
v 0.366072 2.588188 -0.016609
v 0.346541 2.508420 -0.081793
v 0.430112 2.562631 -0.092892
v 0.492713 2.618079 -0.065106
v 0.516053 2.671334 -0.021961
v 0.496435 2.617024 0.021688
v 0.471188 2.684377 0.029116
v 0.413632 2.642330 0.025537
v 0.422141 2.698634 -0.017607
v 0.409910 2.643385 -0.061256
v 0.467006 2.685592 -0.068684
v 0.508212 2.723461 -0.049104
v 0.510613 2.722763 0.007036
v 0.456704 2.738434 0.009536
v 0.454304 2.739132 -0.046604
v 0.084805 1.489748 0.351640
v 0.000015 1.531700 0.448146
v -0.082381 1.499269 0.351638
v -0.104326 1.622225 0.388288
v -0.069266 1.653670 0.261702
v 0.004823 1.706111 0.328480
v 0.093560 1.628133 0.261291
v 0.109164 1.615585 0.388338
v 0.072846 1.615889 0.511465
v 0.001082 1.677408 0.592560
v -0.072684 1.617082 0.512243
v -0.092053 1.725265 0.518279
v -0.072369 1.718126 0.414953
v 0.000119 1.770701 0.442024
v 0.072845 1.716366 0.414204
v 0.093253 1.722844 0.516306
v 0.065868 1.779735 0.596497
v 0.006121 1.870519 0.622458
v -0.059577 1.782363 0.598306
v -0.075909 1.881064 0.545006
v -0.060841 1.818038 0.483213
v 0.003747 1.887166 0.464892
v 0.064603 1.815410 0.481404
v 0.085777 1.876621 0.542343
v 0.063522 1.947006 0.598616
v 0.010326 2.012213 0.617042
v -0.047385 1.950379 0.600532
v -0.063091 2.015101 0.546085
v -0.049249 1.952772 0.489957
v 0.007854 2.013534 0.472616
v 0.061659 1.949400 0.488041
v 0.081271 2.010647 0.543573
v 0.061498 2.069730 0.594224
v 0.013762 2.127194 0.610608
v -0.037966 2.072798 0.595955
v -0.052108 2.129785 0.546946
v -0.039669 2.073708 0.496448
v 0.011543 2.128379 0.481029
v 0.059794 2.070639 0.494717
v 0.077414 2.125788 0.544692
v 0.059654 2.179946 0.590093
v 0.016935 2.233397 0.604666
v -0.029478 2.182696 0.591644
v -0.041964 2.235713 0.547740
v -0.031004 2.183511 0.502473
v 0.014952 2.234456 0.488800
v 0.058128 2.180761 0.500923
v 0.073851 2.232139 0.545725
v 0.056359 2.280064 0.584776
v -0.020205 2.282426 0.586108
v -0.021516 2.283127 0.509511
v 0.055047 2.280764 0.508179
v 0.091488 1.614303 0.095735
v -0.111104 1.600765 0.101649
v -0.100362 1.595812 -0.100495
v 0.103465 1.601838 -0.111840
v 0.041637 1.715641 -0.360055
v 0.127920 1.747010 -0.433735
v 0.163594 1.715837 -0.312619
v 0.195318 1.806561 -0.365074
v 0.151784 1.838347 -0.270016
v 0.105726 1.856147 -0.335186
v 0.031267 1.829765 -0.318043
v 0.038328 1.796596 -0.403846
v 0.069872 1.839451 -0.468748
v 0.113747 1.939133 -0.487065
v 0.178337 1.851079 -0.449410
v 0.174126 1.958539 -0.408066
v 0.161347 1.892716 -0.358702
v 0.092408 1.956595 -0.350886
v 0.052934 1.880982 -0.378088
v 0.032028 1.937189 -0.429885
v 0.047904 2.014718 -0.477134
v 0.088059 2.092192 -0.487412
v 0.146879 2.031508 -0.462719
v 0.143973 2.102826 -0.411622
v 0.132474 2.032242 -0.363019
v 0.069116 2.090895 -0.354722
v 0.033498 2.015452 -0.377433
v 0.013202 2.080261 -0.430512
v 0.028550 2.148212 -0.475014
v 0.065955 2.217667 -0.484275
v 0.120022 2.163996 -0.461801
v 0.117686 2.227504 -0.414156
v 0.106772 2.163088 -0.368987
v 0.048430 2.216466 -0.361513
v 0.015300 2.147305 -0.382199
v -0.003301 2.206628 -0.431632
v 0.010893 2.269530 -0.472804
v 0.045355 2.334604 -0.481352
v 0.095520 2.284132 -0.460580
v 0.093188 2.343700 -0.416517
v 0.083261 2.283292 -0.374712
v 0.029151 2.333494 -0.367841
v -0.001366 2.268690 -0.386936
v -0.018682 2.324397 -0.432676
v -0.005753 2.383901 -0.470721
v 0.025778 2.445738 -0.478574
v 0.072421 2.397390 -0.459429
v 0.069905 2.454130 -0.418761
v 0.061097 2.396614 -0.380109
v 0.010828 2.444715 -0.373856
v -0.017076 2.383126 -0.391400
v -0.033299 2.436323 -0.433669
v -0.019926 2.490180 -0.467083
v 0.049319 2.502128 -0.457081
v 0.039288 2.501441 -0.386820
v -0.029957 2.489493 -0.396822
v -0.033405 2.258727 0.105646
v 0.040850 2.139559 0.117749
v 0.002788 2.465704 0.092036
v 0.176244 0.946237 0.000668
v -0.000677 0.946028 -0.176178
v -0.178193 0.946470 0.001325
v 0.146568 1.364252 0.203971
v 0.042546 1.204594 0.217322
v 0.001346 0.943241 0.178970
v -0.198095 1.386171 -0.133103
v -0.028937 1.570359 -0.139093
v 0.067267 1.590297 -0.038629
v -0.007795 1.651525 0.062644
v 0.144424 1.775502 -0.020496
v -0.056523 1.312945 0.255525
v -0.107363 2.206254 -0.000290
v 0.194669 0.612128 0.000000
v 0.000000 0.612128 -0.194669
v -0.173051 1.575272 -0.121648
v -0.194669 0.612128 -0.000000
v -0.000000 0.612128 0.194669
v 0.206524 0.231063 -0.000000
v -0.000000 0.231063 -0.206524
v -0.033517 2.260694 -0.108043
v 0.081481 2.187869 -0.122593
v 0.083370 2.070196 -0.120782
v -0.206524 0.231063 0.000000
v 0.167351 2.183765 0.105850
v 0.000000 0.231063 0.206524
v 0.001459 2.544048 -0.427653
v 0.018824 2.326851 0.547533
v 0.494660 2.772919 -0.019784
v -0.334276 2.200049 0.147262
v -0.000000 2.867880 -0.000000
v -0.213441 1.316524 0.022270
v 0.000000 0.035551 0.000000
v -0.001331 1.660496 -0.203638
v -0.011979 1.551935 0.003022
v 0.155662 1.326940 0.001224
v -0.000132 1.777165 0.128775
v -0.003541 1.314411 -0.160234
v -0.000162 1.885664 -0.192309
v -0.132334 1.776546 -0.003004
v 0.187566 2.093239 -0.007148
v -0.076713 1.772991 -0.203085
v -0.149273 1.430871 0.197000
v -0.090682 2.466587 -0.000067
v 0.001285 2.465953 -0.093616
v 0.099231 2.467723 -0.001706
v 0.000143 2.643073 0.080939
v -0.080893 2.643176 -0.000003
v 0.000083 2.643073 -0.081008
v 0.081120 2.642970 -0.000066
v 0.000000 2.798879 0.069358
v -0.069359 2.798879 -0.000000
v 0.000000 2.798879 -0.069359
v 0.069359 2.798879 -0.000000
v -0.307986 1.609726 0.054837
v -0.247102 1.688012 -0.076499
v -0.142663 1.755747 0.027597
v -0.206535 1.678708 0.158794
v -0.426777 1.793938 0.082224
v -0.361356 1.846808 -0.036047
v -0.251822 1.885881 0.046208
v -0.317243 1.833012 0.164478
v -0.459893 1.969932 0.111880
v -0.401921 1.994994 0.012171
v -0.302388 1.986600 0.070795
v -0.360360 1.961538 0.170504
v -0.420493 2.095332 0.137719
v -0.375738 2.105721 0.059084
v -0.298785 2.079279 0.099609
v -0.343541 2.068891 0.178244
v -0.387450 2.173200 0.153203
v -0.353879 2.180630 0.094137
v -0.296156 2.159982 0.124348
v -0.329727 2.152552 0.183413
v 0.002086 1.963168 0.119125
v -0.118367 1.965346 -0.001118
v 0.008662 1.961388 -0.130645
v 0.128127 1.958348 -0.009417
v 0.354361 2.239095 -0.018484
v 0.285218 2.320273 0.093705
v 0.205209 2.407044 -0.009297
v 0.273009 2.320604 -0.121561
v 0.481530 2.432916 -0.023290
v 0.409060 2.475618 0.069832
v 0.328585 2.519743 -0.015797
v 0.401054 2.477041 -0.108918
v 0.510100 2.612807 -0.022431
v 0.455732 2.629479 0.039886
v 0.396246 2.647602 -0.017137
v 0.450613 2.630930 -0.079455
v 0.519552 2.720704 -0.021497
v 0.484248 2.730966 0.018694
v 0.445654 2.742186 -0.018071
v 0.480958 2.731923 -0.058262
v -0.001603 1.469273 0.367904
v -0.105897 1.577291 0.307803
v 0.013784 1.668682 0.245856
v 0.120049 1.556100 0.308569
v 0.000051 1.597593 0.530093
v -0.099784 1.667881 0.463741
v 0.000267 1.736138 0.396339
v 0.100103 1.665851 0.462691
v 0.003383 1.774360 0.618981
v -0.083730 1.800693 0.541099
v 0.001644 1.823412 0.460729
v 0.088756 1.797080 0.538611
v 0.008418 1.948244 0.620307
v -0.069112 1.952208 0.545604
v 0.005856 1.951535 0.468266
v 0.083386 1.947571 0.542969
v 0.012085 2.071093 0.613747
v -0.057467 2.073829 0.546526
v 0.009743 2.072344 0.476925
v 0.079296 2.069609 0.544146
v 0.015374 2.181167 0.607588
v -0.046953 2.183619 0.547350
v 0.013276 2.182289 0.484979
v 0.075603 2.179838 0.545217
v 0.018339 2.281654 0.599796
v -0.035187 2.283759 0.548064
v 0.016537 2.282617 0.494500
v 0.070063 2.280511 0.546232
v -0.012003 1.608419 0.136545
v -0.143598 1.596324 0.002731
v 0.002933 1.594573 -0.142920
v 0.134923 1.610000 -0.007927
v 0.104069 1.694848 -0.346157
v 0.180891 1.777890 -0.282393
v 0.088892 1.854890 -0.287781
v 0.014069 1.771899 -0.346877
v 0.127285 1.837468 -0.476082
v 0.190175 1.874088 -0.400426
v 0.103960 1.894646 -0.351391
v 0.041071 1.858026 -0.427048
v 0.100093 2.022976 -0.488620
v 0.158234 2.035023 -0.410167
v 0.080285 2.023984 -0.351532
v 0.022143 2.011937 -0.429986
v 0.076770 2.156274 -0.485810
v 0.130548 2.166502 -0.412916
v 0.058551 2.155026 -0.358190
v 0.004774 2.144799 -0.431084
v 0.055505 2.276988 -0.482792
v 0.105258 2.286450 -0.415354
v 0.038650 2.275834 -0.364723
v -0.011104 2.266372 -0.432162
v 0.035457 2.390791 -0.479948
v 0.081417 2.399531 -0.417652
v 0.019887 2.389724 -0.370882
v -0.026072 2.380984 -0.433178
v 0.016479 2.496859 -0.475267
v 0.057192 2.504602 -0.420083
v 0.002686 2.495915 -0.378652
v -0.038026 2.488172 -0.433837
vn 0.0464 0.0761 0.9960
vn -0.4661 0.1210 0.8764
vn -0.3686 0.0205 0.9294
vn 0.2107 -0.1129 0.9710
vn 0.0251 0.1157 0.9930
vn -0.2176 0.0204 0.9758
vn 0.3305 0.0830 0.9402
vn -0.3504 0.0547 0.9350
vn -0.3760 0.0835 0.9228
vn 0.1829 0.1610 0.9699
vn 0.9331 0.0498 -0.3562
vn 0.9626 -0.0125 0.2706
vn 0.9384 0.0419 0.3429
vn 0.9348 0.0523 -0.3512
vn -0.2980 0.0035 -0.9546
vn 0.3547 0.0497 -0.9336
vn 0.3509 0.0525 -0.9350
vn -0.3456 0.0447 -0.9373
vn -0.9375 -0.0538 0.3438
vn -0.9517 -0.0545 -0.3022
vn -0.9376 0.0374 -0.3458
vn -0.9361 0.0356 0.3499
vn 0.9844 0.1759 -0.0029
vn 0.7237 -0.1297 0.6778
vn 0.9423 -0.1178 0.3133
vn 0.1524 -0.3429 0.9269
vn -0.1930 -0.2979 0.9349
vn 0.3779 -0.3640 0.8513
vn 0.3486 -0.0959 0.9323
vn -0.2705 -0.1081 0.9566
vn -0.3427 0.0308 0.9389
vn 0.3500 0.0318 0.9362
vn -0.7998 -0.0463 -0.5985
vn -0.2616 0.0668 -0.9629
vn -0.5982 -0.1404 -0.7889
vn -0.0304 0.1292 -0.9912
vn 0.1437 0.5834 -0.7994
vn 0.4099 0.2204 -0.8851
vn 0.4783 0.8340 -0.2752
vn 0.7960 0.5997 -0.0819
vn 0.7978 0.4074 -0.4445
vn 0.4730 0.8619 -0.1829
vn 0.2091 0.9529 0.2197
vn 0.6322 0.7747 -0.0116
vn 0.9739 0.2271 -0.0005
vn 0.9196 0.0619 0.3878
vn 0.9210 0.0248 0.3889
vn 0.9877 -0.1562 -0.0021
vn -0.3590 -0.3367 0.8705
vn -0.2728 -0.3755 0.8858
vn 0.0753 -0.4243 0.9024
vn -0.9537 0.0764 0.2908
vn -0.9554 0.0740 -0.2858
vn -0.9229 -0.0277 -0.3840
vn -0.9437 0.0003 0.3308
vn 0.9350 0.0527 -0.3506
vn 0.9350 0.0527 0.3506
vn -0.3506 0.0527 -0.9350
vn 0.3506 0.0527 -0.9350
vn -0.1247 0.5204 -0.8448
vn -0.2233 0.1454 -0.9638
vn -0.6197 0.1663 -0.7671
vn -0.9350 0.0527 0.3506
vn -0.9350 0.0527 -0.3506
vn 0.3506 0.0527 0.9350
vn -0.3506 0.0527 0.9350
vn 0.9360 0.0058 -0.3521
vn 0.9360 0.0058 0.3521
vn 0.8924 -0.3286 0.3093
vn 0.8924 -0.3286 -0.3093
vn -0.3521 0.0058 -0.9360
vn 0.3521 0.0058 -0.9360
vn 0.3093 -0.3286 -0.8924
vn -0.3093 -0.3286 -0.8924
vn -0.4883 0.1209 -0.8643
vn 0.0223 0.0939 -0.9953
vn -0.3561 0.0252 -0.9341
vn -0.0704 0.1661 -0.9836
vn 0.1439 -0.0878 -0.9857
vn -0.1278 -0.0140 -0.9917
vn 0.3033 -0.2165 -0.9279
vn 0.3918 -0.3254 -0.8606
vn -0.1228 0.0585 -0.9907
vn -0.9360 0.0058 0.3521
vn -0.9360 0.0058 -0.3521
vn -0.8924 -0.3286 -0.3093
vn -0.8924 -0.3286 0.3093
vn 0.4149 -0.2491 0.8751
vn 0.0355 0.0968 0.9947
vn 0.3060 -0.2262 0.9248
vn 0.3521 0.0058 0.9360
vn -0.3521 0.0058 0.9360
vn -0.3093 -0.3286 0.8924
vn 0.3093 -0.3286 0.8924
vn -0.4912 0.8359 0.2451
vn 0.1019 0.9382 0.3307
vn 0.1878 0.9441 -0.2710
vn -0.4053 0.8418 -0.3567
vn 0.2927 0.9186 -0.2654
vn -0.2445 0.9352 -0.2561
vn -0.2353 0.9303 0.2814
vn 0.3019 0.9137 0.2720
vn -0.1154 0.9334 -0.3397
vn -0.0850 0.9246 0.3714
vn 0.5978 0.7261 0.3397
vn 0.5674 0.7349 -0.3714
vn 0.4892 0.7865 0.3770
vn 0.3683 0.9271 -0.0700
vn -0.0888 0.9933 0.0745
vn 0.0321 0.8527 0.5215
vn 0.3066 0.9011 -0.3066
vn -0.3066 0.9011 -0.3066
vn -0.3066 0.9011 0.3066
vn 0.3066 0.9011 0.3066
vn -0.9151 -0.2063 0.3466
vn -0.9779 -0.2068 -0.0312
vn -0.9596 -0.2253 -0.1685
vn -0.9259 -0.1871 0.3283
vn 0.2856 -0.9148 0.2856
vn -0.2856 -0.9148 0.2856
vn -0.2856 -0.9148 -0.2856
vn 0.2856 -0.9148 -0.2856
vn -0.3474 -0.8232 -0.4492
vn 0.1272 -0.9550 -0.2681
vn -0.4031 -0.7845 -0.4713
vn 0.1853 -0.9657 0.1820
vn -0.0330 -0.9857 0.1653
vn -0.0582 -0.9955 -0.0748
vn 0.1715 -0.9846 -0.0351
vn 0.9078 0.1555 -0.3894
vn 0.9804 0.1961 -0.0160
vn 0.9934 -0.0080 0.1144
vn 0.9270 0.0613 -0.3701
vn 0.3754 0.0542 0.9253
vn 0.3784 0.0505 0.9243
vn -0.3434 0.0558 0.9375
vn -0.3412 0.0800 0.9366
vn -0.1676 -0.0387 -0.9851
vn -0.0258 0.0579 -0.9980
vn 0.3878 0.0825 -0.9180
vn 0.3702 0.0484 -0.9277
vn -0.3058 0.8019 -0.5132
vn -0.3939 0.7828 -0.4817
vn 0.1477 0.9205 -0.3618
vn -0.9326 0.0647 0.3551
vn -0.9698 0.1478 -0.1941
vn -0.9774 -0.0254 -0.2097
vn -0.9343 0.0843 0.3465
vn 0.6846 -0.6719 0.2828
vn 0.7388 -0.5916 0.3227
vn 0.7924 -0.5521 -0.2595
vn 0.7009 -0.6335 -0.3278
vn -0.8553 0.2279 -0.4653
vn -0.7530 0.3026 -0.5843
vn -0.7856 -0.2215 -0.5778
vn -0.8658 -0.1305 -0.4830
vn -0.7223 -0.0330 0.6908
vn -0.8345 -0.1195 0.5378
vn -0.8506 -0.0119 0.5257
vn -0.6823 0.3008 0.6663
vn -0.9336 0.0517 0.3546
vn -0.9356 0.0542 -0.3490
vn -0.9421 0.0733 -0.3273
vn -0.9387 0.0718 0.3371
vn -0.3621 0.0643 -0.9299
vn 0.3218 0.0932 -0.9422
vn 0.1640 0.1722 -0.9713
vn -0.3975 0.0909 -0.9131
vn 0.9256 0.1228 -0.3581
vn 0.9319 0.1218 0.3416
vn 0.8471 0.3605 0.3905
vn 0.8296 0.3759 -0.4130
vn 0.3506 0.0532 0.9350
vn -0.3505 0.0520 0.9351
vn -0.3496 0.0511 0.9355
vn 0.3500 0.0589 0.9349
vn -0.9350 0.0519 0.3509
vn -0.9350 0.0520 -0.3507
vn -0.9350 0.0513 -0.3510
vn -0.9344 0.0500 0.3528
vn -0.3509 0.0527 -0.9349
vn 0.3502 0.0540 -0.9351
vn 0.3473 0.0641 -0.9356
vn -0.3531 0.0557 -0.9339
vn 0.9348 0.0546 -0.3508
vn 0.9350 0.0545 0.3503
vn 0.9351 0.0673 0.3480
vn 0.9334 0.0683 -0.3523
vn 0.3053 0.3611 0.8811
vn -0.3053 0.3611 0.8811
vn -0.3502 0.0882 0.9325
vn 0.3502 0.0882 0.9325
vn -0.8811 0.3611 0.3053
vn -0.8811 0.3611 -0.3053
vn -0.9325 0.0882 -0.3502
vn -0.9325 0.0882 0.3502
vn -0.3053 0.3611 -0.8811
vn 0.3053 0.3611 -0.8811
vn 0.3502 0.0882 -0.9325
vn -0.3502 0.0882 -0.9325
vn 0.8811 0.3611 -0.3053
vn 0.8811 0.3611 0.3053
vn 0.9325 0.0882 0.3502
vn 0.9325 0.0882 -0.3502
vn -0.6964 -0.5343 0.4791
vn -0.8386 -0.5191 -0.1650
vn -0.9144 -0.3888 -0.1127
vn -0.7997 -0.3935 0.4534
vn -0.4983 -0.1386 -0.8558
vn 0.0555 0.2881 -0.9560
vn 0.0212 0.3329 -0.9427
vn -0.5221 -0.0141 -0.8527
vn 0.6621 0.6287 -0.4080
vn 0.7794 0.5800 0.2370
vn 0.6778 0.6760 0.2892
vn 0.6251 0.7290 -0.2791
vn 0.4085 0.2707 0.8717
vn -0.1786 -0.1822 0.9669
vn -0.3663 -0.1314 0.9212
vn 0.0749 0.2864 0.9552
vn -0.7818 -0.3700 0.5019
vn -0.9320 -0.3223 -0.1656
vn -0.8493 -0.4943 -0.1854
vn -0.7092 -0.5152 0.4812
vn -0.5622 -0.0250 -0.8266
vn 0.0617 0.3135 -0.9476
vn 0.0608 0.2863 -0.9562
vn -0.5078 -0.1399 -0.8500
vn 0.6860 0.5726 -0.4490
vn 0.8130 0.5446 0.2061
vn 0.7543 0.6179 0.2219
vn 0.6368 0.6335 -0.4396
vn 0.4716 0.2372 0.8493
vn -0.1337 -0.1240 0.9832
vn -0.1415 -0.1633 0.9764
vn 0.4214 0.2854 0.8608
vn -0.7944 0.1101 0.5973
vn -0.9613 0.2734 -0.0342
vn -0.9952 0.0289 -0.0938
vn -0.8287 -0.0837 0.5534
vn -0.5712 0.4010 -0.7162
vn 0.1012 0.3749 -0.9215
vn 0.0744 0.3568 -0.9312
vn -0.6035 0.2277 -0.7642
vn 0.8215 0.1561 -0.5484
vn 0.9949 -0.0464 0.0896
vn 0.9646 0.2188 0.1471
vn 0.7934 0.3438 -0.5023
vn 0.5920 -0.1340 0.7948
vn -0.0910 -0.0685 0.9935
vn -0.1177 -0.0833 0.9895
vn 0.5654 0.0335 0.8241
vn -0.7553 0.1718 0.6325
vn -0.9287 0.3707 -0.0080
vn -0.9388 0.3442 -0.0152
vn -0.7667 0.1574 0.6224
vn -0.5273 0.4622 -0.7130
vn 0.1290 0.3708 -0.9197
vn 0.1215 0.3730 -0.9199
vn -0.5403 0.4473 -0.7127
vn 0.8203 0.1235 -0.5584
vn 0.9935 -0.0789 0.0819
vn 0.9931 -0.0848 0.0805
vn 0.8204 0.1231 -0.5584
vn 0.5921 -0.1666 0.7885
vn -0.0639 -0.0717 0.9954
vn -0.0714 -0.0703 0.9950
vn 0.5918 -0.1657 0.7889
vn -0.5957 0.5026 0.6265
vn -0.7375 0.6675 0.1022
vn -0.9100 0.4145 0.0038
vn -0.7380 0.2145 0.6398
vn -0.3662 0.7497 -0.5512
vn 0.1700 0.6721 -0.7207
vn 0.1385 0.4085 -0.9022
vn -0.5119 0.5026 -0.6967
vn 0.8086 0.4437 -0.3865
vn 0.9504 0.2788 0.1379
vn 0.9951 -0.0365 0.0921
vn 0.8230 0.1636 -0.5439
vn 0.5790 0.1966 0.7912
vn 0.0428 0.2742 0.9607
vn -0.0534 -0.0304 0.9981
vn 0.5969 -0.1246 0.7926
vn 0.3084 -0.0961 0.9464
vn -0.3022 0.0128 0.9532
vn -0.3403 0.0448 0.9393
vn 0.3687 0.0223 0.9293
vn -0.9329 0.0651 0.3542
vn -0.9105 0.1091 -0.3988
vn -0.9445 0.1363 -0.2990
vn -0.9361 0.0565 0.3470
vn -0.2788 0.0659 -0.9581
vn 0.3330 0.0723 -0.9401
vn 0.1863 0.5467 -0.8163
vn -0.3709 0.3613 -0.8555
vn 0.9426 -0.1280 -0.3084
vn 0.9112 -0.2244 0.3453
vn 0.9285 0.0288 0.3702
vn 0.9529 0.2451 -0.1787
vn 0.6639 -0.6401 -0.3866
vn 0.6991 -0.6421 0.3145
vn 0.6095 -0.7287 0.3122
vn 0.5761 -0.7277 -0.3721
vn 0.3165 -0.2207 0.9226
vn -0.1301 0.2968 0.9460
vn 0.0201 0.2469 0.9688
vn 0.2940 -0.2601 0.9197
vn -0.5059 0.7762 0.3762
vn -0.5444 0.7758 -0.3190
vn -0.1644 0.9147 -0.3691
vn -0.1601 0.8792 0.4488
vn -0.2347 0.3016 -0.9241
vn 0.2155 -0.2100 -0.9536
vn 0.1569 -0.1888 -0.9694
vn -0.0911 0.2689 -0.9588
vn 0.9118 -0.1637 -0.3766
vn 0.9411 -0.1709 0.2916
vn 0.8802 -0.3687 0.2989
vn 0.8495 -0.3635 -0.3824
vn 0.4418 0.0214 0.8969
vn -0.2227 0.2587 0.9399
vn -0.1917 0.2778 0.9413
vn 0.4132 -0.0823 0.9069
vn -0.8075 0.4463 0.3857
vn -0.8372 0.4541 -0.3048
vn -0.7516 0.5819 -0.3105
vn -0.7185 0.5803 0.3834
vn -0.3020 0.2790 -0.9116
vn 0.3630 0.0411 -0.9309
vn 0.3289 -0.0694 -0.9418
vn -0.2793 0.2879 -0.9160
vn 0.9182 -0.0898 -0.3859
vn 0.9477 -0.0982 0.3037
vn 0.9471 -0.1163 0.2992
vn 0.9176 -0.1083 -0.3824
vn 0.4209 0.0579 0.9052
vn -0.2428 0.2526 0.9366
vn -0.2374 0.2539 0.9377
vn 0.4290 0.0504 0.9019
vn -0.8211 0.4202 0.3864
vn -0.8506 0.4288 -0.3044
vn -0.8504 0.4291 -0.3045
vn -0.8210 0.4203 0.3865
vn -0.3215 0.2755 -0.9059
vn 0.3422 0.0807 -0.9362
vn 0.3504 0.0723 -0.9338
vn -0.3159 0.2765 -0.9076
vn 0.9309 0.1305 -0.3413
vn 0.9567 0.1230 0.2637
vn 0.9504 -0.0703 0.3029
vn 0.9210 -0.0617 -0.3846
vn 0.4352 0.2746 0.8574
vn -0.1457 0.4435 0.8844
vn -0.2357 0.2745 0.9322
vn 0.4245 0.0826 0.9016
vn -0.7158 0.6092 0.3413
vn -0.7417 0.6167 -0.2637
vn -0.8400 0.4502 -0.3029
vn -0.8106 0.4417 0.3846
vn -0.2202 0.4651 -0.8574
vn 0.3608 0.2963 -0.8844
vn 0.3461 0.1054 -0.9323
vn -0.3141 0.2973 -0.9016
vn 0.3102 -0.7416 0.5949
vn -0.3721 -0.7363 0.5651
vn -0.3817 -0.5812 0.7187
vn 0.1937 -0.6163 0.7633
vn -0.9574 -0.2249 0.1812
vn -0.9247 0.3399 -0.1717
vn -0.9425 0.3288 0.0596
vn -0.9539 -0.1087 0.2798
vn -0.2709 0.8799 -0.3904
vn 0.4329 0.8183 -0.3780
vn 0.5616 0.7702 -0.3023
vn -0.0760 0.9859 -0.1490
vn 0.9425 0.3235 -0.0838
vn 0.9158 -0.2652 0.3015
vn 0.8657 -0.2687 0.4223
vn 0.9669 0.2510 -0.0459
vn 0.3361 -0.5830 0.7397
vn -0.3361 -0.5785 0.7432
vn -0.3497 -0.7344 0.5817
vn 0.3338 -0.7338 0.5917
vn -0.9283 -0.1842 0.3231
vn -0.9228 0.3301 -0.1986
vn -0.9233 0.3510 -0.1560
vn -0.9398 -0.2535 0.2294
vn -0.3248 0.7467 -0.5805
vn 0.3331 0.7431 -0.5804
vn 0.3577 0.8505 -0.3856
vn -0.3119 0.8626 -0.3983
vn 0.9227 0.3264 -0.2051
vn 0.9301 -0.1916 0.3133
vn 0.9280 -0.2519 0.2744
vn 0.9259 0.3617 -0.1091
vn 0.3497 -0.0376 0.9361
vn -0.3214 -0.0199 0.9467
vn -0.3235 -0.2371 0.9160
vn 0.3389 -0.2494 0.9072
vn -0.9182 0.0596 0.3916
vn -0.9359 0.1058 -0.3361
vn -0.9315 0.1981 -0.3051
vn -0.9183 -0.0309 0.3947
vn -0.3507 0.0803 -0.9330
vn 0.3242 0.0577 -0.9442
vn 0.3283 0.3118 -0.8916
vn -0.3405 0.3281 -0.8811
vn 0.9271 0.0492 -0.3715
vn 0.9338 0.0081 0.3578
vn 0.9291 -0.0656 0.3639
vn 0.9274 0.1595 -0.3382
vn 0.3674 0.0371 0.9293
vn -0.3320 0.0585 0.9415
vn -0.3288 0.0388 0.9436
vn 0.3623 0.0186 0.9319
vn -0.9259 0.0850 0.3681
vn -0.9381 0.0922 -0.3338
vn -0.9378 0.0916 -0.3349
vn -0.9237 0.0800 0.3747
vn -0.3641 0.0773 -0.9282
vn 0.3357 0.0555 -0.9403
vn 0.3325 0.0411 -0.9422
vn -0.3613 0.0636 -0.9303
vn 0.9298 0.0345 -0.3664
vn 0.9416 0.0276 0.3355
vn 0.9395 0.0239 0.3416
vn 0.9291 0.0331 -0.3683
vn 0.3681 0.0410 0.9289
vn -0.3324 0.0626 0.9411
vn -0.9262 0.0859 0.3672
vn -0.9382 0.0923 -0.3336
vn -0.3644 0.0797 -0.9278
vn 0.3361 0.0581 -0.9400
vn 0.9299 0.0347 -0.3662
vn 0.9419 0.0283 0.3347
vn 0.9299 0.0347 -0.3661
vn 0.3256 0.3954 0.8589
vn -0.2706 0.4138 0.8692
vn -0.3304 0.1047 0.9380
vn 0.3687 0.0832 0.9258
vn -0.8422 0.4363 0.3167
vn -0.8524 0.4417 -0.2797
vn -0.9334 0.1344 -0.3326
vn -0.9215 0.1280 0.3668
vn -0.3000 0.4295 -0.8518
vn 0.2961 0.4111 -0.8621
vn 0.3368 0.1002 -0.9362
vn -0.3623 0.1218 -0.9241
vn 0.8678 0.3886 -0.3096
vn 0.8780 0.3832 0.2868
vn 0.9398 0.0706 0.3344
vn 0.9278 0.0770 -0.3650
vn 0.3711 -0.0280 0.9282
vn -0.3375 0.0536 0.9398
vn -0.1806 -0.6331 0.7527
vn 0.2878 -0.6592 0.6947
vn -0.9432 0.0868 0.3207
vn -0.9423 -0.0624 -0.3289
vn -0.7283 -0.6240 -0.2831
vn -0.7583 -0.6027 0.2484
vn -0.3873 -0.3915 -0.8347
vn 0.1941 -0.6350 -0.7477
vn 0.2263 -0.7863 -0.5749
vn -0.2379 -0.7199 -0.6520
vn 0.9353 -0.3175 -0.1562
vn 0.9193 -0.0847 0.3843
vn 0.6567 -0.6971 0.2877
vn 0.6520 -0.7491 -0.1174
vn -0.1553 -0.8302 -0.5353
vn 0.4671 -0.8133 -0.3469
vn 0.3023 -0.9361 -0.1796
vn -0.2718 -0.8995 -0.3422
vn 0.9502 -0.3088 0.0405
vn 0.8755 0.4034 0.2661
vn 0.9170 0.3695 0.1501
vn 0.9370 -0.3178 0.1451
vn 0.1994 0.9720 0.1245
vn -0.3435 0.9379 -0.0483
vn -0.2478 0.8895 -0.3839
vn 0.2366 0.9426 -0.2357
vn -0.8654 0.4392 -0.2410
vn -0.8354 -0.2875 -0.4684
vn -0.8273 -0.2843 -0.4845
vn -0.7735 0.3995 -0.4920
vn -0.1541 -0.1126 -0.9816
vn 0.4751 -0.0276 -0.8795
vn 0.5109 -0.3648 -0.7784
vn -0.0987 -0.4061 -0.9085
vn 0.9542 0.1393 -0.2648
vn 0.8493 0.2012 0.4881
vn 0.8441 0.3000 0.4443
vn 0.9720 -0.0600 -0.2274
vn 0.1566 0.0483 0.9865
vn -0.4534 -0.0825 0.8875
vn -0.5102 0.3048 0.8042
vn 0.0976 0.4291 0.8980
vn -0.9586 -0.1177 0.2592
vn -0.8518 -0.1278 -0.5081
vn -0.8308 -0.1840 -0.5253
vn -0.9744 0.1085 0.1971
vn -0.2137 -0.0188 -0.9767
vn 0.4690 0.0974 -0.8778
vn 0.4704 0.0633 -0.8802
vn -0.1974 -0.0433 -0.9794
vn 0.9563 0.1950 -0.2178
vn 0.8569 0.1902 0.4790
vn 0.8557 0.1891 0.4818
vn 0.9554 0.1835 -0.2313
vn 0.2033 0.0816 0.9757
vn -0.4793 -0.0377 0.8769
vn -0.4688 -0.0721 0.8804
vn 0.1961 0.0532 0.9791
vn -0.9682 -0.1260 0.2163
vn -0.8689 -0.1182 -0.4806
vn -0.8649 -0.1200 -0.4875
vn -0.9645 -0.1342 0.2273
vn -0.2163 -0.0137 -0.9762
vn 0.4684 0.1044 -0.8773
vn 0.9563 0.1972 -0.2160
vn 0.8571 0.1904 0.4787
vn 0.2039 0.0863 0.9752
vn -0.4807 -0.0318 0.8763
vn -0.9686 -0.1246 0.2150
vn -0.8695 -0.1178 -0.4797
vn -0.2334 0.3072 -0.9226
vn 0.3637 0.4102 -0.8363
vn 0.4616 0.1411 -0.8758
vn -0.2227 0.0230 -0.9746
vn 0.8453 0.5018 -0.1836
vn 0.7588 0.4959 0.4223
vn 0.8488 0.2268 0.4777
vn 0.9479 0.2336 -0.2167
vn 0.1141 0.3931 0.9124
vn -0.4831 0.2901 0.8261
vn -0.4865 0.0050 0.8737
vn 0.1978 0.1230 0.9725
vn -0.9646 0.1985 0.1734
vn -0.8781 0.2044 -0.4325
vn -0.8737 -0.0807 -0.4798
vn -0.9728 -0.0875 0.2145
s 0
f 53//1 195//1 460//1 194//1
f 54//2 188//2 460//2 195//2
f 86//3 194//3 460//3 188//3
f 85//4 193//4 461//4 192//4
f 53//5 194//5 461//5 193//5
f 86//6 192//6 461//6 194//6
f 57//7 264//7 462//7 263//7
f 264//8 58//8 265//8 462//8
f 462//9 265//9 54//9 195//9
f 263//10 462//10 195//10 53//10
f 52//11 158//11 463//11 262//11
f 158//12 49//12 259//12 463//12
f 463//13 259//13 45//13 258//13
f 262//14 463//14 258//14 48//14
f 51//15 157//15 464//15 261//15
f 157//16 52//16 262//16 464//16
f 464//17 262//17 48//17 256//17
f 261//18 464//18 256//18 47//18
f 50//19 155//19 465//19 260//19
f 155//20 51//20 261//20 465//20
f 465//21 261//21 47//21 254//21
f 260//22 465//22 254//22 46//22
f 101//23 166//23 466//23 165//23
f 99//24 167//24 466//24 166//24
f 49//25 165//25 466//25 167//25
f 99//26 168//26 467//26 167//26
f 50//27 154//27 467//27 168//27
f 49//28 167//28 467//28 154//28
f 49//29 154//29 468//29 259//29
f 154//30 50//30 260//30 468//30
f 468//31 260//31 46//31 252//31
f 259//32 468//32 252//32 45//32
f 66//33 171//33 469//33 170//33
f 122//34 159//34 469//34 171//34
f 51//35 170//35 469//35 159//35
f 122//36 172//36 470//36 160//36
f 67//37 173//37 470//37 172//37
f 123//38 160//38 470//38 173//38
f 67//39 174//39 471//39 173//39
f 101//40 164//40 471//40 174//40
f 123//41 173//41 471//41 164//41
f 67//42 175//42 472//42 174//42
f 68//43 176//43 472//43 175//43
f 101//44 174//44 472//44 176//44
f 84//45 218//45 473//45 216//45
f 218//46 81//46 206//46 473//46
f 473//47 206//47 124//47 215//47
f 216//48 473//48 215//48 127//48
f 100//49 178//49 474//49 179//49
f 50//50 168//50 474//50 178//50
f 99//51 179//51 474//51 168//51
f 54//52 186//52 475//52 188//52
f 186//53 55//53 177//53 475//53
f 475//54 177//54 87//54 187//54
f 188//55 475//55 187//55 86//55
f 48//56 258//56 476//56 257//56
f 258//57 45//57 251//57 476//57
f 476//57 251//57 41//57 250//57
f 257//56 476//56 250//56 44//56
f 47//58 256//58 477//58 255//58
f 256//59 48//59 257//59 477//59
f 477//59 257//59 44//59 248//59
f 255//58 477//58 248//58 43//58
f 67//60 172//60 478//60 184//60
f 122//61 171//61 478//61 172//61
f 66//62 184//62 478//62 171//62
f 46//63 254//63 479//63 253//63
f 254//64 47//64 255//64 479//64
f 479//64 255//64 43//64 246//64
f 253//63 479//63 246//63 42//63
f 45//65 252//65 480//65 251//65
f 252//66 46//66 253//66 480//66
f 480//66 253//66 42//66 244//66
f 251//65 480//65 244//65 41//65
f 44//67 250//67 481//67 249//67
f 250//68 41//68 243//68 481//68
f 481//69 243//69 1//69 196//69
f 249//70 481//70 196//70 4//70
f 43//71 248//71 482//71 247//71
f 248//72 44//72 249//72 482//72
f 482//73 249//73 4//73 163//73
f 247//74 482//74 163//74 3//74
f 55//75 197//75 483//75 177//75
f 56//76 198//76 483//76 197//76
f 87//77 177//77 483//77 198//77
f 56//78 199//78 484//78 198//78
f 89//79 200//79 484//79 199//79
f 87//80 198//80 484//80 200//80
f 89//81 201//81 485//81 200//81
f 88//82 189//82 485//82 201//82
f 87//83 200//83 485//83 189//83
f 42//84 246//84 486//84 245//84
f 246//85 43//85 247//85 486//85
f 486//86 247//86 3//86 169//86
f 245//87 486//87 169//87 2//87
f 90//88 204//88 487//88 203//88
f 53//89 193//89 487//89 204//89
f 85//90 203//90 487//90 193//90
f 41//91 244//91 488//91 243//91
f 244//92 42//92 245//92 488//92
f 488//93 245//93 2//93 181//93
f 243//94 488//94 181//94 1//94
f 40//95 240//95 489//95 239//95
f 240//96 39//96 241//96 489//96
f 489//97 241//97 38//97 242//97
f 239//98 489//98 242//98 37//98
f 32//99 236//99 490//99 235//99
f 236//100 31//100 237//100 490//100
f 490//101 237//101 30//101 238//101
f 235//102 490//102 238//102 29//102
f 24//103 232//103 491//103 231//103
f 232//104 23//104 233//104 491//104
f 491//105 233//105 22//105 234//105
f 231//106 491//106 234//106 21//106
f 16//107 228//107 492//107 213//107
f 228//108 15//108 229//108 492//108
f 492//109 229//109 14//109 230//109
f 213//110 492//110 230//110 13//110
f 8//111 156//111 493//111 161//111
f 156//112 7//112 227//112 493//112
f 493//113 227//113 6//113 219//113
f 161//114 493//114 219//114 5//114
f 65//115 183//115 494//115 182//115
f 183//116 66//116 170//116 494//116
f 494//117 170//117 51//117 155//117
f 182//118 494//118 155//118 50//118
f 1//119 181//119 495//119 196//119
f 181//120 2//120 169//120 495//120
f 495//121 169//121 3//121 163//121
f 196//122 495//122 163//122 4//122
f 128//123 223//123 496//123 221//123
f 127//124 214//124 496//124 223//124
f 126//125 221//125 496//125 214//125
f 150//126 217//126 497//126 222//126
f 217//127 151//127 211//127 497//127
f 497//128 211//128 152//128 202//128
f 222//129 497//129 202//129 153//129
f 123//130 164//130 498//130 162//130
f 164//131 101//131 165//131 498//131
f 498//132 165//132 49//132 158//132
f 162//133 498//133 158//133 52//133
f 124//134 206//134 499//134 208//134
f 206//135 81//135 205//135 499//135
f 499//136 205//136 82//136 191//136
f 208//137 499//137 191//137 125//137
f 51//138 159//138 500//138 157//138
f 159//139 122//139 160//139 500//139
f 500//140 160//140 123//140 162//140
f 157//141 500//141 162//141 52//141
f 129//142 224//142 501//142 226//142
f 83//143 225//143 501//143 224//143
f 84//144 226//144 501//144 225//144
f 82//145 209//145 502//145 191//145
f 209//146 83//146 210//146 502//146
f 502//147 210//147 126//147 212//147
f 191//148 502//148 212//148 125//148
f 90//149 203//149 503//149 207//149
f 203//150 85//150 190//150 503//150
f 503//151 190//151 88//151 201//151
f 207//152 503//152 201//152 89//152
f 83//153 224//153 504//153 210//153
f 224//154 129//154 220//154 504//154
f 504//155 220//155 128//155 221//155
f 210//156 504//156 221//156 126//156
f 65//157 182//157 505//157 185//157
f 182//158 50//158 178//158 505//158
f 505//159 178//159 100//159 180//159
f 185//160 505//160 180//160 68//160
f 58//161 266//161 506//161 265//161
f 266//162 59//162 267//162 506//162
f 506//163 267//163 55//163 186//163
f 265//164 506//164 186//164 54//164
f 59//165 268//165 507//165 267//165
f 268//166 60//166 269//166 507//166
f 507//167 269//167 56//167 197//167
f 267//168 507//168 197//168 55//168
f 60//169 270//169 508//169 269//169
f 270//170 57//170 263//170 508//170
f 508//171 263//171 53//171 271//171
f 269//172 508//172 271//172 56//172
f 61//173 273//173 509//173 272//173
f 273//174 62//174 274//174 509//174
f 509//175 274//175 58//175 264//175
f 272//176 509//176 264//176 57//176
f 62//177 275//177 510//177 274//177
f 275//178 63//178 276//178 510//178
f 510//179 276//179 59//179 266//179
f 274//180 510//180 266//180 58//180
f 63//181 277//181 511//181 276//181
f 277//182 64//182 278//182 511//182
f 511//183 278//183 60//183 268//183
f 276//184 511//184 268//184 59//184
f 64//185 279//185 512//185 278//185
f 279//186 61//186 272//186 512//186
f 512//187 272//187 57//187 270//187
f 278//188 512//188 270//188 60//188
f 5//189 219//189 513//189 280//189
f 219//190 6//190 281//190 513//190
f 513//191 281//191 62//191 273//191
f 280//192 513//192 273//192 61//192
f 6//193 227//193 514//193 281//193
f 227//194 7//194 282//194 514//194
f 514//195 282//195 63//195 275//195
f 281//196 514//196 275//196 62//196
f 7//197 156//197 515//197 282//197
f 156//198 8//198 283//198 515//198
f 515//199 283//199 64//199 277//199
f 282//200 515//200 277//200 63//200
f 8//201 161//201 516//201 283//201
f 161//202 5//202 280//202 516//202
f 516//203 280//203 61//203 279//203
f 283//204 516//204 279//204 64//204
f 69//205 285//205 517//205 284//205
f 285//206 70//206 286//206 517//206
f 517//207 286//207 66//207 183//207
f 284//208 517//208 183//208 65//208
f 70//209 287//209 518//209 286//209
f 287//210 71//210 288//210 518//210
f 518//211 288//211 67//211 184//211
f 286//212 518//212 184//212 66//212
f 71//213 289//213 519//213 288//213
f 289//214 72//214 290//214 519//214
f 519//215 290//215 68//215 175//215
f 288//216 519//216 175//216 67//216
f 72//217 291//217 520//217 290//217
f 291//218 69//218 284//218 520//218
f 520//219 284//219 65//219 185//219
f 290//220 520//220 185//220 68//220
f 9//221 293//221 521//221 292//221
f 293//222 10//222 294//222 521//222
f 521//223 294//223 70//223 285//223
f 292//224 521//224 285//224 69//224
f 10//225 295//225 522//225 294//225
f 295//226 11//226 296//226 522//226
f 522//227 296//227 71//227 287//227
f 294//228 522//228 287//228 70//228
f 11//229 297//229 523//229 296//229
f 297//230 12//230 298//230 523//230
f 523//231 298//231 72//231 289//231
f 296//232 523//232 289//232 71//232
f 12//233 299//233 524//233 298//233
f 299//234 9//234 292//234 524//234
f 524//235 292//235 69//235 291//235
f 298//236 524//236 291//236 72//236
f 73//237 301//237 525//237 300//237
f 301//238 74//238 302//238 525//238
f 525//239 302//239 10//239 293//239
f 300//240 525//240 293//240 9//240
f 74//241 303//241 526//241 302//241
f 303//242 75//242 304//242 526//242
f 526//243 304//243 11//243 295//243
f 302//244 526//244 295//244 10//244
f 75//245 305//245 527//245 304//245
f 305//246 76//246 306//246 527//246
f 527//247 306//247 12//247 297//247
f 304//248 527//248 297//248 11//248
f 76//249 307//249 528//249 306//249
f 307//250 73//250 300//250 528//250
f 528//251 300//251 9//251 299//251
f 306//252 528//252 299//252 12//252
f 77//253 309//253 529//253 308//253
f 309//254 78//254 310//254 529//254
f 529//255 310//255 74//255 301//255
f 308//256 529//256 301//256 73//256
f 78//257 311//257 530//257 310//257
f 311//258 79//258 312//258 530//258
f 530//259 312//259 75//259 303//259
f 310//260 530//260 303//260 74//260
f 79//261 313//261 531//261 312//261
f 313//262 80//262 314//262 531//262
f 531//263 314//263 76//263 305//263
f 312//264 531//264 305//264 75//264
f 80//265 315//265 532//265 314//265
f 315//266 77//266 308//266 532//266
f 532//267 308//267 73//267 307//267
f 314//268 532//268 307//268 76//268
f 13//269 230//269 533//269 316//269
f 230//270 14//270 317//270 533//270
f 533//271 317//271 78//271 309//271
f 316//272 533//272 309//272 77//272
f 14//273 229//273 534//273 317//273
f 229//274 15//274 318//274 534//274
f 534//275 318//275 79//275 311//275
f 317//276 534//276 311//276 78//276
f 15//277 228//277 535//277 318//277
f 228//278 16//278 319//278 535//278
f 535//279 319//279 80//279 313//279
f 318//280 535//280 313//280 79//280
f 16//281 213//281 536//281 319//281
f 213//282 13//282 316//282 536//282
f 536//283 316//283 77//283 315//283
f 319//284 536//284 315//284 80//284
f 85//285 192//285 537//285 320//285
f 192//286 86//286 321//286 537//286
f 537//287 321//287 82//287 205//287
f 320//288 537//288 205//288 81//288
f 86//289 187//289 538//289 321//289
f 187//290 87//290 322//290 538//290
f 538//291 322//291 83//291 209//291
f 321//292 538//292 209//292 82//292
f 87//293 189//293 539//293 322//293
f 189//294 88//294 323//294 539//294
f 539//295 323//295 84//295 225//295
f 322//296 539//296 225//296 83//296
f 88//297 190//297 540//297 323//297
f 190//298 85//298 320//298 540//298
f 540//299 320//299 81//299 218//299
f 323//300 540//300 218//300 84//300
f 17//301 325//301 541//301 324//301
f 325//302 18//302 326//302 541//302
f 541//303 326//303 90//303 207//303
f 324//304 541//304 207//304 89//304
f 18//305 327//305 542//305 326//305
f 327//306 19//306 328//306 542//306
f 542//307 328//307 53//307 204//307
f 326//308 542//308 204//308 90//308
f 19//309 329//309 543//309 328//309
f 329//310 20//310 330//310 543//310
f 543//311 330//311 56//311 271//311
f 328//312 543//312 271//312 53//312
f 20//313 331//313 544//313 330//313
f 331//314 17//314 324//314 544//314
f 544//315 324//315 89//315 199//315
f 330//316 544//316 199//316 56//316
f 91//317 333//317 545//317 332//317
f 333//318 92//318 334//318 545//318
f 545//319 334//319 18//319 325//319
f 332//320 545//320 325//320 17//320
f 92//321 335//321 546//321 334//321
f 335//322 93//322 336//322 546//322
f 546//323 336//323 19//323 327//323
f 334//324 546//324 327//324 18//324
f 93//325 337//325 547//325 336//325
f 337//326 94//326 338//326 547//326
f 547//327 338//327 20//327 329//327
f 336//328 547//328 329//328 19//328
f 94//329 339//329 548//329 338//329
f 339//330 91//330 332//330 548//330
f 548//331 332//331 17//331 331//331
f 338//332 548//332 331//332 20//332
f 95//333 341//333 549//333 340//333
f 341//334 96//334 342//334 549//334
f 549//335 342//335 92//335 333//335
f 340//336 549//336 333//336 91//336
f 96//337 343//337 550//337 342//337
f 343//338 97//338 344//338 550//338
f 550//339 344//339 93//339 335//339
f 342//340 550//340 335//340 92//340
f 97//341 345//341 551//341 344//341
f 345//342 98//342 346//342 551//342
f 551//343 346//343 94//343 337//343
f 344//344 551//344 337//344 93//344
f 98//345 347//345 552//345 346//345
f 347//346 95//346 340//346 552//346
f 552//347 340//347 91//347 339//347
f 346//348 552//348 339//348 94//348
f 21//349 234//349 553//349 348//349
f 234//350 22//350 349//350 553//350
f 553//351 349//351 96//351 341//351
f 348//352 553//352 341//352 95//352
f 22//353 233//353 554//353 349//353
f 233//354 23//354 350//354 554//354
f 554//355 350//355 97//355 343//355
f 349//356 554//356 343//356 96//356
f 23//357 232//357 555//357 350//357
f 232//358 24//358 351//358 555//358
f 555//359 351//359 98//359 345//359
f 350//360 555//360 345//360 97//360
f 24//361 231//361 556//361 351//361
f 231//362 21//362 348//362 556//362
f 556//363 348//363 95//363 347//363
f 351//364 556//364 347//364 98//364
f 102//365 353//365 557//365 352//365
f 353//366 103//366 354//366 557//366
f 557//367 354//367 100//367 179//367
f 352//368 557//368 179//368 99//368
f 103//369 355//369 558//369 354//369
f 355//370 104//370 356//370 558//370
f 558//371 356//371 68//371 180//371
f 354//372 558//372 180//372 100//372
f 104//373 357//373 559//373 356//373
f 357//374 105//374 358//374 559//374
f 559//375 358//375 101//375 176//375
f 356//376 559//376 176//376 68//376
f 105//377 359//377 560//377 358//377
f 359//378 102//378 352//378 560//378
f 560//379 352//379 99//379 166//379
f 358//380 560//380 166//380 101//380
f 25//381 361//381 561//381 360//381
f 361//382 26//382 362//382 561//382
f 561//383 362//383 103//383 353//383
f 360//384 561//384 353//384 102//384
f 26//385 363//385 562//385 362//385
f 363//386 27//386 364//386 562//386
f 562//387 364//387 104//387 355//387
f 362//388 562//388 355//388 103//388
f 27//389 365//389 563//389 364//389
f 365//390 28//390 366//390 563//390
f 563//391 366//391 105//391 357//391
f 364//392 563//392 357//392 104//392
f 28//393 367//393 564//393 366//393
f 367//394 25//394 360//394 564//394
f 564//395 360//395 102//395 359//395
f 366//396 564//396 359//396 105//396
f 106//397 369//397 565//397 368//397
f 369//398 107//398 370//398 565//398
f 565//399 370//399 26//399 361//399
f 368//400 565//400 361//400 25//400
f 107//401 371//401 566//401 370//401
f 371//402 108//402 372//402 566//402
f 566//403 372//403 27//403 363//403
f 370//404 566//404 363//404 26//404
f 108//405 373//405 567//405 372//405
f 373//406 109//406 374//406 567//406
f 567//407 374//407 28//407 365//407
f 372//408 567//408 365//408 27//408
f 109//409 375//409 568//409 374//409
f 375//410 106//410 368//410 568//410
f 568//411 368//411 25//411 367//411
f 374//412 568//412 367//412 28//412
f 110//413 377//413 569//413 376//413
f 377//414 111//414 378//414 569//414
f 569//415 378//415 107//415 369//415
f 376//416 569//416 369//416 106//416
f 111//417 379//417 570//417 378//417
f 379//418 112//418 380//418 570//418
f 570//419 380//419 108//419 371//419
f 378//420 570//420 371//420 107//420
f 112//421 381//421 571//421 380//421
f 381//422 113//422 382//422 571//422
f 571//423 382//423 109//423 373//423
f 380//424 571//424 373//424 108//424
f 113//425 383//425 572//425 382//425
f 383//426 110//426 376//426 572//426
f 572//427 376//427 106//427 375//427
f 382//428 572//428 375//428 109//428
f 114//429 385//429 573//429 384//429
f 385//430 115//430 386//430 573//430
f 573//430 386//430 111//430 377//430
f 384//429 573//429 377//429 110//429
f 115//431 387//431 574//431 386//431
f 387//432 116//432 388//432 574//432
f 574//432 388//432 112//432 379//432
f 386//431 574//431 379//431 111//431
f 116//433 389//433 575//433 388//433
f 389//434 117//434 390//434 575//434
f 575//434 390//434 113//434 381//434
f 388//433 575//433 381//433 112//433
f 117//435 391//435 576//435 390//435
f 391//436 114//436 384//436 576//436
f 576//436 384//436 110//436 383//436
f 390//435 576//435 383//435 113//435
f 118//429 393//429 577//429 392//429
f 393//430 119//430 394//430 577//430
f 577//430 394//430 115//430 385//430
f 392//429 577//429 385//429 114//429
f 119//431 395//431 578//431 394//431
f 395//432 120//432 396//432 578//432
f 578//432 396//432 116//432 387//432
f 394//431 578//431 387//431 115//431
f 120//433 397//433 579//433 396//433
f 397//434 121//434 398//434 579//434
f 579//434 398//434 117//434 389//434
f 396//433 579//433 389//433 116//433
f 121//437 399//437 580//437 398//437
f 399//436 118//436 392//436 580//436
f 580//436 392//436 114//436 391//436
f 398//437 580//437 391//437 117//437
f 29//438 238//438 581//438 400//438
f 238//439 30//439 401//439 581//439
f 581//440 401//440 119//440 393//440
f 400//441 581//441 393//441 118//441
f 30//442 237//442 582//442 401//442
f 237//443 31//443 402//443 582//443
f 582//444 402//444 120//444 395//444
f 401//445 582//445 395//445 119//445
f 31//446 236//446 583//446 402//446
f 236//447 32//447 403//447 583//447
f 583//448 403//448 121//448 397//448
f 402//449 583//449 397//449 120//449
f 32//450 235//450 584//450 403//450
f 235//451 29//451 400//451 584//451
f 584//452 400//452 118//452 399//452
f 403//453 584//453 399//453 121//453
f 124//454 208//454 585//454 404//454
f 208//455 125//455 405//455 585//455
f 585//456 405//456 151//456 217//456
f 404//457 585//457 217//457 150//457
f 125//458 212//458 586//458 405//458
f 212//459 126//459 406//459 586//459
f 586//460 406//460 152//460 211//460
f 405//461 586//461 211//461 151//461
f 126//462 214//462 587//462 406//462
f 214//463 127//463 407//463 587//463
f 587//464 407//464 153//464 202//464
f 406//465 587//465 202//465 152//465
f 127//466 215//466 588//466 407//466
f 215//467 124//467 404//467 588//467
f 588//468 404//468 150//468 222//468
f 407//469 588//469 222//469 153//469
f 33//470 409//470 589//470 408//470
f 409//471 34//471 410//471 589//471
f 589//472 410//472 127//472 223//472
f 408//473 589//473 223//473 128//473
f 34//474 411//474 590//474 410//474
f 411//475 35//475 412//475 590//475
f 590//476 412//476 84//476 216//476
f 410//477 590//477 216//477 127//477
f 35//478 413//478 591//478 412//478
f 413//479 36//479 414//479 591//479
f 591//480 414//480 129//480 226//480
f 412//481 591//481 226//481 84//481
f 36//482 415//482 592//482 414//482
f 415//483 33//483 408//483 592//483
f 592//484 408//484 128//484 220//484
f 414//485 592//485 220//485 129//485
f 130//486 417//486 593//486 416//486
f 417//487 131//487 418//487 593//487
f 593//488 418//488 34//488 409//488
f 416//489 593//489 409//489 33//489
f 131//490 419//490 594//490 418//490
f 419//491 132//491 420//491 594//491
f 594//492 420//492 35//492 411//492
f 418//493 594//493 411//493 34//493
f 132//494 421//494 595//494 420//494
f 421//495 133//495 422//495 595//495
f 595//496 422//496 36//496 413//496
f 420//497 595//497 413//497 35//497
f 133//498 423//498 596//498 422//498
f 423//499 130//499 416//499 596//499
f 596//500 416//500 33//500 415//500
f 422//501 596//501 415//501 36//501
f 134//502 425//502 597//502 424//502
f 425//503 135//503 426//503 597//503
f 597//504 426//504 131//504 417//504
f 424//505 597//505 417//505 130//505
f 135//506 427//506 598//506 426//506
f 427//507 136//507 428//507 598//507
f 598//508 428//508 132//508 419//508
f 426//509 598//509 419//509 131//509
f 136//510 429//510 599//510 428//510
f 429//511 137//511 430//511 599//511
f 599//512 430//512 133//512 421//512
f 428//513 599//513 421//513 132//513
f 137//514 431//514 600//514 430//514
f 431//515 134//515 424//515 600//515
f 600//516 424//516 130//516 423//516
f 430//517 600//517 423//517 133//517
f 138//518 433//518 601//518 432//518
f 433//519 139//519 434//519 601//519
f 601//519 434//519 135//519 425//519
f 432//518 601//518 425//518 134//518
f 139//520 435//520 602//520 434//520
f 435//521 140//521 436//521 602//521
f 602//521 436//521 136//521 427//521
f 434//520 602//520 427//520 135//520
f 140//522 437//522 603//522 436//522
f 437//523 141//523 438//523 603//523
f 603//523 438//523 137//523 429//523
f 436//522 603//522 429//522 136//522
f 141//524 439//524 604//524 438//524
f 439//525 138//525 432//525 604//525
f 604//525 432//525 134//525 431//525
f 438//524 604//524 431//524 137//524
f 142//518 441//518 605//518 440//518
f 441//519 143//519 442//519 605//519
f 605//519 442//519 139//519 433//519
f 440//518 605//518 433//518 138//518
f 143//520 443//520 606//520 442//520
f 443//521 144//521 444//521 606//521
f 606//521 444//521 140//521 435//521
f 442//520 606//520 435//520 139//520
f 144//522 445//522 607//522 444//522
f 445//523 145//523 446//523 607//523
f 607//523 446//523 141//523 437//523
f 444//522 607//522 437//522 140//522
f 145//524 447//524 608//524 446//524
f 447//525 142//525 440//525 608//525
f 608//525 440//525 138//525 439//525
f 446//524 608//524 439//524 141//524
f 146//518 449//518 609//518 448//518
f 449//519 147//519 450//519 609//519
f 609//519 450//519 143//519 441//519
f 448//518 609//518 441//518 142//518
f 147//520 451//520 610//520 450//520
f 451//521 148//521 452//521 610//521
f 610//521 452//521 144//521 443//521
f 450//520 610//520 443//520 143//520
f 148//522 453//522 611//522 452//522
f 453//523 149//523 454//523 611//523
f 611//523 454//523 145//523 445//523
f 452//522 611//522 445//522 144//522
f 149//524 455//524 612//524 454//524
f 455//525 146//525 448//525 612//525
f 612//525 448//525 142//525 447//525
f 454//524 612//524 447//524 145//524
f 37//526 242//526 613//526 456//526
f 242//527 38//527 457//527 613//527
f 613//528 457//528 147//528 449//528
f 456//529 613//529 449//529 146//529
f 38//530 241//530 614//530 457//530
f 241//531 39//531 458//531 614//531
f 614//532 458//532 148//532 451//532
f 457//533 614//533 451//533 147//533
f 39//534 240//534 615//534 458//534
f 240//535 40//535 459//535 615//535
f 615//536 459//536 149//536 453//536
f 458//537 615//537 453//537 148//537
f 40//538 239//538 616//538 459//538
f 239//539 37//539 456//539 616//539
f 616//540 456//540 146//540 455//540
f 459//541 616//541 455//541 149//541
o Cone
v -0.146279 1.115430 -0.120188
v -0.157674 1.145030 -0.093999
v -0.160248 1.111603 -0.070169
v -0.153340 1.082042 -0.080856
v -0.144707 1.084407 -0.111769
v -0.251368 1.094927 -0.123998
vn -0.0969 0.6384 -0.7636
vn -0.5016 0.5274 0.6857
vn -0.4132 -0.3935 0.8213
vn 0.9533 0.1231 0.2757
vn -0.0863 -0.9912 -0.1000
vn 0.0850 -0.2569 -0.9627
vt 0.250000 0.490000
vt 0.250000 0.250000
vt 0.478254 0.324164
vt 0.391068 0.055836
vt 0.108932 0.055836
vt 0.750000 0.490000
vt 0.978254 0.324164
vt 0.891068 0.055836
vt 0.608932 0.055836
vt 0.521746 0.324164
vt 0.021746 0.324164
s 0
f 617/1/542 622/2/542 618/3/542
f 618/3/543 622/2/543 619/4/543
f 619/4/544 622/2/544 620/5/544
f 617/6/545 618/7/545 619/8/545 620/9/545 621/10/545
f 620/5/546 622/2/546 621/11/546
f 621/11/547 622/2/547 617/1/547
o Cone.001
v -0.164572 0.787964 0.054161
v -0.153947 0.818595 0.079473
v -0.146381 0.785643 0.102899
v -0.151326 0.755527 0.092684
v -0.162568 0.756961 0.062562
v -0.252854 0.784530 0.114766
vn -0.4437 0.6573 -0.6091
vn 0.0833 0.5900 0.8031
vn 0.1078 -0.3352 0.9360
vn 0.9358 -0.0346 -0.3509
vn -0.2637 -0.9632 0.0526
vn -0.5410 -0.2524 -0.8023
vt 0.250000 0.490000
vt 0.250000 0.250000
vt 0.478254 0.324164
vt 0.391068 0.055836
vt 0.108932 0.055836
vt 0.750000 0.490000
vt 0.978254 0.324164
vt 0.891068 0.055836
vt 0.608932 0.055836
vt 0.521746 0.324164
vt 0.021746 0.324164
s 0
f 623/12/548 628/13/548 624/14/548
f 624/14/549 628/13/549 625/15/549
f 625/15/550 628/13/550 626/16/550
f 623/17/551 624/18/551 625/19/551 626/20/551 627/21/551
f 626/16/552 628/13/552 627/22/552
f 627/22/553 628/13/553 623/12/553
o Cone.002
v 0.021983 1.606323 0.246691
v 0.041432 1.631894 0.272376
v 0.028737 1.602488 0.298182
v 0.011998 1.576797 0.288407
v 0.007824 1.579167 0.256583
v -0.066162 1.651145 0.287924
vn 0.0221 0.7001 -0.7137
vn 0.2178 0.5889 0.7783
vn -0.2161 -0.2210 0.9510
vn 0.8535 -0.4993 -0.1491
vn -0.6889 -0.7240 0.0364
vn -0.4570 -0.0842 -0.8854
vt 0.250000 0.490000
vt 0.250000 0.250000
vt 0.478254 0.324164
vt 0.391068 0.055836
vt 0.108932 0.055836
vt 0.750000 0.490000
vt 0.978254 0.324164
vt 0.891068 0.055836
vt 0.608932 0.055836
vt 0.521746 0.324164
vt 0.021746 0.324164
s 0
f 629/23/554 634/24/554 630/25/554
f 630/25/555 634/24/555 631/26/555
f 631/26/556 634/24/556 632/27/556
f 629/28/557 630/29/557 631/30/557 632/31/557 633/32/557
f 632/27/558 634/24/558 633/33/558
f 633/33/559 634/24/559 629/23/559
o Cone.003
v -0.087180 2.204513 -0.073548
v -0.093371 2.233058 -0.044587
v -0.101348 2.198470 -0.023804
v -0.099501 2.169282 -0.037234
v -0.090744 2.173016 -0.067978
v -0.194232 2.202072 -0.077079
vn 0.0069 0.7129 -0.7012
vn -0.4037 0.5378 0.7401
vn -0.4688 -0.3935 0.7908
vn 0.9619 -0.0617 0.2665
vn -0.2503 -0.9500 -0.1867
vn 0.0365 -0.1780 -0.9833
vt 0.250000 0.490000
vt 0.250000 0.250000
vt 0.478254 0.324164
vt 0.391068 0.055836
vt 0.108932 0.055836
vt 0.750000 0.490000
vt 0.978254 0.324164
vt 0.891068 0.055836
vt 0.608932 0.055836
vt 0.521746 0.324164
vt 0.021746 0.324164
s 0
f 635/34/560 640/35/560 636/36/560
f 636/36/561 640/35/561 637/37/561
f 637/37/562 640/35/562 638/38/562
f 635/39/563 636/40/563 637/41/563 638/42/563 639/43/563
f 638/38/564 640/35/564 639/44/564
f 639/44/565 640/35/565 635/34/565
o Cone.004
v -0.081297 0.598385 -0.164958
v -0.108263 0.627143 -0.153225
v -0.129867 0.592688 -0.147065
v -0.118015 0.563394 -0.153161
v -0.087996 0.566915 -0.164219
v -0.141470 0.595173 -0.253544
vn 0.5731 0.7067 -0.4149
vn -0.8342 0.5416 0.1035
vn -0.9165 -0.3897 0.0908
vn 0.3506 -0.0527 0.9350
vn 0.0006 -0.9533 -0.3019
vn 0.8158 -0.1865 -0.5474
vt 0.250000 0.490000
vt 0.250000 0.250000
vt 0.478254 0.324164
vt 0.391068 0.055836
vt 0.108932 0.055836
vt 0.750000 0.490000
vt 0.978254 0.324164
vt 0.891068 0.055836
vt 0.608932 0.055836
vt 0.521746 0.324164
vt 0.021746 0.324164
s 0
f 641/45/566 646/46/566 642/47/566
f 642/47/567 646/46/567 643/48/567
f 643/48/568 646/46/568 644/49/568
f 641/50/569 642/51/569 643/52/569 644/53/569 645/54/569
f 644/49/570 646/46/570 645/55/570
f 645/55/571 646/46/571 641/45/571
o Cone.005
v -0.090238 1.616926 0.301895
v -0.085604 1.644675 0.331902
v -0.101192 1.612750 0.352633
v -0.108818 1.584868 0.338484
v -0.102049 1.587449 0.307127
v -0.193520 1.644613 0.308600
vn 0.1472 0.7148 -0.6837
vn -0.1702 0.5938 0.7864
vn -0.4908 -0.2838 0.8238
vn 0.9246 -0.3400 0.1716
vn -0.5233 -0.8326 -0.1815
vn -0.1001 -0.1348 -0.9858
vt 0.250000 0.490000
vt 0.250000 0.250000
vt 0.478254 0.324164
vt 0.391068 0.055836
vt 0.108932 0.055836
vt 0.750000 0.490000
vt 0.978254 0.324164
vt 0.891068 0.055836
vt 0.608932 0.055836
vt 0.521746 0.324164
vt 0.021746 0.324164
s 0
f 647/56/572 652/57/572 648/58/572
f 648/58/573 652/57/573 649/59/573
f 649/59/574 652/57/574 650/60/574
f 647/61/575 648/62/575 649/63/575 650/64/575 651/65/575
f 650/60/576 652/57/576 651/66/576
f 651/66/577 652/57/577 647/56/577
o Cone.006
v -0.010021 1.753656 -0.322450
v -0.011073 1.781314 -0.292023
v -0.036034 1.752090 -0.277366
v -0.042557 1.725051 -0.293556
v -0.026480 1.726019 -0.321420
v -0.106241 1.794186 -0.346484
vn 0.4334 0.6743 -0.5979
vn -0.3203 0.6289 0.7084
vn -0.7457 -0.2005 0.6354
vn 0.7807 -0.4487 0.4349
vn -0.5462 -0.7648 -0.3417
vn 0.1820 -0.1447 -0.9726
vt 0.250000 0.490000
vt 0.250000 0.250000
vt 0.478254 0.324164
vt 0.391068 0.055836
vt 0.108932 0.055836
vt 0.750000 0.490000
vt 0.978254 0.324164
vt 0.891068 0.055836
vt 0.608932 0.055836
vt 0.521746 0.324164
vt 0.021746 0.324164
s 0
f 653/67/578 658/68/578 654/69/578
f 654/69/579 658/68/579 655/70/579
f 655/70/580 658/68/580 656/71/580
f 653/72/581 654/73/581 655/74/581 656/75/581 657/76/581
f 656/71/582 658/68/582 657/77/582
f 657/77/583 658/68/583 653/67/583
o Cone.007
v 0.065530 1.981167 -0.480370
v 0.035406 2.008510 -0.474308
v 0.015308 1.972973 -0.469312
v 0.029718 1.944315 -0.471937
v 0.060757 1.949379 -0.478771
v 0.019314 1.969476 -0.576318
vn 0.5829 0.7239 -0.3690
vn -0.8723 0.4865 -0.0486
vn -0.8939 -0.4478 -0.0188
vn 0.2123 0.0173 0.9770
vn 0.1039 -0.9645 -0.2428
vn 0.8972 -0.1555 -0.4132
vt 0.250000 0.490000
vt 0.250000 0.250000
vt 0.478254 0.324164
vt 0.391068 0.055836
vt 0.108932 0.055836
vt 0.750000 0.490000
vt 0.978254 0.324164
vt 0.891068 0.055836
vt 0.608932 0.055836
vt 0.521746 0.324164
vt 0.021746 0.324164
s 0
f 659/78/584 664/79/584 660/80/584
f 660/80/585 664/79/585 661/81/585
f 661/81/586 664/79/586 662/82/586
f 659/83/587 660/84/587 661/85/587 662/86/587 663/87/587
f 662/82/588 664/79/588 663/88/588
f 663/88/589 664/79/589 659/78/589
o Cone.008
v 0.133915 1.283388 -0.068434
v 0.119375 1.315627 -0.089436
v 0.113425 1.285034 -0.116279
v 0.121467 1.254521 -0.109948
v 0.134131 1.253504 -0.080379
v 0.218821 1.295017 -0.132733
vn 0.4176 0.6207 0.6636
vn -0.1761 0.6684 -0.7227
vn -0.1283 -0.2338 -0.9638
vn -0.9094 -0.1600 0.3839
vn 0.3421 -0.9226 -0.1782
vn 0.6025 -0.2925 0.7426
vt 0.250000 0.490000
vt 0.250000 0.250000
vt 0.478254 0.324164
vt 0.391068 0.055836
vt 0.108932 0.055836
vt 0.750000 0.490000
vt 0.978254 0.324164
vt 0.891068 0.055836
vt 0.608932 0.055836
vt 0.521746 0.324164
vt 0.021746 0.324164
s 0
f 665/89/590 670/90/590 666/91/590
f 666/91/591 670/90/591 667/92/591
f 667/92/592 670/90/592 668/93/592
f 665/94/593 666/95/593 667/96/593 668/97/593 669/98/593
f 668/93/594 670/90/594 669/99/594
f 669/99/595 670/90/595 665/89/595
o Cone.009
v 0.132407 0.847959 -0.131755
v 0.103309 0.875478 -0.141128
v 0.084349 0.840125 -0.150215
v 0.098401 0.811404 -0.146552
v 0.128102 0.816246 -0.135143
v 0.145696 0.843667 -0.237979
vn 0.6767 0.7342 0.0550
vn -0.7158 0.5072 -0.4799
vn -0.7332 -0.4263 -0.5297
vn -0.3506 -0.0523 0.9350
vn 0.2362 -0.9482 -0.2124
vn 0.9808 -0.1469 0.1286
vt 0.250000 0.490000
vt 0.250000 0.250000
vt 0.478254 0.324164
vt 0.391068 0.055836
vt 0.108932 0.055836
vt 0.750000 0.490000
vt 0.978254 0.324164
vt 0.891068 0.055836
vt 0.608932 0.055836
vt 0.521746 0.324164
vt 0.021746 0.324164
s 0
f 671/100/596 676/101/596 672/102/596
f 672/102/597 676/101/597 673/103/597
f 673/103/598 676/101/598 674/104/598
f 671/105/599 672/106/599 673/107/599 674/108/599 675/109/599
f 674/104/600 676/101/600 675/110/600
f 675/110/601 676/101/601 671/100/601
o Cone.010
v -0.140071 1.494725 -0.140923
v -0.166452 1.524343 -0.130030
v -0.190370 1.490942 -0.127986
v -0.179580 1.461376 -0.134710
v -0.148493 1.463714 -0.142705
v -0.191547 1.499950 -0.234739
vn 0.6475 0.6932 -0.3167
vn -0.8100 0.5836 0.0582
vn -0.9406 -0.3391 -0.0182
vn 0.2559 -0.1246 0.9586
vn -0.0217 -0.9337 -0.3575
vn 0.8534 -0.2042 -0.4796
vt 0.250000 0.490000
vt 0.250000 0.250000
vt 0.478254 0.324164
vt 0.391068 0.055836
vt 0.108932 0.055836
vt 0.750000 0.490000
vt 0.978254 0.324164
vt 0.891068 0.055836
vt 0.608932 0.055836
vt 0.521746 0.324164
vt 0.021746 0.324164
s 0
f 677/111/602 682/112/602 678/113/602
f 678/113/603 682/112/603 679/114/603
f 679/114/604 682/112/604 680/115/604
f 677/116/605 678/117/605 679/118/605 680/119/605 681/120/605
f 680/115/606 682/112/606 681/121/606
f 681/121/607 682/112/607 677/111/607
o Cone.011
v -0.455807 1.982738 0.099518
v -0.446949 2.016579 0.121156
v -0.455648 1.989771 0.151115
v -0.464116 1.959279 0.145260
v -0.464215 1.954932 0.113372
v -0.557086 2.009044 0.122524
vn -0.0478 0.5469 -0.8358
vn -0.0432 0.7507 0.6592
vn -0.2879 -0.1028 0.9521
vn 0.9612 -0.2736 0.0343
vn -0.4911 -0.8629 0.1192
vn -0.2936 -0.3537 -0.8881
vt 0.250000 0.490000
vt 0.250000 0.250000
vt 0.478254 0.324164
vt 0.391068 0.055836
vt 0.108932 0.055836
vt 0.750000 0.490000
vt 0.978254 0.324164
vt 0.891068 0.055836
vt 0.608932 0.055836
vt 0.521746 0.324164
vt 0.021746 0.324164
s 0
f 683/122/608 688/123/608 684/124/608
f 684/124/609 688/123/609 685/125/609
f 685/125/610 688/123/610 686/126/610
f 683/127/611 684/128/611 685/129/611 686/130/611 687/131/611
f 686/126/612 688/123/612 687/132/612
f 687/132/613 688/123/613 683/122/613
o Cone.012
v -0.326791 1.651434 0.073856
v -0.333354 1.682950 0.099459
v -0.303973 1.662201 0.119410
v -0.291055 1.635024 0.107993
v -0.305158 1.628370 0.079840
v -0.384655 1.596730 0.145535
vn -0.8356 0.2309 -0.4984
vn -0.1745 0.5428 0.8215
vn 0.4261 -0.1706 0.8884
vn 0.6996 0.5326 -0.4763
vn 0.3868 -0.9218 0.0241
vn -0.3877 -0.5546 -0.7363
vt 0.250000 0.490000
vt 0.250000 0.250000
vt 0.478254 0.324164
vt 0.391068 0.055836
vt 0.108932 0.055836
vt 0.750000 0.490000
vt 0.978254 0.324164
vt 0.891068 0.055836
vt 0.608932 0.055836
vt 0.521746 0.324164
vt 0.021746 0.324164
s 0
f 689/133/614 694/134/614 690/135/614
f 690/135/615 694/134/615 691/136/615
f 691/136/616 694/134/616 692/137/616
f 689/138/617 690/139/617 691/140/617 692/141/617 693/142/617
f 692/137/618 694/134/618 693/143/618
f 693/143/619 694/134/619 689/133/619
o Cone.013
v -0.285001 1.829046 0.149664
v -0.253792 1.845577 0.128579
v -0.240229 1.807200 0.134503
v -0.257260 1.784983 0.150379
v -0.284931 1.798484 0.159750
v -0.219735 1.842523 0.233552
vn -0.3815 0.9120 0.1503
vn 0.9158 0.2791 -0.2890
vn 0.8074 -0.5884 0.0428
vn -0.4289 -0.2840 -0.8575
vn -0.1701 -0.7728 0.6114
vn -0.7894 0.1907 0.5835
vt 0.250000 0.490000
vt 0.250000 0.250000
vt 0.478254 0.324164
vt 0.391068 0.055836
vt 0.108932 0.055836
vt 0.750000 0.490000
vt 0.978254 0.324164
vt 0.891068 0.055836
vt 0.608932 0.055836
vt 0.521746 0.324164
vt 0.021746 0.324164
s 0
f 695/144/620 700/145/620 696/146/620
f 696/146/621 700/145/621 697/147/621
f 697/147/622 700/145/622 698/148/622
f 695/149/623 696/150/623 697/151/623 698/152/623 699/153/623
f 698/148/624 700/145/624 699/154/624
f 699/154/625 700/145/625 695/144/625
o Cone.014
v 0.115188 1.659093 0.403210
v 0.100318 1.629538 0.427647
v 0.101590 1.661572 0.453416
v 0.111945 1.690701 0.444467
v 0.120349 1.689169 0.413438
v 0.206524 1.640092 0.455891
vn 0.2495 -0.6885 -0.6809
vn -0.1445 -0.6167 0.7738
vn 0.0351 0.2821 0.9588
vn -0.9314 0.2498 -0.2646
vn 0.4625 0.8828 0.0817
vn 0.5201 0.1936 -0.8319
vt 0.250000 0.490000
vt 0.250000 0.250000
vt 0.478254 0.324164
vt 0.391068 0.055836
vt 0.108932 0.055836
vt 0.750000 0.490000
vt 0.978254 0.324164
vt 0.891068 0.055836
vt 0.608932 0.055836
vt 0.521746 0.324164
vt 0.021746 0.324164
s 0
f 701/155/626 706/156/626 702/157/626
f 702/157/627 706/156/627 703/158/627
f 703/158/628 706/156/628 704/159/628
f 701/160/629 702/161/629 703/162/629 704/163/629 705/164/629
f 704/159/630 706/156/630 705/165/630
f 705/165/631 706/156/631 701/155/631
o Cone.015
v 0.012649 1.770601 0.615495
v 0.030132 1.807480 0.610381
v 0.060465 1.782347 0.598543
v 0.057508 1.750299 0.598549
v 0.027956 1.743040 0.609026
v 0.073103 1.767508 0.703893
vn -0.7408 0.4235 0.5214
vn 0.6447 0.7638 0.0302
vn 0.9872 -0.0911 -0.1313
vn -0.3408 0.0313 -0.9396
vn 0.2753 -0.9544 0.1152
vn -0.7182 -0.5100 0.4733
vt 0.250000 0.490000
vt 0.250000 0.250000
vt 0.478254 0.324164
vt 0.391068 0.055836
vt 0.108932 0.055836
vt 0.750000 0.490000
vt 0.978254 0.324164
vt 0.891068 0.055836
vt 0.608932 0.055836
vt 0.521746 0.324164
vt 0.021746 0.324164
s 0
f 707/166/632 712/167/632 708/168/632
f 708/168/633 712/167/633 709/169/633
f 709/169/634 712/167/634 710/170/634
f 707/171/635 708/172/635 709/173/635 710/174/635 711/175/635
f 710/170/636 712/167/636 711/176/636
f 711/176/637 712/167/637 707/166/637
o Cone.016
v -0.073468 2.021851 0.518331
v -0.060760 2.051927 0.543346
v -0.054567 2.018673 0.566749
v -0.061309 1.988842 0.556727
v -0.072990 1.990806 0.526803
v -0.160718 2.023337 0.580491
vn -0.4184 0.6788 -0.6035
vn 0.1293 0.5867 0.7994
vn 0.1062 -0.3381 0.9351
vn 0.9262 -0.0859 -0.3672
vn -0.3143 -0.9474 0.0605
vn -0.5679 -0.2248 -0.7918
vt 0.250000 0.490000
vt 0.250000 0.250000
vt 0.478254 0.324164
vt 0.391068 0.055836
vt 0.108932 0.055836
vt 0.750000 0.490000
vt 0.978254 0.324164
vt 0.891068 0.055836
vt 0.608932 0.055836
vt 0.521746 0.324164
vt 0.021746 0.324164
s 0
f 713/177/638 718/178/638 714/179/638
f 714/179/639 718/178/639 715/180/639
f 715/180/640 718/178/640 716/181/640
f 713/182/641 714/183/641 715/184/641 716/185/641 717/186/641
f 716/181/642 718/178/642 717/187/642
f 717/187/643 718/178/643 713/177/643
o Cone.017
v 0.080501 2.063983 0.541231
v 0.067055 2.076580 0.578005
v 0.072837 2.112437 0.558700
v 0.083542 2.114363 0.528411
v 0.088278 2.084416 0.517614
v 0.176175 2.093292 0.579519
vn 0.1360 -0.9210 0.3652
vn -0.0861 0.4830 0.8714
vn 0.1578 0.9804 0.1181
vn -0.9419 -0.0283 -0.3347
vn 0.5121 0.3619 -0.7790
vn 0.4312 -0.7477 -0.5050
vt 0.250000 0.490000
vt 0.250000 0.250000
vt 0.478254 0.324164
vt 0.391068 0.055836
vt 0.108932 0.055836
vt 0.750000 0.490000
vt 0.978254 0.324164
vt 0.891068 0.055836
vt 0.608932 0.055836
vt 0.521746 0.324164
vt 0.021746 0.324164
s 0
f 719/188/644 724/189/644 720/190/644
f 720/190/645 724/189/645 721/191/645
f 721/191/646 724/189/646 722/192/646
f 719/193/647 720/194/647 721/195/647 722/196/647 723/197/647
f 722/192/648 724/189/648 723/198/648
f 723/198/649 724/189/649 719/188/649
o Cone.018
v 0.057257 0.503760 0.179305
v 0.078965 0.537227 0.169279
v 0.105841 0.507242 0.160890
v 0.099046 0.476080 0.165194
v 0.069020 0.473928 0.176576
v 0.118408 0.505115 0.267267
vn -0.6753 0.5760 0.4606
vn 0.7324 0.6769 -0.0730
vn 0.9666 -0.2272 -0.1187
vn -0.3506 -0.0527 -0.9350
vn 0.1602 -0.9570 0.2418
vn -0.7662 -0.3513 0.5381
vt 0.250000 0.490000
vt 0.250000 0.250000
vt 0.478254 0.324164
vt 0.391068 0.055836
vt 0.108932 0.055836
vt 0.750000 0.490000
vt 0.978254 0.324164
vt 0.891068 0.055836
vt 0.608932 0.055836
vt 0.521746 0.324164
vt 0.021746 0.324164
s 0
f 725/199/650 730/200/650 726/201/650
f 726/201/651 730/200/651 727/202/651
f 727/202/652 730/200/652 728/203/652
f 725/204/653 726/205/653 727/206/653 728/207/653 729/208/653
f 728/203/654 730/200/654 729/209/654
f 729/209/655 730/200/655 725/199/655
o Cone.019
v 0.183136 0.429778 -0.058597
v 0.170093 0.448113 -0.093029
v 0.166599 0.408387 -0.103102
v 0.174346 0.384566 -0.082894
v 0.184566 0.397787 -0.055389
v 0.272899 0.414418 -0.115034
vn 0.3571 0.8738 0.3301
vn -0.1221 0.2540 -0.9595
vn -0.0475 -0.6551 -0.7540
vn -0.9363 -0.0067 0.3511
vn 0.3629 -0.8853 0.2907
vn 0.5423 0.1078 0.8332
vt 0.250000 0.490000
vt 0.250000 0.250000
vt 0.478254 0.324164
vt 0.391068 0.055836
vt 0.108932 0.055836
vt 0.750000 0.490000
vt 0.978254 0.324164
vt 0.891068 0.055836
vt 0.608932 0.055836
vt 0.521746 0.324164
vt 0.021746 0.324164
s 0
f 731/210/656 736/211/656 732/212/656
f 732/212/657 736/211/657 733/213/657
f 733/213/658 736/211/658 734/214/658
f 731/215/659 732/216/659 733/217/659 734/218/659 735/219/659
f 734/214/660 736/211/660 735/220/660
f 735/220/661 736/211/661 731/210/661
o Cone.020
v 0.129110 0.922568 0.135894
v 0.115896 0.939037 0.171193
v 0.122614 0.972675 0.148495
v 0.133435 0.971357 0.118214
v 0.137450 0.940389 0.110426
v 0.225394 0.953134 0.171583
vn 0.1122 -0.8838 0.4543
vn -0.0761 0.5681 0.8194
vn 0.1819 0.9831 0.0222
vn -0.9415 -0.0379 -0.3348
vn 0.5228 0.2710 -0.8082
vn 0.4136 -0.8040 -0.4272
vt 0.250000 0.490000
vt 0.250000 0.250000
vt 0.478254 0.324164
vt 0.391068 0.055836
vt 0.108932 0.055836
vt 0.750000 0.490000
vt 0.978254 0.324164
vt 0.891068 0.055836
vt 0.608932 0.055836
vt 0.521746 0.324164
vt 0.021746 0.324164
s 0
f 737/221/662 742/222/662 738/223/662
f 738/223/663 742/222/663 739/224/663
f 739/224/664 742/222/664 740/225/664
f 737/226/665 738/227/665 739/228/665 740/229/665 741/230/665
f 740/225/666 742/222/666 741/231/666
f 741/231/667 742/222/667 737/221/667
o Cone.021
v 0.153589 1.333791 0.192345
v 0.145581 1.374039 0.189536
v 0.150414 1.363891 0.149970
v 0.157192 1.333921 0.140396
v 0.159154 1.315319 0.166585
v 0.254618 1.364868 0.174853
vn 0.1408 0.0968 0.9853
vn 0.0488 0.9689 -0.2425
vn 0.2153 0.3410 -0.9151
vn -0.9776 -0.1993 -0.0683
vn 0.4228 -0.7236 -0.5456
vn 0.3285 -0.7325 0.5963
vt 0.250000 0.490000
vt 0.250000 0.250000
vt 0.478254 0.324164
vt 0.391068 0.055836
vt 0.108932 0.055836
vt 0.750000 0.490000
vt 0.978254 0.324164
vt 0.891068 0.055836
vt 0.608932 0.055836
vt 0.521746 0.324164
vt 0.021746 0.324164
s 0
f 743/232/668 748/233/668 744/234/668
f 744/234/669 748/233/669 745/235/669
f 745/235/670 748/233/670 746/236/670
f 743/237/671 744/238/671 745/239/671 746/240/671 747/241/671
f 746/236/672 748/233/672 747/242/672
f 747/242/673 748/233/673 743/232/673
o Cone.022
v -0.040391 1.157796 0.188235
v -0.024746 1.194301 0.198935
v 0.008221 1.169950 0.202407
v 0.007263 1.138380 0.196226
v -0.022781 1.130868 0.187467
v -0.038722 1.139584 0.293801
vn -0.9244 0.3730 0.0790
vn 0.4841 0.7252 0.4896
vn 0.8985 -0.1105 0.4248
vn 0.2336 0.1800 -0.9555
vn 0.2104 -0.9713 0.1112
vn -0.8353 -0.5439 -0.0806
vt 0.250000 0.490000
vt 0.250000 0.250000
vt 0.478254 0.324164
vt 0.391068 0.055836
vt 0.108932 0.055836
vt 0.750000 0.490000
vt 0.978254 0.324164
vt 0.891068 0.055836
vt 0.608932 0.055836
vt 0.521746 0.324164
vt 0.021746 0.324164
s 0
f 749/243/674 754/244/674 750/245/674
f 750/245/675 754/244/675 751/246/675
f 751/246/676 754/244/676 752/247/676
f 749/248/677 750/249/677 751/250/677 752/251/677 753/252/677
f 752/247/678 754/244/678 753/253/678
f 753/253/679 754/244/679 749/243/679
o Cone.023
v 0.011670 1.485823 0.381752
v -0.010659 1.500090 0.413212
v 0.024867 1.520087 0.418679
v 0.050153 1.516297 0.399134
v 0.041997 1.495121 0.376312
v 0.058091 1.425908 0.457475
vn -0.6771 -0.7196 -0.1543
vn -0.2947 0.2732 0.9157
vn 0.5812 0.4767 0.6595
vn -0.3324 0.7476 -0.5750
vn 0.9608 -0.0858 -0.2637
vn 0.1106 -0.7453 -0.6575
vt 0.250000 0.490000
vt 0.250000 0.250000
vt 0.478254 0.324164
vt 0.391068 0.055836
vt 0.108932 0.055836
vt 0.750000 0.490000
vt 0.978254 0.324164
vt 0.891068 0.055836
vt 0.608932 0.055836
vt 0.521746 0.324164
vt 0.021746 0.324164
s 0
f 755/254/680 760/255/680 756/256/680
f 756/256/681 760/255/681 757/257/681
f 757/257/682 760/255/682 758/258/682
f 755/259/683 756/260/683 757/261/683 758/262/683 759/263/683
f 758/258/684 760/255/684 759/264/684
f 759/264/685 760/255/685 755/254/685
o Cone.024
v -0.179068 0.400475 0.070366
v -0.169348 0.431395 0.095691
v -0.160704 0.398670 0.119061
v -0.164729 0.368425 0.108822
v -0.176079 0.369541 0.078727
v -0.267063 0.394220 0.131164
vn -0.4654 0.6438 -0.6074
vn 0.0667 0.5915 0.8036
vn 0.1203 -0.3327 0.9353
vn 0.9356 -0.0050 -0.3530
vn -0.2334 -0.9710 0.0520
vn -0.5346 -0.2683 -0.8014
vt 0.250000 0.490000
vt 0.250000 0.250000
vt 0.478254 0.324164
vt 0.391068 0.055836
vt 0.108932 0.055836
vt 0.750000 0.490000
vt 0.978254 0.324164
vt 0.891068 0.055836
vt 0.608932 0.055836
vt 0.521746 0.324164
vt 0.021746 0.324164
s 0
f 761/265/686 766/266/686 762/267/686
f 762/267/687 766/266/687 763/268/687
f 763/268/688 766/266/688 764/269/688
f 761/270/689 762/271/689 763/272/689 764/273/689 765/274/689
f 764/269/690 766/266/690 765/275/690
f 765/275/691 766/266/691 761/265/691
o Cone.025
v 0.088571 1.672902 0.098959
v 0.110070 1.706230 0.088054
v 0.136592 1.676101 0.079073
v 0.129835 1.644991 0.083796
v 0.100157 1.643014 0.096086
v 0.152333 1.674664 0.185039
vn -0.6595 0.5813 0.4766
vn 0.7320 0.6740 -0.0996
vn 0.9619 -0.2311 -0.1460
vn -0.3786 -0.0580 -0.9237
vn 0.1645 -0.9558 0.2436
vn -0.7508 -0.3452 0.5632
vt 0.250000 0.490000
vt 0.250000 0.250000
vt 0.478254 0.324164
vt 0.391068 0.055836
vt 0.108932 0.055836
vt 0.750000 0.490000
vt 0.978254 0.324164
vt 0.891068 0.055836
vt 0.608932 0.055836
vt 0.521746 0.324164
vt 0.021746 0.324164
s 0
f 767/276/692 772/277/692 768/278/692
f 768/278/693 772/277/693 769/279/693
f 769/279/694 772/277/694 770/280/694
f 767/281/695 768/282/695 769/283/695 770/284/695 771/285/695
f 770/280/696 772/277/696 771/286/696
f 771/286/697 772/277/697 767/276/697
o Cone.026
v 0.013991 1.930931 0.109085
v 0.024294 1.970651 0.111907
v 0.058592 1.954423 0.096028
v 0.061607 1.923046 0.089534
v 0.034041 1.908527 0.097604
v 0.075107 1.921223 0.196544
vn -0.7995 0.1664 0.5772
vn 0.4928 0.8471 0.1988
vn 0.9852 0.1200 -0.1223
vn -0.3528 0.1570 -0.9224
vn 0.4483 -0.8910 -0.0717
vn -0.6055 -0.7179 0.3434
vt 0.250000 0.490000
vt 0.250000 0.250000
vt 0.478254 0.324164
vt 0.391068 0.055836
vt 0.108932 0.055836
vt 0.750000 0.490000
vt 0.978254 0.324164
vt 0.891068 0.055836
vt 0.608932 0.055836
vt 0.521746 0.324164
vt 0.021746 0.324164
s 0
f 773/287/698 778/288/698 774/289/698
f 774/289/699 778/288/699 775/290/699
f 775/290/700 778/288/700 776/291/700
f 773/292/701 774/293/701 775/294/701 776/295/701 777/296/701
f 776/291/702 778/288/702 777/297/702
f 777/297/703 778/288/703 773/287/703
o Cone.027
v 0.132038 1.868897 -0.203867
v 0.124921 1.867886 -0.163368
v 0.112366 1.905873 -0.172923
v 0.113510 1.917554 -0.202890
v 0.125668 1.894702 -0.222014
v 0.217363 1.927053 -0.175301
vn 0.5444 -0.8355 0.0748
vn -0.0256 0.2359 0.9714
vn -0.1775 0.9192 0.3515
vn -0.9220 -0.3476 -0.1707
vn 0.1307 0.6763 -0.7250
vn 0.5241 -0.3995 -0.7521
vt 0.250000 0.490000
vt 0.250000 0.250000
vt 0.478254 0.324164
vt 0.391068 0.055836
vt 0.108932 0.055836
vt 0.750000 0.490000
vt 0.978254 0.324164
vt 0.891068 0.055836
vt 0.608932 0.055836
vt 0.521746 0.324164
vt 0.021746 0.324164
s 0
f 779/298/704 784/299/704 780/300/704
f 780/300/705 784/299/705 781/301/705
f 781/301/706 784/299/706 782/302/706
f 779/303/707 780/304/707 781/305/707 782/306/707 783/307/707
f 782/302/708 784/299/708 783/308/708
f 783/308/709 784/299/709 779/298/709
o Cone.028
v -0.146279 1.115430 -0.120188
v -0.157674 1.145030 -0.093999
v -0.160248 1.111603 -0.070169
v -0.153340 1.082042 -0.080856
v -0.144707 1.084407 -0.111769
v -0.251368 1.094927 -0.123998
vn -0.0969 0.6384 -0.7636
vn -0.5016 0.5274 0.6857
vn -0.4132 -0.3935 0.8213
vn 0.9533 0.1231 0.2757
vn -0.0863 -0.9912 -0.1000
vn 0.0850 -0.2569 -0.9627
vt 0.250000 0.490000
vt 0.250000 0.250000
vt 0.478254 0.324164
vt 0.391068 0.055836
vt 0.108932 0.055836
vt 0.750000 0.490000
vt 0.978254 0.324164
vt 0.891068 0.055836
vt 0.608932 0.055836
vt 0.521746 0.324164
vt 0.021746 0.324164
s 0
f 785/309/710 790/310/710 786/311/710
f 786/311/711 790/310/711 787/312/711
f 787/312/712 790/310/712 788/313/712
f 785/314/713 786/315/713 787/316/713 788/317/713 789/318/713
f 788/313/714 790/310/714 789/319/714
f 789/319/715 790/310/715 785/309/715
o Cone.029
v 0.108067 2.241696 -0.443781
v 0.096925 2.277720 -0.460214
v 0.094688 2.252805 -0.492865
v 0.101522 2.221396 -0.491286
v 0.109791 2.214530 -0.460950
v 0.201420 2.262094 -0.492233
vn 0.3220 0.4736 0.8198
vn -0.0657 0.7954 -0.6025
vn 0.0101 -0.0480 -0.9988
vn -0.9563 -0.1972 0.2160
vn 0.3577 -0.8851 -0.2978
vn 0.4873 -0.4442 0.7518
vt 0.250000 0.490000
vt 0.250000 0.250000
vt 0.478254 0.324164
vt 0.391068 0.055836
vt 0.108932 0.055836
vt 0.750000 0.490000
vt 0.978254 0.324164
vt 0.891068 0.055836
vt 0.608932 0.055836
vt 0.521746 0.324164
vt 0.021746 0.324164
s 0
f 791/320/716 796/321/716 792/322/716
f 792/322/717 796/321/717 793/323/717
f 793/323/718 796/321/718 794/324/718
f 791/325/719 792/326/719 793/327/719 794/328/719 795/329/719
f 794/324/720 796/321/720 795/330/720
f 795/330/721 796/321/721 791/320/721
o Cone.030
v 0.057226 2.388386 -0.369903
v 0.075245 2.397415 -0.405759
v 0.082594 2.357049 -0.402859
v 0.072621 2.339294 -0.377938
v 0.056943 2.358661 -0.357570
v 0.157857 2.387921 -0.333138
vn -0.0720 0.9752 0.2094
vn 0.6631 0.0672 -0.7455
vn 0.5869 -0.7517 -0.3007
vn -0.8571 -0.1904 -0.4787
vn 0.0358 -0.7103 0.7030
vn -0.3179 0.3659 0.8747
vt 0.250000 0.490000
vt 0.250000 0.250000
vt 0.478254 0.324164
vt 0.391068 0.055836
vt 0.108932 0.055836
vt 0.750000 0.490000
vt 0.978254 0.324164
vt 0.891068 0.055836
vt 0.608932 0.055836
vt 0.521746 0.324164
vt 0.021746 0.324164
s 0
f 797/331/722 802/332/722 798/333/722
f 798/333/723 802/332/723 799/334/723
f 799/334/724 802/332/724 800/335/724
f 797/336/725 798/337/725 799/338/725 800/339/725 801/340/725
f 800/335/726 802/332/726 801/341/726
f 801/341/727 802/332/727 797/331/727
o Cone.031
v -0.015178 2.203706 0.112321
v 0.013207 2.233163 0.108036
v 0.036735 2.199643 0.111871
v 0.024485 2.170151 0.115860
v -0.007599 2.172661 0.116138
v 0.012249 2.208986 0.215755
vn -0.7009 0.6973 0.1503
vn 0.8033 0.5795 0.1372
vn 0.9067 -0.3435 0.2446
vn -0.0185 -0.1265 -0.9918
vn -0.0699 -0.9326 0.3540
vn -0.9448 -0.1986 0.2607
vt 0.250000 0.490000
vt 0.250000 0.250000
vt 0.478254 0.324164
vt 0.391068 0.055836
vt 0.108932 0.055836
vt 0.750000 0.490000
vt 0.978254 0.324164
vt 0.891068 0.055836
vt 0.608932 0.055836
vt 0.521746 0.324164
vt 0.021746 0.324164
s 0
f 803/342/728 808/343/728 804/344/728
f 804/344/729 808/343/729 805/345/729
f 805/345/730 808/343/730 806/346/730
f 803/347/731 804/348/731 805/349/731 806/350/731 807/351/731
f 806/346/732 808/343/732 807/352/732
f 807/352/733 808/343/733 803/342/733
o Cone.032
v 0.307705 2.343789 0.090207
v 0.341275 2.367468 0.088164
v 0.357312 2.331590 0.100310
v 0.339410 2.305296 0.105200
v 0.308751 2.312835 0.098956
v 0.317481 2.359761 0.195696
vn -0.5778 0.8132 -0.0696
vn 0.8596 0.4597 0.2232
vn 0.7736 -0.4423 0.4537
vn 0.1292 -0.2657 -0.9554
vn -0.2978 -0.8481 0.4383
vn -0.9956 -0.0073 0.0934
vt 0.250000 0.490000
vt 0.250000 0.250000
vt 0.478254 0.324164
vt 0.391068 0.055836
vt 0.108932 0.055836
vt 0.750000 0.490000
vt 0.978254 0.324164
vt 0.891068 0.055836
vt 0.608932 0.055836
vt 0.521746 0.324164
vt 0.021746 0.324164
s 0
f 809/353/734 814/354/734 810/355/734
f 810/355/735 814/354/735 811/356/735
f 811/356/736 814/354/736 812/357/736
f 809/358/737 810/359/737 811/360/737 812/361/737 813/362/737
f 812/357/738 814/354/738 813/363/738
f 813/363/739 814/354/739 809/353/739
o Cone.033
v 0.080611 2.464265 0.050744
v 0.085539 2.496579 0.025777
v 0.098231 2.465691 0.001762
v 0.098598 2.435042 0.011575
v 0.087708 2.434160 0.041848
v 0.186954 2.471573 0.061530
vn -0.1212 0.6184 0.7764
vn 0.3893 0.6597 -0.6428
vn 0.5525 -0.2482 -0.7957
vn -0.9331 -0.1198 -0.3391
vn 0.3350 -0.9376 0.0932
vn -0.0759 -0.2990 0.9512
vt 0.250000 0.490000
vt 0.250000 0.250000
vt 0.478254 0.324164
vt 0.391068 0.055836
vt 0.108932 0.055836
vt 0.750000 0.490000
vt 0.978254 0.324164
vt 0.891068 0.055836
vt 0.608932 0.055836
vt 0.521746 0.324164
vt 0.021746 0.324164
s 0
f 815/364/740 820/365/740 816/366/740
f 816/366/741 820/365/741 817/367/741
f 817/367/742 820/365/742 818/368/742
f 815/369/743 816/370/743 817/371/743 818/372/743 819/373/743
f 818/368/744 820/365/744 819/374/744
f 819/374/745 820/365/745 815/364/745
o Cone.034
v -0.044738 2.593490 0.066865
v -0.019558 2.625092 0.074552
v 0.004017 2.593097 0.085155
v -0.006066 2.562606 0.083063
v -0.036198 2.562848 0.071759
v -0.056868 2.592793 0.173312
vn -0.7694 0.6333 -0.0835
vn 0.6433 0.6220 0.4464
vn 0.7861 -0.2971 0.5419
vn 0.3504 -0.0517 -0.9352
vn -0.1058 -0.9594 0.2614
vn -0.9527 -0.2831 -0.1104
vt 0.250000 0.490000
vt 0.250000 0.250000
vt 0.478254 0.324164
vt 0.391068 0.055836
vt 0.108932 0.055836
vt 0.750000 0.490000
vt 0.978254 0.324164
vt 0.891068 0.055836
vt 0.608932 0.055836
vt 0.521746 0.324164
vt 0.021746 0.324164
s 0
f 821/375/746 826/376/746 822/377/746
f 822/377/747 826/376/747 823/378/747
f 823/378/748 826/376/748 824/379/748
f 821/380/749 822/381/749 823/382/749 824/383/749 825/384/749
f 824/379/750 826/376/750 825/385/750
f 825/385/751 826/376/751 821/375/751
o Cone.035
v 0.509166 2.645080 -0.007575
v 0.496186 2.623216 0.024756
v 0.495818 2.661402 0.040039
v 0.504429 2.687146 0.022752
v 0.512679 2.677059 -0.006675
v 0.601821 2.647111 0.046179
vn 0.2834 -0.8434 -0.4566
vn -0.1034 -0.3704 0.9231
vn 0.0260 0.5513 0.8339
vn -0.9461 0.1125 -0.3038
vn 0.4120 0.8912 -0.1900
vn 0.5021 -0.0308 -0.8643
vt 0.250000 0.490000
vt 0.250000 0.250000
vt 0.478254 0.324164
vt 0.391068 0.055836
vt 0.108932 0.055836
vt 0.750000 0.490000
vt 0.978254 0.324164
vt 0.891068 0.055836
vt 0.608932 0.055836
vt 0.521746 0.324164
vt 0.021746 0.324164
s 0
f 827/386/752 832/387/752 828/388/752
f 828/388/753 832/387/753 829/389/753
f 829/389/754 832/387/754 830/390/754
f 827/391/755 828/392/755 829/393/755 830/394/755 831/395/755
f 830/390/756 832/387/756 831/396/756
f 831/396/757 832/387/757 827/386/757
o Cone.036
v 0.353868 2.541346 -0.052861
v 0.357193 2.568231 -0.021909
v 0.334771 2.538465 -0.004501
v 0.326043 2.511787 -0.020246
v 0.337846 2.513568 -0.050134
v 0.255006 2.581730 -0.061458
vn 0.3382 0.6922 -0.6376
vn -0.2152 0.6087 0.7637
vn -0.6435 -0.2219 0.7326
vn 0.8379 -0.4535 0.3039
vn -0.5876 -0.7602 -0.2773
vn 0.0376 -0.1191 -0.9922
vt 0.250000 0.490000
vt 0.250000 0.250000
vt 0.478254 0.324164
vt 0.391068 0.055836
vt 0.108932 0.055836
vt 0.750000 0.490000
vt 0.978254 0.324164
vt 0.891068 0.055836
vt 0.608932 0.055836
vt 0.521746 0.324164
vt 0.021746 0.324164
s 0
f 833/397/758 838/398/758 834/399/758
f 834/399/759 838/398/759 835/400/759
f 835/400/760 838/398/760 836/401/760
f 833/402/761 834/403/761 835/404/761 836/405/761 837/406/761
f 836/401/762 838/398/762 837/407/762
f 837/407/763 838/398/763 833/397/763
o Cone.037
v 0.467636 2.421046 -0.084431
v 0.438639 2.448253 -0.094959
v 0.420203 2.412669 -0.104218
v 0.434337 2.384091 -0.099830
v 0.463653 2.389268 -0.087600
v 0.484100 2.415722 -0.190162
vn 0.6696 0.7397 0.0670
vn -0.7048 0.4969 -0.5063
vn -0.7142 -0.4372 -0.5466
vn -0.3779 -0.0449 0.9248
vn 0.2489 -0.9487 -0.1951
vn 0.9775 -0.1384 0.1592
vt 0.250000 0.490000
vt 0.250000 0.250000
vt 0.478254 0.324164
vt 0.391068 0.055836
vt 0.108932 0.055836
vt 0.750000 0.490000
vt 0.978254 0.324164
vt 0.891068 0.055836
vt 0.608932 0.055836
vt 0.521746 0.324164
vt 0.021746 0.324164
s 0
f 839/408/764 844/409/764 840/410/764
f 840/410/765 844/409/765 841/411/765
f 841/411/766 844/409/766 842/412/766
f 839/413/767 840/414/767 841/415/767 842/416/767 843/417/767
f 842/412/768 844/409/768 843/418/768
f 843/418/769 844/409/769 839/408/769
o Cone.038
v 0.023187 2.613108 -0.074085
v -0.005892 2.640672 -0.083382
v -0.024894 2.605355 -0.092518
v -0.010868 2.576613 -0.088921
v 0.018848 2.581405 -0.077528
v 0.036381 2.609001 -0.180329
vn 0.6774 0.7335 0.0558
vn -0.7157 0.5088 -0.4783
vn -0.7341 -0.4246 -0.5299
vn -0.3499 -0.0537 0.9353
vn 0.2351 -0.9480 -0.2144
vn 0.9807 -0.1481 0.1275
vt 0.250000 0.490000
vt 0.250000 0.250000
vt 0.478254 0.324164
vt 0.391068 0.055836
vt 0.108932 0.055836
vt 0.750000 0.490000
vt 0.978254 0.324164
vt 0.891068 0.055836
vt 0.608932 0.055836
vt 0.521746 0.324164
vt 0.021746 0.324164
s 0
f 845/419/770 850/420/770 846/421/770
f 846/421/771 850/420/771 847/422/771
f 847/422/772 850/420/772 848/423/772
f 845/424/773 846/425/773 847/426/773 848/427/773 849/428/773
f 848/423/774 850/420/774 849/429/774
f 849/429/775 850/420/775 845/419/775
o Cone.039
v 0.187202 2.330209 -0.102226
v 0.161700 2.361526 -0.094430
v 0.135136 2.331020 -0.101882
v 0.144569 2.301151 -0.109276
v 0.176748 2.300651 -0.109488
v 0.160792 2.349761 -0.204200
vn 0.7640 0.6408 -0.0750
vn -0.7446 0.6643 -0.0650
vn -0.9341 -0.2267 -0.2758
vn 0.0027 -0.2395 0.9709
vn -0.0169 -0.8888 -0.4580
vn 0.9229 -0.2556 -0.2880
vt 0.250000 0.490000
vt 0.250000 0.250000
vt 0.478254 0.324164
vt 0.391068 0.055836
vt 0.108932 0.055836
vt 0.750000 0.490000
vt 0.978254 0.324164
vt 0.891068 0.055836
vt 0.608932 0.055836
vt 0.521746 0.324164
vt 0.021746 0.324164
s 0
f 851/430/776 856/431/776 852/432/776
f 852/432/777 856/431/777 853/433/777
f 853/433/778 856/431/778 854/434/778
f 851/435/779 852/436/779 853/437/779 854/438/779 855/439/779
f 854/434/780 856/431/780 855/440/780
f 855/440/781 856/431/781 851/430/781
o Cone.040
v -0.322965 1.924914 -0.003783
v -0.340168 1.962224 -0.005768
v -0.354711 1.944690 -0.040016
v -0.347370 1.914554 -0.048602
v -0.327750 1.902332 -0.026209
v -0.256457 1.964801 -0.077704
vn 0.6117 0.3205 0.7233
vn -0.3082 0.8935 -0.3266
vn -0.3826 0.1658 -0.9089
vn -0.7916 -0.3379 0.5091
vn 0.2242 -0.7594 -0.6108
vn 0.7496 -0.5395 0.3833
vt 0.250000 0.490000
vt 0.250000 0.250000
vt 0.478254 0.324164
vt 0.391068 0.055836
vt 0.108932 0.055836
vt 0.750000 0.490000
vt 0.978254 0.324164
vt 0.891068 0.055836
vt 0.608932 0.055836
vt 0.521746 0.324164
vt 0.021746 0.324164
s 0
f 857/441/782 862/442/782 858/443/782
f 858/443/783 862/442/783 859/444/783
f 859/444/784 862/442/784 860/445/784
f 857/446/785 858/447/785 859/448/785 860/449/785 861/450/785
f 860/445/786 862/442/786 861/451/786
f 861/451/787 862/442/787 857/441/787
o Cone.041
v -0.072401 2.736959 0.007401
v -0.060076 2.767004 0.032646
v -0.054366 2.733732 0.056146
v -0.060990 2.703917 0.045998
v -0.072136 2.705912 0.015872
v -0.160734 2.738609 0.068008
vn -0.4063 0.6797 -0.6106
vn 0.1163 0.5862 0.8017
vn 0.0889 -0.3386 0.9367
vn 0.9323 -0.0877 -0.3508
vn -0.3172 -0.9468 0.0547
vn -0.5543 -0.2235 -0.8018
vt 0.250000 0.490000
vt 0.250000 0.250000
vt 0.478254 0.324164
vt 0.391068 0.055836
vt 0.108932 0.055836
vt 0.750000 0.490000
vt 0.978254 0.324164
vt 0.891068 0.055836
vt 0.608932 0.055836
vt 0.521746 0.324164
vt 0.021746 0.324164
s 0
f 863/452/788 868/453/788 864/454/788
f 864/454/789 868/453/789 865/455/789
f 865/455/790 868/453/790 866/456/790
f 863/457/791 864/458/791 865/459/791 866/460/791 867/461/791
f 866/456/792 868/453/792 867/462/792
f 867/462/793 868/453/793 863/452/793
o Cone.042
v 0.281723 2.206218 -0.064511
v 0.248311 2.185367 -0.076373
v 0.253961 2.170784 -0.038330
v 0.278038 2.180565 -0.019344
v 0.295195 2.202464 -0.035525
v 0.331908 2.113734 -0.084678
vn 0.1545 0.2898 -0.9445
vn -0.6499 -0.7369 -0.1859
vn -0.1842 -0.7590 0.6245
vn -0.5827 0.7261 0.3649
vn 0.7318 -0.0726 0.6777
vn 0.8060 0.5048 -0.3092
vt 0.250000 0.490000
vt 0.250000 0.250000
vt 0.478254 0.324164
vt 0.391068 0.055836
vt 0.108932 0.055836
vt 0.750000 0.490000
vt 0.978254 0.324164
vt 0.891068 0.055836
vt 0.608932 0.055836
vt 0.521746 0.324164
vt 0.021746 0.324164
s 0
f 869/463/794 874/464/794 870/465/794
f 870/465/795 874/464/795 871/466/795
f 871/466/796 874/464/796 872/467/796
f 869/468/797 870/469/797 871/470/797 872/471/797 873/472/797
f 872/467/798 874/464/798 873/473/798
f 873/473/799 874/464/799 869/463/799
