# Blender 5.1.1
# www.blender.org
mtllib PistaCurva.mtl
o PistaCurva
v -1.015085 1.036400 1.015022
v 1.015236 0.002047 1.015029
v -1.015032 0.002424 -1.015298
v 1.014168 0.002534 -1.013607
v 7.732634 0.002937 1.015036
v 7.733670 0.004380 -1.011286
v -1.015037 0.624455 -8.111292
v 1.012790 0.627396 -8.111167
v 13.133473 0.266216 1.013992
v 13.140296 0.007077 -1.015756
v -1.015036 0.001405 -14.178979
v 1.012668 0.003075 -14.179608
v -3.190176 0.004873 1.015030
v -3.189356 0.004031 -1.014895
v -3.191406 0.627270 -8.111168
v -3.191323 0.002919 -14.179602
v -1.015033 0.005144 3.027828
v 1.014922 0.003757 3.027369
v 7.733680 0.004400 3.027458
v 13.126612 0.293952 3.020363
v -3.189409 0.007080 3.026857
v 12.061366 0.000001 -1.016199
v 10.978939 0.000001 -1.016199
v 9.896511 0.000001 -1.015036
v 8.812023 0.006561 -1.008476
v 8.810604 0.000065 1.015036
v 9.896509 0.000000 1.015036
v 10.978938 0.000013 1.015039
v 12.060930 0.005018 1.014777
v 8.811991 0.006675 3.024591
v 9.889644 0.015021 3.023667
v 10.977812 0.113059 3.020892
v 12.058816 0.271273 3.020219
v 13.138105 0.006497 -6.098242
v 12.061326 0.002306 -6.097808
v 10.978959 0.002306 -6.097808
v 9.902145 0.006495 -6.098242
v 5.492775 1.703833 -1.012531
v 3.252566 0.003609 -1.011843
v 3.253068 0.002492 1.015036
v 5.492781 1.698604 1.015036
v 3.252561 0.003625 3.028020
v 5.492775 1.703846 3.028713
v -1.015038 0.002739 -6.691337
v -1.015038 0.002721 -5.273263
v -1.015038 0.620271 -3.853472
v -1.015038 0.002720 -2.433680
v 1.010097 0.006081 -2.432922
v 1.010703 0.627183 -3.853466
v 1.010085 0.006091 -5.274003
v 1.010091 0.006091 -6.690577
v -3.188904 0.005786 -6.690644
v -3.188899 0.005785 -5.273936
v -3.189471 0.626920 -3.853467
v -3.188900 0.005780 -2.432993
v 13.124779 0.109583 0.339001
v 13.127854 0.088289 -0.338270
v 12.422448 0.066376 1.015262
v 12.780518 0.079568 1.014526
v 12.422174 0.251762 3.031235
v 12.782983 0.251762 3.031235
v 13.143792 0.251762 2.359169
v 13.143792 0.251762 1.687102
v 12.782984 0.000000 -1.015036
v 12.422174 0.000000 -1.015036
v 11.700557 0.000000 -1.015036
v 11.339747 0.000000 -1.015036
v 10.618129 0.000000 -1.015036
v 10.257320 0.000000 -1.015036
v 10.257318 0.000000 1.015036
v 10.618128 0.000001 1.015036
v 11.339767 0.000146 1.015088
v 11.700512 0.001385 1.015020
v 10.257318 0.000000 3.031235
v 10.618498 0.012172 3.015159
v 11.336339 0.114587 3.012051
v 11.706072 0.235479 3.014579
v 12.061403 0.069435 1.687105
v 12.061324 0.074061 2.358578
v 10.978914 0.000265 1.687095
v 10.978834 0.002218 2.358929
v 9.896509 0.000000 1.687103
v 9.896509 0.000000 2.359169
v 9.896509 0.000000 0.338345
v 9.896510 0.000000 -0.338345
v 10.978937 0.000000 0.338345
v 10.978938 0.000000 -0.338365
v 12.061378 0.000174 0.338393
v 12.061359 0.000022 -0.338364
v 11.339747 0.000000 -0.338347
v 11.700556 0.000002 -0.338347
v 11.339747 0.000004 0.338346
v 11.700556 0.000033 0.338348
v 10.257319 0.000000 -0.338345
v 10.618128 0.000000 -0.338347
v 10.257318 0.000000 0.338345
v 10.618128 0.000000 0.338345
v 10.618128 0.000021 1.687099
v 10.618188 0.000336 2.358993
v 10.257318 0.000002 1.687102
v 10.257322 0.000020 2.359159
v 11.701017 0.065674 1.687318
v 11.700701 0.069841 2.359027
v 11.339399 0.003869 1.687052
v 11.339184 0.005932 2.358481
v 12.780692 0.080386 1.687067
v 12.780233 0.083185 2.357826
v 12.422015 0.071213 1.687042
v 12.422010 0.074528 2.358676
v 12.422074 0.000321 -0.338353
v 12.781329 0.005058 -0.338449
v 12.422033 0.001529 0.338329
v 12.780975 0.007411 0.338084
v -1.016046 0.909089 1.014976
v 1.000194 -0.119794 1.015008
v -1.015543 -0.119299 -1.000319
v 1.004348 -0.118304 -1.003817
v 7.692284 -0.117049 1.015038
v 7.693292 -0.115596 -1.011515
v -1.015026 0.501853 -8.130458
v 1.012960 0.504791 -8.130307
v 13.183572 0.156933 1.022055
v 13.148225 -0.112889 -1.011937
v -1.015027 -0.117966 -14.166710
v 1.012805 -0.116296 -14.167339
v -3.161685 -0.115448 1.014989
v -3.175611 -0.115993 -1.000073
v -3.191555 0.504665 -8.130314
v -3.191443 -0.116452 -14.167333
v -1.016079 -0.114364 2.997262
v 1.000086 -0.116254 3.012533
v 7.693304 -0.115578 3.027691
v 13.160711 0.180365 3.038670
v -3.162579 -0.106236 2.997878
v 12.061537 -0.119999 -1.016223
v 10.978881 -0.119999 -1.016238
v 9.896312 -0.119999 -1.015135
v 8.811820 -0.113439 -1.008690
v 8.810471 -0.119936 1.015150
v 9.896393 -0.120000 1.015149
v 10.979111 -0.119987 1.015138
v 12.066596 -0.114850 1.020862
v 8.811926 -0.113324 3.025034
v 9.888353 -0.104974 3.024657
v 10.986736 -0.005939 3.036412
v 12.060096 0.155568 3.052387
v 13.138733 -0.113502 -6.098319
v 12.061640 -0.117694 -6.097874
v 10.978843 -0.117694 -6.097888
v 9.901913 -0.113505 -6.098346
v 5.492802 1.553262 -1.012795
v 3.292922 -0.116380 -1.011958
v 3.293426 -0.117499 1.015047
v 5.492801 1.548032 1.015038
v 3.292916 -0.116370 3.028156
v 5.492803 1.553274 3.028980
v -1.015023 -0.117261 -6.716446
v -1.015021 -0.117279 -5.248236
v -1.015017 0.489355 -3.853472
v -1.015035 -0.117254 -2.458768
v 1.010300 -0.113889 -2.458007
v 1.011046 0.496269 -3.853466
v 1.010339 -0.113909 -5.248973
v 1.010289 -0.113906 -6.715697
v -3.189074 -0.114211 -6.715767
v -3.189119 -0.114214 -5.248905
v -3.189772 0.496005 -3.853467
v -3.189100 -0.114202 -2.458063
v 13.163573 -0.004050 0.349497
v 13.151190 -0.029629 -0.333343
v 12.429384 -0.053382 1.021496
v 12.808410 -0.039726 1.022291
v 12.421136 0.135843 3.062376
v 12.801167 0.134402 3.055819
v 13.186710 0.139383 2.368576
v 13.196056 0.143728 1.686473
v 12.787347 -0.120252 -1.013003
v 12.422698 -0.120000 -1.014947
v 11.700558 -0.120000 -1.015063
v 11.339747 -0.120000 -1.015063
v 10.618012 -0.120000 -1.015088
v 10.257204 -0.120000 -1.015088
v 10.257319 -0.120000 1.015037
v 10.618140 -0.119999 1.015043
v 11.342592 -0.119917 1.016727
v 11.703645 -0.118652 1.019570
v 10.257108 -0.120016 3.032437
v 10.627948 -0.107637 3.021201
v 11.351579 -0.003229 3.034169
v 11.723228 0.119502 3.042865
v 12.064755 -0.050576 1.691887
v 12.062446 -0.045883 2.375313
v 10.979473 -0.119735 1.687331
v 10.983745 -0.117904 2.366828
v 9.896461 -0.120000 1.687426
v 9.895835 -0.120006 2.359827
v 9.896326 -0.120000 0.338249
v 9.896327 -0.120000 -0.338442
v 10.978944 -0.120000 0.338349
v 10.978938 -0.120000 -0.338365
v 12.064207 -0.119887 0.340106
v 12.061448 -0.119978 -0.338322
v 11.339749 -0.120000 -0.338346
v 11.700564 -0.119998 -0.338341
v 11.339808 -0.119996 0.338384
v 11.700773 -0.119967 0.338523
v 10.257319 -0.120000 -0.338345
v 10.618128 -0.120000 -0.338347
v 10.257318 -0.120000 0.338345
v 10.618129 -0.120000 0.338346
v 10.618241 -0.119979 1.687164
v 10.623037 -0.119820 2.362087
v 10.257335 -0.119998 1.687111
v 10.257241 -0.119991 2.359767
v 11.709444 -0.054286 1.692045
v 11.715370 -0.049724 2.373659
v 11.347642 -0.116138 1.688889
v 11.352270 -0.113962 2.369753
v 12.809787 -0.038854 1.687012
v 12.803343 -0.036574 2.370507
v 12.426406 -0.048772 1.689024
v 12.422328 -0.045417 2.374829
v 12.422796 -0.119678 -0.338116
v 12.793695 -0.114965 -0.335763
v 12.425946 -0.118480 0.343008
v 12.801826 -0.112291 0.346464
vn 0.2398 0.9408 -0.2396
vn 0.6039 0.7970 0.0015
vn -0.0015 0.9161 0.4009
vn -0.3784 0.9130 -0.1523
vn -0.0011 0.9948 -0.1022
vn 0.0010 0.9948 -0.1022
vn 0.0013 0.9161 0.4010
vn -0.2237 0.9445 -0.2408
vn -0.0001 1.0000 -0.0007
vn -0.2236 0.9443 0.2415
vn 0.2399 0.9405 0.2406
vn 0.0003 1.0000 -0.0020
vn 0.0295 0.9624 -0.2700
vn -0.0093 0.9863 -0.1646
vn 0.0207 0.9997 -0.0111
vn 0.0008 1.0000 -0.0054
vn 0.0003 1.0000 0.0020
vn 0.0031 1.0000 0.0016
vn -0.0000 1.0000 -0.0000
vn -0.0052 1.0000 -0.0046
vn 0.0019 1.0000 0.0009
vn -0.0000 1.0000 0.0005
vn -0.0052 1.0000 0.0006
vn 0.6039 0.7970 -0.0015
vn -0.6041 0.7969 -0.0013
vn -0.0003 1.0000 0.0004
vn -0.6041 0.7969 0.0013
vn 0.0011 1.0000 0.0007
vn 0.0021 0.9166 0.3998
vn 0.0021 0.9166 -0.3998
vn 0.0014 1.0000 -0.0000
vn -0.0009 1.0000 0.0014
vn -0.0024 0.9166 0.3997
vn -0.0024 0.9166 -0.3997
vn -0.0017 1.0000 -0.0000
vn -0.0002 1.0000 -0.0001
vn -0.0018 1.0000 -0.0011
vn -0.1400 0.9859 -0.0918
vn -0.0175 0.9998 -0.0089
vn -0.0004 1.0000 -0.0002
vn -0.0029 1.0000 -0.0017
vn -0.0005 1.0000 -0.0002
vn -0.0521 0.9628 -0.2651
vn -0.2393 0.9504 -0.1987
vn -0.0103 0.9954 -0.0953
vn -0.0111 0.9999 -0.0065
vn -0.0868 0.9950 -0.0503
vn -0.1713 0.9852 -0.0046
vn -0.0052 1.0000 -0.0030
vn -0.0102 0.9999 -0.0030
vn -0.2842 0.9466 -0.1526
vn -0.0120 0.9685 -0.2488
vn -0.4472 0.8944 0.0126
vn -0.4237 0.9058 -0.0020
vn -0.0312 0.9995 -0.0042
vn -0.0249 0.9997 -0.0046
vn -0.0870 0.9949 -0.0513
vn -0.0031 1.0000 -0.0059
vn -0.1270 0.9898 -0.0644
vn -0.2593 0.9656 -0.0175
vn -0.0004 1.0000 -0.0003
vn -0.0066 1.0000 -0.0040
vn -0.0023 1.0000 -0.0010
vn -0.0148 0.9999 -0.0026
vn -0.0864 0.9949 -0.0512
vn -0.0266 0.9946 -0.1007
vn -0.2394 -0.9410 0.2393
vn -0.6039 -0.7970 -0.0015
vn 0.0015 -0.9161 -0.4009
vn 0.3775 -0.9137 0.1508
vn 0.0011 -0.9948 0.1022
vn -0.0010 -0.9948 0.1022
vn -0.0013 -0.9161 -0.4010
vn 0.2240 -0.9445 0.2404
vn 0.0005 -1.0000 0.0012
vn 0.2236 -0.9443 -0.2415
vn -0.2395 -0.9405 -0.2410
vn -0.0003 -1.0000 0.0020
vn -0.0293 -0.9625 0.2698
vn 0.0088 -0.9863 0.1646
vn -0.0207 -0.9997 0.0111
vn -0.0008 -1.0000 0.0054
vn -0.0003 -1.0000 -0.0020
vn -0.0031 -1.0000 -0.0016
vn -0.0000 -1.0000 -0.0000
vn 0.0053 -1.0000 0.0046
vn -0.0019 -1.0000 -0.0009
vn -0.0000 -1.0000 -0.0005
vn 0.0052 -1.0000 -0.0007
vn -0.6039 -0.7970 0.0015
vn 0.6041 -0.7969 0.0013
vn 0.0009 -1.0000 -0.0006
vn 0.6041 -0.7969 -0.0013
vn -0.0015 -1.0000 -0.0013
vn -0.0021 -0.9166 -0.3998
vn -0.0021 -0.9166 0.3998
vn -0.0014 -1.0000 -0.0000
vn 0.0011 -1.0000 -0.0022
vn 0.0024 -0.9166 -0.3997
vn 0.0024 -0.9166 0.3997
vn 0.0017 -1.0000 -0.0000
vn 0.0001 -1.0000 0.0001
vn 0.0018 -1.0000 0.0010
vn 0.1395 -0.9860 0.0913
vn 0.0171 -0.9998 0.0091
vn 0.0004 -1.0000 0.0002
vn 0.0030 -1.0000 0.0014
vn 0.0003 -1.0000 0.0001
vn 0.0519 -0.9629 0.2649
vn 0.2385 -0.9507 0.1983
vn 0.0103 -0.9954 0.0953
vn 0.0107 -0.9999 0.0068
vn 0.0865 -0.9950 0.0497
vn 0.1713 -0.9852 0.0035
vn 0.0050 -1.0000 0.0030
vn 0.0102 -0.9999 0.0029
vn 0.2864 -0.9457 0.1538
vn 0.0130 -0.9685 0.2485
vn 0.4458 -0.8950 -0.0130
vn 0.4223 -0.9065 0.0035
vn 0.0309 -0.9995 0.0041
vn 0.0246 -0.9997 0.0043
vn 0.0870 -0.9949 0.0515
vn 0.0032 -1.0000 0.0059
vn 0.1274 -0.9898 0.0638
vn 0.2597 -0.9655 0.0161
vn 0.0004 -1.0000 0.0003
vn 0.0060 -1.0000 0.0041
vn 0.0024 -1.0000 0.0009
vn 0.0146 -0.9999 0.0027
vn 0.0861 -0.9950 0.0510
vn 0.0256 -0.9946 0.1009
vn -0.0014 -0.0403 -0.9992
vn 1.0000 0.0011 0.0024
vn 0.9915 0.1300 -0.0088
vn 0.0026 0.0014 -1.0000
vn -0.0002 -0.1022 -0.9948
vn 1.0000 0.0013 -0.0002
vn -0.9849 -0.1729 0.0033
vn -0.9984 -0.0565 0.0045
vn -1.0000 0.0011 -0.0001
vn 0.0002 -0.1022 -0.9948
vn -0.0037 -0.1860 0.9825
vn 0.0018 0.0016 1.0000
vn 0.0158 0.1860 0.9824
vn -0.0007 -0.2478 0.9688
vn -0.9731 -0.2305 0.0006
vn 0.9047 0.4259 -0.0066
vn -0.0060 0.0013 -1.0000
vn 0.0025 0.0024 1.0000
vn 0.0006 0.0060 1.0000
vn -0.0532 0.0857 0.9949
vn -0.0472 0.2487 0.9674
vn -0.0004 0.0006 -1.0000
vn -0.0000 0.0006 -1.0000
vn 0.0004 0.0008 -1.0000
vn -1.0000 0.0018 -0.0011
vn 0.9994 0.0356 -0.0012
vn 0.0017 0.0016 -1.0000
vn -0.0013 0.0012 -1.0000
vn -0.0036 -0.0615 0.9981
vn -0.0013 0.0013 1.0000
vn 0.9992 -0.0399 0.0005
vn 1.0000 0.0020 0.0014
vn 1.0000 0.0022 -0.0014
vn 1.0000 0.0019 -0.0000
vn -1.0000 0.0009 0.0022
vn -1.0000 0.0016 -0.0000
vn -1.0000 0.0019 -0.0013
vn -1.0000 0.0019 0.0013
vn 0.9267 0.3608 -0.1048
vn 0.9660 0.2582 -0.0155
vn -0.0137 0.2636 0.9645
vn 0.0091 0.2330 0.9724
vn 0.9461 0.3237 0.0105
vn 0.9179 0.3967 0.0076
vn -0.0205 0.0093 0.9997
vn 0.0362 0.0316 0.9988
vn 0.0142 0.1584 0.9873
vn -0.0803 0.1994 0.9766
vt 0.000000 0.000000
vt 1.000000 0.000000
vt 1.000000 1.000000
vt 0.000000 1.000000
vt 1.000000 0.333333
vt 1.000000 0.333333
vt 1.000000 0.666667
vt 1.000000 0.666667
s 0
f 1/1/1 2/2/1 4/3/1 3/4/1
f 38/3/2 41/2/2 5/2/2 6/3/2
f 44/4/3 51/3/3 8/3/3 7/4/3
f 113/5/4 59/2/4 9/2/4 56/6/4
f 7/4/5 8/3/5 12/3/5 11/4/5
f 7/4/6 11/4/6 16/4/6 15/4/6
f 44/4/7 7/4/7 15/4/7 52/4/7
f 1/1/8 3/4/8 14/4/8 13/1/8
f 40/2/9 2/2/9 18/2/9 42/2/9
f 1/1/10 13/1/10 21/1/10 17/1/10
f 2/2/11 1/1/11 17/1/11 18/2/11
f 26/2/12 5/2/12 19/2/12 30/2/12
f 109/2/13 79/2/13 33/2/13 60/2/13
f 105/2/14 81/2/14 32/2/14 76/2/14
f 101/2/15 83/2/15 31/2/15 74/2/15
f 27/2/16 26/2/16 30/2/16 31/2/16 83/2/16 82/2/16
f 6/3/17 5/2/17 26/2/17 25/3/17
f 25/3/18 26/2/18 27/2/18 84/6/18 85/7/18 24/3/18
f 97/5/19 71/2/19 28/2/19 86/6/19
f 93/5/20 73/2/20 29/2/20 88/6/20
f 24/3/21 69/3/21 68/3/21 23/3/21 36/3/21 37/3/21
f 23/3/22 67/3/22 66/3/22 22/3/22 35/3/22 36/3/22
f 22/3/23 65/3/23 64/3/23 10/3/23 34/3/23 35/3/23
f 5/2/24 41/2/24 43/2/24 19/2/24
f 41/2/25 40/2/25 42/2/25 43/2/25
f 4/3/26 2/2/26 40/2/26 39/3/26
f 39/3/27 40/2/27 41/2/27 38/3/27
f 3/4/28 47/4/28 55/4/28 14/4/28
f 47/4/29 46/4/29 54/4/29 55/4/29
f 46/4/30 45/4/30 53/4/30 54/4/30
f 45/4/31 44/4/31 52/4/31 53/4/31
f 3/4/32 4/3/32 48/3/32 47/4/32
f 47/4/33 48/3/33 49/3/33 46/4/33
f 46/4/34 49/3/34 50/3/34 45/4/34
f 45/4/35 50/3/35 51/3/35 44/4/35
f 66/3/19 91/8/19 89/7/19 22/3/19
f 91/8/36 93/5/36 88/6/36 89/7/36
f 23/3/19 87/7/19 90/8/19 67/3/19
f 67/3/19 90/8/19 91/8/19 66/3/19
f 87/7/19 86/6/19 92/5/19 90/8/19
f 90/8/19 92/5/19 93/5/19 91/8/19
f 86/6/36 28/2/36 72/2/36 92/5/36
f 92/5/37 72/2/37 73/2/37 93/5/37
f 68/3/19 95/8/19 87/7/19 23/3/19
f 95/8/19 97/5/19 86/6/19 87/7/19
f 24/3/19 85/7/19 94/8/19 69/3/19
f 69/3/19 94/8/19 95/8/19 68/3/19
f 85/7/19 84/6/19 96/5/19 94/8/19
f 94/8/19 96/5/19 97/5/19 95/8/19
f 84/6/19 27/2/19 70/2/19 96/5/19
f 96/5/19 70/2/19 71/2/19 97/5/19
f 81/2/38 99/2/38 75/2/38 32/2/38
f 99/2/39 101/2/39 74/2/39 75/2/39
f 28/2/40 71/2/40 98/2/40 80/2/40
f 80/2/41 98/2/41 99/2/41 81/2/41
f 71/2/19 70/2/19 100/2/19 98/2/19
f 98/2/42 100/2/42 101/2/42 99/2/42
f 70/2/19 27/2/19 82/2/19 100/2/19
f 100/2/19 82/2/19 83/2/19 101/2/19
f 79/2/43 103/2/43 77/2/43 33/2/43
f 103/2/44 105/2/44 76/2/44 77/2/44
f 29/2/45 73/2/45 102/2/45 78/2/45
f 78/2/46 102/2/46 103/2/46 79/2/46
f 73/2/47 72/2/47 104/2/47 102/2/47
f 102/2/48 104/2/48 105/2/48 103/2/48
f 72/2/49 28/2/49 80/2/49 104/2/49
f 104/2/50 80/2/50 81/2/50 105/2/50
f 62/2/51 107/2/51 61/2/51 20/2/51
f 107/2/52 109/2/52 60/2/52 61/2/52
f 9/2/53 59/2/53 106/2/53 63/2/53
f 63/2/54 106/2/54 107/2/54 62/2/54
f 59/2/55 58/2/55 108/2/55 106/2/55
f 106/2/56 108/2/56 109/2/56 107/2/56
f 58/2/57 29/2/57 78/2/57 108/2/57
f 108/2/58 78/2/58 79/2/58 109/2/58
f 64/3/59 111/8/59 57/7/59 10/3/59
f 111/8/60 113/5/60 56/6/60 57/7/60
f 22/3/61 89/7/61 110/8/61 65/3/61
f 65/3/62 110/8/62 111/8/62 64/3/62
f 89/7/63 88/6/63 112/5/63 110/8/63
f 110/8/64 112/5/64 113/5/64 111/8/64
f 88/6/65 29/2/65 58/2/65 112/5/65
f 112/5/66 58/2/66 59/2/66 113/5/66
f 114/1/67 116/4/67 117/3/67 115/2/67
f 151/3/68 119/3/68 118/2/68 154/2/68
f 157/4/69 120/4/69 121/3/69 164/3/69
f 226/5/70 169/6/70 122/2/70 172/2/70
f 120/4/71 124/4/71 125/3/71 121/3/71
f 120/4/72 128/4/72 129/4/72 124/4/72
f 157/4/73 165/4/73 128/4/73 120/4/73
f 114/1/74 126/1/74 127/4/74 116/4/74
f 153/2/75 155/2/75 131/2/75 115/2/75
f 114/1/76 130/1/76 134/1/76 126/1/76
f 115/2/77 131/2/77 130/1/77 114/1/77
f 139/2/78 143/2/78 132/2/78 118/2/78
f 222/2/79 173/2/79 146/2/79 192/2/79
f 218/2/80 189/2/80 145/2/80 194/2/80
f 214/2/81 187/2/81 144/2/81 196/2/81
f 140/2/82 195/2/82 196/2/82 144/2/82 143/2/82 139/2/82
f 119/3/83 138/3/83 139/2/83 118/2/83
f 138/3/84 137/3/84 198/7/84 197/6/84 140/2/84 139/2/84
f 210/5/85 199/6/85 141/2/85 184/2/85
f 206/5/86 201/6/86 142/2/86 186/2/86
f 137/3/87 150/3/87 149/3/87 136/3/87 181/3/87 182/3/87
f 136/3/88 149/3/88 148/3/88 135/3/88 179/3/88 180/3/88
f 135/3/89 148/3/89 147/3/89 123/3/89 177/3/89 178/3/89
f 118/2/90 132/2/90 156/2/90 154/2/90
f 154/2/91 156/2/91 155/2/91 153/2/91
f 117/3/92 152/3/92 153/2/92 115/2/92
f 152/3/93 151/3/93 154/2/93 153/2/93
f 116/4/94 127/4/94 168/4/94 160/4/94
f 160/4/95 168/4/95 167/4/95 159/4/95
f 159/4/96 167/4/96 166/4/96 158/4/96
f 158/4/97 166/4/97 165/4/97 157/4/97
f 116/4/98 160/4/98 161/3/98 117/3/98
f 160/4/99 159/4/99 162/3/99 161/3/99
f 159/4/100 158/4/100 163/3/100 162/3/100
f 158/4/101 157/4/101 164/3/101 163/3/101
f 179/3/85 135/3/85 202/7/85 204/8/85
f 204/8/102 202/7/102 201/6/102 206/5/102
f 136/3/85 180/3/85 203/8/85 200/7/85
f 180/3/85 179/3/85 204/8/85 203/8/85
f 200/7/85 203/8/85 205/5/85 199/6/85
f 203/8/85 204/8/85 206/5/85 205/5/85
f 199/6/102 205/5/102 185/2/102 141/2/102
f 205/5/103 206/5/103 186/2/103 185/2/103
f 181/3/85 136/3/85 200/7/85 208/8/85
f 208/8/85 200/7/85 199/6/85 210/5/85
f 137/3/85 182/3/85 207/8/85 198/7/85
f 182/3/85 181/3/85 208/8/85 207/8/85
f 198/7/85 207/8/85 209/5/85 197/6/85
f 207/8/85 208/8/85 210/5/85 209/5/85
f 197/6/85 209/5/85 183/2/85 140/2/85
f 209/5/85 210/5/85 184/2/85 183/2/85
f 194/2/104 145/2/104 188/2/104 212/2/104
f 212/2/105 188/2/105 187/2/105 214/2/105
f 141/2/106 193/2/106 211/2/106 184/2/106
f 193/2/107 194/2/107 212/2/107 211/2/107
f 184/2/85 211/2/85 213/2/85 183/2/85
f 211/2/108 212/2/108 214/2/108 213/2/108
f 183/2/85 213/2/85 195/2/85 140/2/85
f 213/2/85 214/2/85 196/2/85 195/2/85
f 192/2/109 146/2/109 190/2/109 216/2/109
f 216/2/110 190/2/110 189/2/110 218/2/110
f 142/2/111 191/2/111 215/2/111 186/2/111
f 191/2/112 192/2/112 216/2/112 215/2/112
f 186/2/113 215/2/113 217/2/113 185/2/113
f 215/2/114 216/2/114 218/2/114 217/2/114
f 185/2/115 217/2/115 193/2/115 141/2/115
f 217/2/116 218/2/116 194/2/116 193/2/116
f 175/2/117 133/2/117 174/2/117 220/2/117
f 220/2/118 174/2/118 173/2/118 222/2/118
f 122/2/119 176/2/119 219/2/119 172/2/119
f 176/2/120 175/2/120 220/2/120 219/2/120
f 172/2/121 219/2/121 221/2/121 171/2/121
f 219/2/122 220/2/122 222/2/122 221/2/122
f 171/2/123 221/2/123 191/2/123 142/2/123
f 221/2/124 222/2/124 192/2/124 191/2/124
f 177/3/125 123/3/125 170/7/125 224/8/125
f 224/8/126 170/7/126 169/6/126 226/5/126
f 135/3/127 178/3/127 223/8/127 202/7/127
f 178/3/128 177/3/128 224/8/128 223/8/128
f 202/7/129 223/8/129 225/5/129 201/6/129
f 223/8/130 224/8/130 226/5/130 225/5/130
f 201/6/131 225/5/131 171/2/131 142/2/131
f 225/5/132 226/5/132 172/2/132 171/2/132
f 4/3/133 39/3/133 152/3/133 117/3/133
f 8/3/134 51/3/134 164/3/134 121/3/134
f 10/3/135 57/7/135 170/7/135 123/3/135
f 6/3/136 25/3/136 138/3/136 119/3/136
f 11/4/137 12/3/137 125/3/137 124/4/137
f 12/3/138 8/3/138 121/3/138 125/3/138
f 13/1/139 14/4/139 127/4/139 126/1/139
f 14/4/140 55/4/140 168/4/140 127/4/140
f 15/4/141 16/4/141 129/4/141 128/4/141
f 16/4/142 11/4/142 124/4/142 129/4/142
f 18/2/143 17/1/143 130/1/143 131/2/143
f 19/2/144 43/2/144 156/2/144 132/2/144
f 20/2/145 61/2/145 174/2/145 133/2/145
f 17/1/146 21/1/146 134/1/146 130/1/146
f 21/1/147 13/1/147 126/1/147 134/1/147
f 9/2/148 63/2/148 176/2/148 122/2/148
f 25/3/149 24/3/149 137/3/149 138/3/149
f 30/2/150 19/2/150 132/2/150 143/2/150
f 31/2/151 30/2/151 143/2/151 144/2/151
f 32/2/152 75/2/152 188/2/152 145/2/152
f 33/2/153 77/2/153 190/2/153 146/2/153
f 35/3/154 34/3/154 147/3/154 148/3/154
f 36/3/155 35/3/155 148/3/155 149/3/155
f 37/3/156 36/3/156 149/3/156 150/3/156
f 24/3/157 37/3/157 150/3/157 137/3/157
f 34/3/158 10/3/158 123/3/158 147/3/158
f 38/3/159 6/3/159 119/3/159 151/3/159
f 39/3/160 38/3/160 151/3/160 152/3/160
f 42/2/161 18/2/161 131/2/161 155/2/161
f 43/2/162 42/2/162 155/2/162 156/2/162
f 48/3/163 4/3/163 117/3/163 161/3/163
f 49/3/164 48/3/164 161/3/164 162/3/164
f 50/3/165 49/3/165 162/3/165 163/3/165
f 51/3/166 50/3/166 163/3/166 164/3/166
f 52/4/167 15/4/167 128/4/167 165/4/167
f 53/4/168 52/4/168 165/4/168 166/4/168
f 54/4/169 53/4/169 166/4/169 167/4/169
f 55/4/170 54/4/170 167/4/170 168/4/170
f 56/6/171 9/2/171 122/2/171 169/6/171
f 57/7/172 56/6/172 169/6/172 170/7/172
f 60/2/173 33/2/173 146/2/173 173/2/173
f 61/2/174 60/2/174 173/2/174 174/2/174
f 62/2/175 20/2/175 133/2/175 175/2/175
f 63/2/176 62/2/176 175/2/176 176/2/176
f 74/2/177 31/2/177 144/2/177 187/2/177
f 75/2/178 74/2/178 187/2/178 188/2/178
f 76/2/179 32/2/179 145/2/179 189/2/179
f 77/2/180 76/2/180 189/2/180 190/2/180
o PistaCurva_bordas
v 1.014168 0.002534 -1.013607
v 7.733670 0.004380 -1.011286
v 1.012790 0.627396 -8.111167
v 13.133473 0.266216 1.013992
v 13.140296 0.007077 -1.015756
v -1.015036 0.001405 -14.178979
v 1.012668 0.003075 -14.179608
v -3.190176 0.004873 1.015030
v -3.189356 0.004031 -1.014895
v -3.191406 0.627270 -8.111168
v -3.191323 0.002919 -14.179602
v -1.015033 0.005144 3.027828
v 1.014922 0.003757 3.027369
v 7.733680 0.004400 3.027458
v 13.126612 0.293952 3.020363
v -3.189409 0.007080 3.026857
v 9.896511 0.000001 -1.015036
v 8.812023 0.006561 -1.008476
v 8.811991 0.006675 3.024591
v 9.889644 0.015021 3.023667
v 10.977812 0.113059 3.020892
v 12.058816 0.271273 3.020219
v 13.138105 0.006497 -6.098242
v 12.061326 0.002306 -6.097808
v 10.978959 0.002306 -6.097808
v 9.902145 0.006495 -6.098242
v 5.492775 1.703833 -1.012531
v 3.252566 0.003609 -1.011843
v 3.252561 0.003625 3.028020
v 5.492775 1.703846 3.028713
v 1.014935 0.295680 -1.014935
v 7.730881 0.295680 -1.014935
v 1.014935 0.921118 -8.110315
v 13.142478 0.547417 1.014935
v 13.142478 0.295680 -1.014935
v -1.014935 0.295680 -14.178831
v 1.014935 0.295680 -14.178831
v -3.193210 0.295680 1.014935
v -3.193210 0.295680 -1.014935
v -3.193210 0.921118 -8.110315
v -3.193210 0.295680 -14.178831
v -1.014935 0.295680 3.030932
v 1.014935 0.295680 3.030932
v 7.730881 0.295680 3.030932
v 13.142478 0.547417 3.030932
v -3.193210 0.295680 3.030932
v 9.895521 0.295680 -1.014935
v 8.813201 0.295680 -1.014935
v 8.813200 0.295680 3.030932
v 9.895520 0.295680 3.030932
v 10.977839 0.295680 3.030932
v 12.060159 0.547417 3.030932
v 13.142478 0.295680 -6.098723
v 12.060159 0.295680 -6.098723
v 10.977840 0.295680 -6.098723
v 9.895521 0.295680 -6.098723
v 5.492232 1.998449 -1.014935
v 3.253583 0.295680 -1.014935
v 3.253584 0.295680 3.030932
v 5.492232 1.998449 3.030932
v 1.010097 0.006081 -2.432922
v 1.010703 0.627183 -3.853466
v 1.010085 0.006091 -5.274003
v 1.010091 0.006091 -6.690577
v -3.188904 0.005786 -6.690644
v -3.188899 0.005785 -5.273936
v -3.189471 0.626920 -3.853467
v -3.188900 0.005780 -2.432993
v 1.014935 0.295680 -2.434011
v 1.014935 0.921118 -3.853087
v 1.014935 0.295680 -5.272164
v 1.014935 0.295680 -6.691239
v -3.193210 0.295680 -6.691239
v -3.193210 0.295680 -5.272164
v -3.193210 0.921118 -3.853087
v -3.193210 0.295680 -2.434011
v 13.124779 0.109583 0.339001
v 13.127854 0.088289 -0.338270
v 12.422174 0.251762 3.031235
v 12.782983 0.251762 3.031235
v 13.143792 0.251762 2.359169
v 13.143792 0.251762 1.687102
v 10.257318 0.000000 3.031235
v 10.618498 0.012172 3.015159
v 11.336339 0.114587 3.012051
v 11.706072 0.235479 3.014579
v 1.133831 0.000477 -1.133698
v 7.733436 0.002601 -1.131275
v 1.132784 0.626203 -8.111405
v 13.253442 0.262973 1.014502
v 13.260270 0.004025 -1.015397
v -1.015037 0.001594 -14.298979
v 1.128587 0.002400 -14.304455
v -3.310168 0.003455 1.015030
v -3.309346 0.002480 -1.014917
v -3.311403 0.626243 -8.111374
v -3.307276 0.002385 -14.304381
v -1.015040 0.003714 3.147820
v 1.014920 0.002405 3.147361
v 7.733469 0.002685 3.147448
v 13.243736 0.291161 3.143270
v -3.309403 0.004178 3.146759
v 9.776281 -0.002856 -1.134325
v 8.811919 0.004864 -1.128465
v 8.812103 0.004230 3.144567
v 9.889928 0.011813 3.143625
v 10.978761 0.107661 3.140785
v 12.059559 0.266723 3.140172
v 13.257414 0.004854 -6.218932
v 12.061315 0.001975 -6.217808
v 10.978971 0.001975 -6.217808
v 9.783115 0.004656 -6.219177
v 5.492736 1.702649 -1.132529
v 3.252904 0.002622 -1.131839
v 3.252837 0.002398 3.148014
v 5.492737 1.702736 3.148711
v 1.134820 0.293623 -1.134803
v 7.730410 0.294088 -1.134925
v 1.134930 0.919979 -8.110493
v 13.262451 0.544360 1.015414
v 13.262448 0.292485 -1.014544
v -1.014935 0.295869 -14.298831
v 1.139531 0.294925 -14.294949
v -3.313202 0.294263 1.014935
v -3.313200 0.294128 -1.014957
v -3.313207 0.920142 -8.110469
v -3.317734 0.295079 -14.294991
v -1.014942 0.294250 3.150923
v 1.014933 0.294328 3.150924
v 7.730444 0.294156 3.150923
v 13.263081 0.544630 3.150107
v -3.313124 0.292778 3.150914
v 9.775755 0.292825 -1.134685
v 8.813096 0.293985 -1.134924
v 8.813312 0.293231 3.150908
v 9.895808 0.292467 3.150889
v 10.978860 0.289983 3.150810
v 12.060828 0.543173 3.150898
v 13.262961 0.294027 -6.218232
v 12.060147 0.295349 -6.218723
v 10.977852 0.295349 -6.218723
v 9.774775 0.293822 -6.217938
v 5.492196 1.997265 -1.134932
v 3.254093 0.294646 -1.134930
v 3.254034 0.294514 3.150926
v 5.492195 1.997339 3.150930
v 1.130088 0.004626 -2.433358
v 1.130691 0.625314 -3.853465
v 1.130070 0.004141 -5.273667
v 1.130078 0.004325 -6.690795
v -3.308894 0.004226 -6.690833
v -3.308887 0.004055 -5.273639
v -3.309462 0.625265 -3.853466
v -3.308889 0.004109 -2.433302
v 1.134924 0.294127 -2.434531
v 1.134923 0.919250 -3.853087
v 1.134919 0.293749 -5.271719
v 1.134923 0.293991 -6.691528
v -3.313201 0.294191 -6.691488
v -3.313198 0.293968 -5.271770
v -3.313201 0.919463 -3.853087
v -3.313199 0.294012 -2.434413
v 13.244677 0.104695 0.339776
v 13.247752 0.083401 -0.337495
v 12.422164 0.250345 3.151227
v 12.782973 0.250345 3.151227
v 13.263784 0.250387 2.359376
v 13.263784 0.250387 1.687310
v 10.257826 -0.003552 3.151182
v 10.619005 0.008620 3.135106
v 11.337808 0.107021 3.131804
v 11.707541 0.227913 3.134331
vn -1.0000 0.0096 0.0014
vn 0.0001 0.0111 -0.9999
vn -0.0001 0.0114 -0.9999
vn -0.9991 0.0407 -0.0065
vn -0.0065 0.0088 -0.9999
vn 0.0071 0.0098 -0.9999
vn -0.0013 0.0174 0.9998
vn 0.0001 0.0118 -0.9999
vn 0.0002 0.0024 1.0000
vn 0.0002 0.0124 -0.9999
vn -0.0000 0.0031 1.0000
vn 0.0002 -0.0016 1.0000
vn -0.0013 0.0169 -0.9999
vn -0.0002 0.0024 1.0000
vn -0.0005 0.0239 -0.9997
vn 0.9999 0.0130 0.0006
vn -1.0000 0.0075 -0.0008
vn -0.0042 0.0296 -0.9996
vn 0.9999 0.0118 0.0002
vn -0.0122 0.0631 -0.9979
vn 0.9999 0.0118 -0.0002
vn 0.9999 0.0105 0.0037
vn -0.9999 0.0115 -0.0017
vn -0.9999 0.0113 0.0002
vn 1.0000 0.0063 -0.0006
vn -0.0004 0.0076 1.0000
vn 0.0076 0.0104 0.9999
vn -0.0070 0.0094 0.9999
vn -0.0001 -0.0016 1.0000
vn 0.0031 0.0109 0.9999
vn 0.9999 0.0140 0.0002
vn 0.9999 0.0138 0.0059
vn 0.9999 0.0138 -0.0059
vn 0.9999 0.0149 -0.0000
vn -0.9999 0.0120 0.0043
vn -0.9999 0.0167 -0.0000
vn -0.9999 0.0156 -0.0066
vn -0.9999 0.0155 0.0066
vn 0.9999 -0.0100 -0.0014
vn -0.0001 -0.0111 0.9999
vn 0.0001 -0.0114 0.9999
vn 0.9991 -0.0407 0.0065
vn 0.0065 -0.0088 0.9999
vn -0.0071 -0.0098 0.9999
vn 0.0013 -0.0174 -0.9998
vn -0.0010 -0.0090 1.0000
vn -0.0003 -0.0004 -1.0000
vn -0.0002 -0.0125 0.9999
vn -0.0000 -0.0031 -1.0000
vn -0.0004 0.0165 -0.9999
vn 0.0013 -0.0169 0.9999
vn 0.0002 0.0006 -1.0000
vn 0.0005 -0.0239 0.9997
vn -0.9999 -0.0152 -0.0006
vn 0.9997 -0.0224 0.0023
vn 0.0042 -0.0296 0.9996
vn -0.9999 -0.0118 -0.0002
vn 0.0122 -0.0631 0.9979
vn -0.9999 -0.0117 0.0002
vn -0.9999 -0.0105 -0.0037
vn 0.9999 -0.0152 0.0022
vn 0.9999 -0.0134 -0.0002
vn -0.9998 -0.0209 0.0021
vn 0.0004 -0.0072 -1.0000
vn -0.0076 -0.0104 -0.9999
vn 0.0070 -0.0094 -0.9999
vn 0.0003 0.0163 -0.9999
vn -0.0030 -0.0117 -0.9999
vn -0.9999 -0.0140 -0.0002
vn -0.9999 -0.0138 -0.0059
vn -0.9999 -0.0138 0.0059
vn -0.9999 -0.0149 -0.0000
vn 0.9999 -0.0120 -0.0043
vn 0.9999 -0.0167 -0.0000
vn 0.9999 -0.0156 0.0066
vn 0.9999 -0.0155 -0.0066
vn 0.0007 -0.9999 0.0130
vn -0.0121 -0.9161 -0.4009
vn -0.0334 -0.9926 0.1170
vn 0.0020 -0.9999 0.0145
vn 0.0006 -1.0000 0.0023
vn 0.0458 -0.9938 0.1011
vn 0.0124 -0.9999 0.0005
vn 0.0134 -0.9999 -0.0012
vn -0.0470 -0.9938 0.1011
vn -0.0005 -1.0000 0.0017
vn -0.0007 -0.9999 -0.0116
vn -0.6043 -0.7967 -0.0100
vn 0.1009 -0.9927 -0.0658
vn -0.0005 -0.9998 -0.0183
vn 0.0183 -0.9998 0.0007
vn -0.0192 -0.9996 -0.0198
vn -0.0068 -0.9997 0.0225
vn 0.0017 -0.9998 -0.0173
vn 0.0074 -0.9997 -0.0236
vn 0.2682 -0.9626 -0.0375
vn 0.1060 -0.9931 -0.0512
vn 0.0031 -0.9999 0.0097
vn -0.0000 -1.0000 0.0028
vn -0.0030 -0.9999 0.0105
vn 0.0210 -0.9998 -0.0014
vn -0.0196 -0.9998 -0.0000
vn -0.6043 -0.7967 0.0105
vn 0.6045 -0.7965 0.0080
vn -0.0000 -0.9999 -0.0107
vn 0.6046 -0.7965 -0.0084
vn -0.0002 0.9999 -0.0130
vn 0.0116 0.9149 0.4034
vn 0.0263 0.9921 -0.1231
vn -0.0000 0.9999 -0.0137
vn 0.0002 1.0000 -0.0023
vn -0.0405 0.9940 -0.1015
vn -0.0124 0.9999 -0.0000
vn -0.0134 0.9999 -0.0000
vn 0.0418 0.9940 -0.1015
vn -0.0002 1.0000 -0.0017
vn -0.0000 0.9999 0.0116
vn 0.6054 0.7958 0.0099
vn -0.0006 0.9996 0.0297
vn -0.0003 0.9998 0.0179
vn -0.0178 0.9998 0.0004
vn 0.0243 0.9997 -0.0001
vn 0.0006 0.9998 -0.0193
vn 0.0004 0.9999 0.0166
vn 0.0004 0.9997 0.0236
vn 0.0011 0.9993 0.0371
vn -0.2270 0.9730 0.0419
vn 0.0006 1.0000 -0.0080
vn -0.0000 1.0000 -0.0028
vn -0.0007 1.0000 -0.0088
vn -0.0197 0.9998 0.0001
vn 0.0202 0.9998 0.0002
vn 0.6054 0.7958 -0.0105
vn -0.6054 0.7959 -0.0086
vn -0.0000 0.9999 0.0105
vn -0.6054 0.7959 0.0086
vn -0.0161 -0.9999 -0.0028
vn -0.0134 -0.9162 -0.4005
vn -0.0151 -0.9161 0.4006
vn -0.0155 -0.9999 -0.0001
vn 0.0105 -0.9160 -0.4010
vn 0.0137 -0.9999 -0.0001
vn 0.0134 -0.9161 0.4007
vn 0.0132 -0.9161 -0.4007
vn 0.0151 0.9999 0.0002
vn 0.0139 0.9150 0.4032
vn 0.0152 0.9149 -0.4033
vn 0.0151 0.9999 0.0001
vn -0.0101 0.9150 0.4034
vn -0.0133 0.9999 0.0001
vn -0.0135 0.9150 -0.4033
vn -0.0133 0.9150 0.4033
vn -0.0342 -0.9732 0.2275
vn -0.0409 -0.9987 0.0312
vn -0.0486 -0.9985 -0.0247
vn -0.0000 -0.9999 -0.0118
vn -0.0466 -0.9973 0.0561
vn -0.0115 -0.9999 -0.0000
vn -0.0407 -0.9988 -0.0280
vn 0.0323 -0.9990 -0.0297
vn -0.0001 -0.9985 -0.0540
vn 0.3105 -0.9484 -0.0637
vt 1.000000 1.000000
vt 1.000000 0.000000
vt 0.000000 0.000000
vt 1.000000 0.666667
vt 1.000000 0.333333
vt 0.000000 1.000000
s 0
f 287/9/181 227/9/181 257/9/181 295/9/181
f 255/10/182 239/10/182 269/10/182 285/10/182
f 239/10/183 238/11/183 268/11/183 269/10/183
f 231/9/184 304/12/184 303/13/184 230/10/184 260/10/184 261/9/184
f 256/10/185 255/10/185 285/10/185 286/10/185
f 240/10/186 256/10/186 286/10/186 270/10/186
f 228/9/187 244/9/187 274/9/187 258/9/187
f 241/10/188 306/10/188 305/10/188 248/10/188 278/10/188 271/10/188
f 250/9/189 249/9/189 279/9/189 280/9/189
f 238/11/190 242/11/190 272/11/190 268/11/190
f 251/9/191 250/9/191 280/9/191 281/9/191
f 232/14/192 233/9/192 263/9/192 262/14/192
f 245/10/193 240/10/193 270/10/193 275/10/193
f 252/9/194 251/9/194 281/9/194 282/9/194
f 246/10/195 245/10/195 275/10/195 276/10/195
f 243/9/196 252/9/196 282/9/196 273/9/196
f 233/9/197 229/9/197 259/9/197 263/9/197
f 247/10/198 310/10/198 309/10/198 246/10/198 276/10/198 277/10/198
f 234/11/199 235/14/199 265/14/199 264/11/199
f 248/10/200 312/10/200 311/10/200 247/10/200 277/10/200 278/10/200
f 242/11/201 234/11/201 264/11/201 272/11/201
f 291/14/202 236/14/202 266/14/202 299/14/202
f 230/10/203 308/10/203 307/10/203 241/10/203 271/10/203 260/10/203
f 249/9/204 231/9/204 261/9/204 279/9/204
f 236/14/205 237/14/205 267/14/205 266/14/205
f 227/9/206 254/9/206 284/9/206 257/9/206
f 253/9/207 228/9/207 258/9/207 283/9/207
f 254/9/208 253/9/208 283/9/208 284/9/208
f 237/14/209 232/14/209 262/14/209 267/14/209
f 244/9/210 243/9/210 273/9/210 274/9/210
f 235/14/211 294/14/211 302/14/211 265/14/211
f 294/14/212 293/14/212 301/14/212 302/14/212
f 293/14/213 292/14/213 300/14/213 301/14/213
f 292/14/214 291/14/214 299/14/214 300/14/214
f 229/9/215 290/9/215 298/9/215 259/9/215
f 290/9/216 289/9/216 297/9/216 298/9/216
f 289/9/217 288/9/217 296/9/217 297/9/217
f 288/9/218 287/9/218 295/9/218 296/9/218
f 373/9/219 381/9/219 343/9/219 313/9/219
f 341/10/220 371/10/220 355/10/220 325/10/220
f 325/10/221 355/10/221 354/11/221 324/11/221
f 317/9/222 347/9/222 346/10/222 316/10/222 389/13/222 390/12/222
f 342/10/223 372/10/223 371/10/223 341/10/223
f 326/10/224 356/10/224 372/10/224 342/10/224
f 314/9/225 344/9/225 360/9/225 330/9/225
f 327/10/226 357/10/226 364/10/226 334/10/226 391/10/226 392/10/226
f 336/9/227 366/9/227 365/9/227 335/9/227
f 324/11/228 354/11/228 358/11/228 328/11/228
f 337/9/229 367/9/229 366/9/229 336/9/229
f 318/14/230 348/14/230 349/9/230 319/9/230
f 331/10/231 361/10/231 356/10/231 326/10/231
f 338/9/232 368/9/232 367/9/232 337/9/232
f 332/10/233 362/10/233 361/10/233 331/10/233
f 329/9/234 359/9/234 368/9/234 338/9/234
f 319/9/235 349/9/235 345/9/235 315/9/235
f 333/10/236 363/10/236 362/10/236 332/10/236 395/10/236 396/10/236
f 320/11/237 350/11/237 351/14/237 321/14/237
f 334/10/238 364/10/238 363/10/238 333/10/238 397/10/238 398/10/238
f 328/11/239 358/11/239 350/11/239 320/11/239
f 377/14/240 385/14/240 352/14/240 322/14/240
f 316/10/241 346/10/241 357/10/241 327/10/241 393/10/241 394/10/241
f 335/9/242 365/9/242 347/9/242 317/9/242
f 322/14/243 352/14/243 353/14/243 323/14/243
f 313/9/244 343/9/244 370/9/244 340/9/244
f 339/9/245 369/9/245 344/9/245 314/9/245
f 340/9/246 370/9/246 369/9/246 339/9/246
f 323/14/247 353/14/247 348/14/247 318/14/247
f 330/9/248 360/9/248 359/9/248 329/9/248
f 321/14/249 351/14/249 388/14/249 380/14/249
f 380/14/250 388/14/250 387/14/250 379/14/250
f 379/14/251 387/14/251 386/14/251 378/14/251
f 378/14/252 386/14/252 385/14/252 377/14/252
f 315/9/253 345/9/253 384/9/253 376/9/253
f 376/9/254 384/9/254 383/9/254 375/9/254
f 375/9/255 383/9/255 382/9/255 374/9/255
f 374/9/256 382/9/256 381/9/256 373/9/256
f 254/9/257 227/9/257 313/9/257 340/9/257
f 290/9/258 229/9/258 315/9/258 376/9/258
f 304/12/259 231/9/259 317/9/259 390/12/259
f 244/9/260 228/9/260 314/9/260 330/9/260
f 233/9/261 232/14/261 318/14/261 319/9/261
f 229/9/262 233/9/262 319/9/262 315/9/262
f 235/14/263 234/11/263 320/11/263 321/14/263
f 294/14/264 235/14/264 321/14/264 380/14/264
f 237/14/265 236/14/265 322/14/265 323/14/265
f 232/14/266 237/14/266 323/14/266 318/14/266
f 238/11/267 239/10/267 325/10/267 324/11/267
f 256/10/268 240/10/268 326/10/268 342/10/268
f 306/10/269 241/10/269 327/10/269 392/10/269
f 242/11/270 238/11/270 324/11/270 328/11/270
f 234/11/271 242/11/271 328/11/271 320/11/271
f 308/10/272 230/10/272 316/10/272 394/10/272
f 243/9/273 244/9/273 330/9/273 329/9/273
f 240/10/274 245/10/274 331/10/274 326/10/274
f 245/10/275 246/10/275 332/10/275 331/10/275
f 310/10/276 247/10/276 333/10/276 396/10/276
f 312/10/277 248/10/277 334/10/277 398/10/277
f 249/9/278 250/9/278 336/9/278 335/9/278
f 250/9/279 251/9/279 337/9/279 336/9/279
f 251/9/280 252/9/280 338/9/280 337/9/280
f 252/9/281 243/9/281 329/9/281 338/9/281
f 231/9/282 249/9/282 335/9/282 317/9/282
f 228/9/283 253/9/283 339/9/283 314/9/283
f 253/9/284 254/9/284 340/9/284 339/9/284
f 239/10/285 255/10/285 341/10/285 325/10/285
f 255/10/286 256/10/286 342/10/286 341/10/286
f 257/9/287 284/9/287 370/9/287 343/9/287
f 259/9/288 298/9/288 384/9/288 345/9/288
f 261/9/289 260/10/289 346/10/289 347/9/289
f 258/9/290 274/9/290 360/9/290 344/9/290
f 262/14/291 263/9/291 349/9/291 348/14/291
f 263/9/292 259/9/292 345/9/292 349/9/292
f 264/11/293 265/14/293 351/14/293 350/11/293
f 265/14/294 302/14/294 388/14/294 351/14/294
f 266/14/295 267/14/295 353/14/295 352/14/295
f 267/14/296 262/14/296 348/14/296 353/14/296
f 269/10/297 268/11/297 354/11/297 355/10/297
f 270/10/298 286/10/298 372/10/298 356/10/298
f 271/10/299 278/10/299 364/10/299 357/10/299
f 268/11/300 272/11/300 358/11/300 354/11/300
f 272/11/301 264/11/301 350/11/301 358/11/301
f 260/10/302 271/10/302 357/10/302 346/10/302
f 274/9/303 273/9/303 359/9/303 360/9/303
f 275/10/304 270/10/304 356/10/304 361/10/304
f 276/10/305 275/10/305 361/10/305 362/10/305
f 277/10/306 276/10/306 362/10/306 363/10/306
f 278/10/307 277/10/307 363/10/307 364/10/307
f 280/9/308 279/9/308 365/9/308 366/9/308
f 281/9/309 280/9/309 366/9/309 367/9/309
f 282/9/310 281/9/310 367/9/310 368/9/310
f 273/9/311 282/9/311 368/9/311 359/9/311
f 279/9/312 261/9/312 347/9/312 365/9/312
f 283/9/313 258/9/313 344/9/313 369/9/313
f 284/9/314 283/9/314 369/9/314 370/9/314
f 285/10/315 269/10/315 355/10/315 371/10/315
f 286/10/316 285/10/316 371/10/316 372/10/316
f 227/9/317 287/9/317 373/9/317 313/9/317
f 287/9/318 288/9/318 374/9/318 373/9/318
f 288/9/319 289/9/319 375/9/319 374/9/319
f 289/9/320 290/9/320 376/9/320 375/9/320
f 236/14/321 291/14/321 377/14/321 322/14/321
f 291/14/322 292/14/322 378/14/322 377/14/322
f 292/14/323 293/14/323 379/14/323 378/14/323
f 293/14/324 294/14/324 380/14/324 379/14/324
f 295/9/325 257/9/325 343/9/325 381/9/325
f 296/9/326 295/9/326 381/9/326 382/9/326
f 297/9/327 296/9/327 382/9/327 383/9/327
f 298/9/328 297/9/328 383/9/328 384/9/328
f 299/14/329 266/14/329 352/14/329 385/14/329
f 300/14/330 299/14/330 385/14/330 386/14/330
f 301/14/331 300/14/331 386/14/331 387/14/331
f 302/14/332 301/14/332 387/14/332 388/14/332
f 230/10/333 303/13/333 389/13/333 316/10/333
f 303/13/334 304/12/334 390/12/334 389/13/334
f 248/10/335 305/10/335 391/10/335 334/10/335
f 305/10/336 306/10/336 392/10/336 391/10/336
f 241/10/337 307/10/337 393/10/337 327/10/337
f 307/10/338 308/10/338 394/10/338 393/10/338
f 246/10/339 309/10/339 395/10/339 332/10/339
f 309/10/340 310/10/340 396/10/340 395/10/340
f 247/10/341 311/10/341 397/10/341 333/10/341
f 311/10/342 312/10/342 398/10/342 397/10/342
