# Blender 5.1.1
# www.blender.org
mtllib PistaSimples.mtl
o PistaSimples
v 1.378700 0.000000 5.338868
v 1.378700 0.000000 3.338868
v 0.378700 0.000000 5.338868
v 0.378700 0.000000 3.338868
v -2.607914 0.000000 5.338868
v -2.607914 0.000000 3.338868
v 1.378700 -0.000000 -5.641441
v 0.378700 -0.000000 -5.641441
v -2.607914 -0.000000 -5.641441
v 0.378700 0.000000 5.338868
v 0.378700 0.000000 3.338868
v 0.378700 -0.000000 -5.641441
v 1.378700 -0.120000 5.338868
v 1.378700 -0.120000 3.338868
v 0.378700 -0.120000 5.338868
v 0.378700 -0.120000 3.338868
v -2.607914 -0.120000 5.338868
v -2.607914 -0.120000 3.338868
v 1.378700 -0.120000 -5.641441
v 0.378700 -0.120000 -5.641441
v -2.607914 -0.120000 -5.641441
v 0.378700 -0.120000 5.338868
v 0.378700 -0.120000 3.338868
v 0.378700 -0.120000 -5.641441
vn -0.0000 1.0000 -0.0000
vn -0.0000 -1.0000 -0.0000
vn -0.0000 -0.0000 1.0000
vn 1.0000 -0.0000 -0.0000
vn -1.0000 -0.0000 -0.0000
vn -0.0000 -0.0000 -1.0000
vt 0.000000 1.000000
vt 1.000000 1.000000
vt 1.000000 0.500000
vt 1.000000 0.000000
vt 0.000000 0.000000
vt 0.000000 0.500000
s 1
f 3/1/1 4/2/1 6/2/1 5/1/1
f 6/2/1 4/2/1 8/2/1 9/2/1
f 11/3/1 2/4/1 7/4/1 12/3/1
f 1/5/1 2/4/1 11/3/1 10/6/1
f 15/1/2 17/1/2 18/2/2 16/2/2
f 18/2/2 21/2/2 20/2/2 16/2/2
f 23/3/2 24/3/2 19/4/2 14/4/2
f 13/5/2 22/6/2 23/3/2 14/4/2
f 1/5/3 10/6/3 22/6/3 13/5/3
f 2/4/4 1/5/4 13/5/4 14/4/4
f 4/2/4 3/1/4 15/1/4 16/2/4
f 5/1/5 6/2/5 18/2/5 17/1/5
f 3/1/3 5/1/3 17/1/3 15/1/3
f 9/2/6 8/2/6 20/2/6 21/2/6
f 6/2/5 9/2/5 21/2/5 18/2/5
f 8/2/4 4/2/4 16/2/4 20/2/4
f 7/4/4 2/4/4 14/4/4 19/4/4
f 12/3/6 7/4/6 19/4/6 24/3/6
f 11/3/5 12/3/5 24/3/5 23/3/5
f 10/6/5 11/3/5 23/3/5 22/6/5
o PistaSimples_bordas
v 1.378700 0.000000 5.338868
v 1.378700 0.000000 3.338868
v 0.378700 0.000000 5.338868
v -2.607914 0.000000 5.338868
v -2.607914 0.000000 3.338868
v 1.378700 -0.000000 -5.641441
v 0.378700 -0.000000 -5.641441
v -2.607914 -0.000000 -5.641441
v 1.378700 0.112480 5.338868
v 1.378700 0.112480 3.338868
v 0.378700 0.112480 5.338868
v -2.607914 0.112480 5.338868
v -2.607914 0.112480 3.338868
v 1.378700 0.112479 -5.641441
v 0.378700 0.112479 -5.641441
v -2.607914 0.112479 -5.641441
v 0.378700 0.000000 5.338868
v 0.378700 -0.000000 -5.641441
v 0.378700 0.112480 5.338868
v 0.378700 0.112479 -5.641441
v 1.463553 0.000000 5.423721
v 1.498700 0.000000 3.338868
v 0.378700 0.000000 5.458868
v -2.692767 0.000000 5.423721
v -2.727914 0.000000 3.338868
v 1.463553 -0.000000 -5.726295
v 0.378700 -0.000000 -5.761441
v -2.692767 -0.000000 -5.726295
v 1.463553 0.112480 5.423721
v 1.498700 0.112480 3.338868
v 0.378700 0.112480 5.458868
v -2.692767 0.112480 5.423721
v -2.727914 0.112480 3.338868
v 1.463553 0.112479 -5.726295
v 0.378700 0.112479 -5.761441
v -2.692767 0.112479 -5.726295
v 0.378700 0.000000 5.458868
v 0.378700 -0.000000 -5.761441
v 0.378700 0.112480 5.458868
v 0.378700 0.112479 -5.761441
vn -0.0000 -0.0000 1.0000
vn -0.0000 -0.0000 -1.0000
vn -1.0000 -0.0000 -0.0000
vn 1.0000 -0.0000 -0.0000
vn 0.0324 -0.0000 -0.9995
vn -0.0114 -0.0000 0.9999
vn 0.9999 -0.0000 0.0169
vn -0.0114 -0.0000 -0.9999
vn -0.9999 -0.0000 0.0169
vn 1.0000 -0.0000 -0.0039
vn -1.0000 -0.0000 -0.0039
vn 0.0324 -0.0000 0.9995
vn -0.0000 -1.0000 -0.0000
vn -0.0000 1.0000 -0.0000
vt 1.000000 0.500000
vt 1.000000 0.000000
vt 0.000000 1.000000
vt 0.000000 0.000000
vt 1.000000 1.000000
vt 0.000000 0.500000
s 1
f 42/7/7 30/8/7 38/8/7 44/7/7
f 27/9/8 28/9/8 36/9/8 35/9/8
f 26/8/9 25/10/9 33/10/9 34/8/9
f 32/11/7 31/11/7 39/11/7 40/11/7
f 28/9/10 29/11/10 37/11/10 36/9/10
f 30/8/9 26/8/9 34/8/9 38/8/9
f 29/11/10 32/11/10 40/11/10 37/11/10
f 25/10/8 41/12/8 43/12/8 33/10/8
f 62/7/11 64/7/11 58/8/11 50/8/11
f 47/9/12 55/9/12 56/9/12 48/9/12
f 46/8/13 54/8/13 53/10/13 45/10/13
f 52/11/14 60/11/14 59/11/14 51/11/14
f 48/9/15 56/9/15 57/11/15 49/11/15
f 50/8/16 58/8/16 54/8/16 46/8/16
f 49/11/17 57/11/17 60/11/17 52/11/17
f 45/10/18 53/10/18 63/12/18 61/12/18
f 41/12/19 25/10/19 45/10/19 61/12/19
f 25/10/19 26/8/19 46/8/19 45/10/19
f 29/11/19 28/9/19 48/9/19 49/11/19
f 28/9/19 27/9/19 47/9/19 48/9/19
f 31/11/19 32/11/19 52/11/19 51/11/19
f 32/11/19 29/11/19 49/11/19 52/11/19
f 26/8/19 30/8/19 50/8/19 46/8/19
f 33/10/20 43/12/20 63/12/20 53/10/20
f 34/8/20 33/10/20 53/10/20 54/8/20
f 36/9/20 37/11/20 57/11/20 56/9/20
f 35/9/20 36/9/20 56/9/20 55/9/20
f 40/11/20 39/11/20 59/11/20 60/11/20
f 37/11/20 40/11/20 60/11/20 57/11/20
f 38/8/20 34/8/20 54/8/20 58/8/20
f 39/11/10 31/11/10 51/11/10 59/11/10
f 27/9/10 35/9/10 55/9/10 47/9/10
f 30/8/19 42/7/19 62/7/19 50/8/19
f 44/7/20 38/8/20 58/8/20 64/7/20
f 43/12/9 41/12/9 61/12/9 63/12/9
f 42/7/9 44/7/9 64/7/9 62/7/9
